<svg width="166" height="170" viewBox="0 0 166 170" fill="none" xmlns="http://www.w3.org/2000/svg">
<g clip-path="url(#clip0_1964_5967)">
<ellipse cx="82.5" cy="82.5" rx="82" ry="82.5" fill="#F6EDFF"/>
<path d="M138.34 99.9082C139.783 101.154 141.654 101.607 143.247 102.579C150.372 106.934 155.509 112.967 158.552 120.753C159.666 123.611 160.204 126.618 160.748 129.621C160.777 129.782 160.912 129.921 161 130.071V137.608C160.638 137.992 160.507 138.482 160.456 138.971C159.992 143.334 158.625 147.437 156.47 151.212C151.241 160.368 143.528 166.331 133.251 168.973C131.617 169.393 129.871 169.185 128.333 170H120.514C118.625 169.568 116.718 169.214 114.858 168.688C109.301 167.109 104.456 164.245 100.163 160.408C96.1917 156.857 93.4552 152.428 91.1205 147.711C90.5067 145.632 89.9915 143.517 89.2388 141.489C88.8954 140.561 89.3119 139.523 88.6579 138.701C88.6725 138.617 88.6652 138.536 88.6433 138.456C88.8808 137.696 88.4095 137.027 88.3802 136.286C88.2304 132.394 88.6506 128.569 89.48 124.78C89.9477 123.38 90.4117 121.977 90.8793 120.578C92.1618 117.52 93.7767 114.644 95.6802 111.929C96.8932 110.537 98.1026 109.141 99.3156 107.749C102.505 104.87 105.969 102.404 109.9 100.617C111.026 100.105 112.304 99.9337 113.283 99.0934C116.597 98.3955 119.908 97.6866 123.316 97.6428C125.362 97.6428 127.408 97.6355 129.455 97.6318L129.575 97.6574H129.699C130.182 98.0191 130.722 98.1836 131.332 98.2603C133.236 98.4941 135.118 98.8486 136.89 99.6268C137.361 99.8351 137.825 100.003 138.347 99.9118L138.34 99.9082ZM96.221 127.564C95.9469 127.794 95.9762 128.087 96.0419 128.39C96.0017 128.671 95.9579 128.949 95.9177 129.23C95.461 129.548 95.7314 129.979 95.7423 130.37C94.986 134.492 95.6108 138.536 96.8238 142.435C98.4278 147.594 101.285 152.056 105.424 155.607C110.255 159.751 115.761 162.352 122.191 162.765C123.956 163.163 125.72 163.152 127.485 162.758C132.911 162.177 137.843 160.324 142.202 157.025C147.409 153.082 150.923 147.989 152.692 141.668C153.894 137.375 154.011 133.063 153.4 128.689C153.382 128.368 153.408 128.039 153.335 127.732C151.972 121.904 149.276 116.851 144.891 112.693C137.376 105.564 128.428 103.259 118.486 105.246C110.401 106.861 104.084 111.396 99.8015 118.554C98.1209 121.36 96.6594 124.265 96.2246 127.571L96.221 127.564Z" fill="#7858DD"/>
<path d="M86.657 148.959C84.8211 148.974 82.9814 149 81.1455 149C62.1015 149 43.0575 149 24.0135 149C20.2862 149 18.1949 146.919 18.1949 143.208C18.1912 106.43 18.2245 69.6478 18.1467 32.8619C18.1393 29.0589 20.9191 26.9963 24.0432 27C60.7653 27.063 97.4837 27.0593 134.206 27.0111C137.496 27.0074 140.158 29.6551 140.147 32.8656C140.069 53.2841 140.106 73.7026 140.106 94.1248C140.106 94.5951 140.076 95.0654 140.062 95.5357C137.219 94.6247 134.358 93.8064 131.367 93.5508C131.322 93.4472 131.278 93.3435 131.234 93.2398C131.252 87.115 131.285 80.9865 131.285 74.8617C131.285 66.5669 131.256 58.2721 131.241 49.9773C131.297 49.7996 131.219 49.7329 131.045 49.7477C130.623 49.7292 130.197 49.6959 129.775 49.6959C96.0291 49.6959 62.2829 49.6959 28.533 49.6959C28.1111 49.6959 27.6854 49.7255 27.2634 49.7403C27.0821 49.7218 27.0006 49.7847 27.0673 49.9736C27.0524 50.3032 27.0302 50.6327 27.0302 50.9623C27.0302 79.2534 27.0302 107.541 27.0302 135.832C27.0302 136.162 27.0561 136.491 27.0673 136.821C26.9155 137.865 26.9525 138.909 27.045 139.953C27.0191 140.113 27.0858 140.179 27.2449 140.153C27.7594 140.176 28.2776 140.216 28.7921 140.216C46.8071 140.216 64.8221 140.216 82.8334 140.216C83.3479 140.216 83.8661 140.183 84.3806 140.165C84.4805 140.198 84.5805 140.228 84.6804 140.261C84.9284 143.253 85.7538 146.112 86.6607 148.956L86.657 148.959ZM101.348 34.9874C100.974 34.9689 100.597 34.9356 100.223 34.9356C76.3114 34.9356 52.4 34.9356 28.4886 34.9356C28.348 34.9356 28.2036 34.9504 28.0666 34.9356C27.2819 34.8319 26.9784 35.1393 27.0117 35.9539C27.0747 37.5981 27.0524 39.2496 27.0635 40.8975C26.9969 41.0826 27.0784 41.153 27.2597 41.1493C27.6373 41.1678 28.0111 41.2011 28.3887 41.2011C52.3334 41.2011 76.2781 41.2011 100.219 41.2011C100.597 41.2011 100.971 41.1715 101.348 41.1567C101.529 41.1604 101.607 41.0826 101.563 40.8975C101.563 39.02 101.563 37.1426 101.563 35.2652C101.611 35.0837 101.541 34.9911 101.352 34.9911L101.348 34.9874ZM105.32 38.1128C105.101 39.8977 106.674 41.2345 108.436 41.2196C110.117 41.2048 111.449 39.6644 111.516 38.0424C111.59 36.2724 110.161 35.0134 108.222 34.9652C106.711 34.9282 105.327 36.4279 105.32 38.1128ZM115.191 38.0721C115.191 39.8199 116.58 41.2011 118.316 41.19C119.959 41.1789 121.428 39.7384 121.428 38.1387C121.428 36.3761 119.94 34.9356 118.16 34.9652C116.487 34.9911 115.191 36.3502 115.191 38.0758V38.0721ZM131.056 38.135C131.408 36.3168 129.549 34.98 127.936 34.9726C126.448 34.9652 124.826 36.6279 124.837 38.0869C124.849 39.5422 126.518 41.2048 127.947 41.1826C129.816 41.153 131.056 39.9384 131.056 38.135Z" fill="#096E52"/>
<path d="M85.6253 147.339C83.8131 147.354 81.9973 147.379 80.185 147.379C61.387 147.379 42.589 147.379 23.791 147.379C20.1118 147.379 18.0475 145.326 18.0475 141.665C18.0439 105.375 18.0767 69.0812 18 32.784C17.9927 29.0315 20.7366 26.9964 23.8203 27C60.0681 27.0621 96.3122 27.0585 132.56 27.011C135.808 27.0073 138.435 29.6198 138.424 32.7877C138.347 52.9349 138.384 73.0821 138.384 93.233C138.384 93.697 138.355 94.1611 138.34 94.6251C135.534 93.7263 132.71 92.9188 129.758 92.6667C129.714 92.5644 129.67 92.4621 129.626 92.3597C129.644 86.3163 129.677 80.2692 129.677 74.2258C129.677 66.0412 129.648 57.8566 129.633 49.672C129.688 49.4966 129.612 49.4309 129.44 49.4455C129.023 49.4272 128.603 49.3943 128.187 49.3943C94.8763 49.3943 61.5661 49.3943 28.2521 49.3943C27.8356 49.3943 27.4155 49.4236 26.9989 49.4382C26.8199 49.4199 26.7395 49.482 26.8053 49.6684C26.7907 49.9936 26.7688 50.3188 26.7688 50.6439C26.7688 78.5592 26.7688 106.471 26.7688 134.386C26.7688 134.711 26.7943 135.036 26.8053 135.362C26.6555 136.392 26.692 137.422 26.7834 138.453C26.7578 138.61 26.8236 138.676 26.9807 138.65C27.4885 138.672 28 138.712 28.5079 138.712C46.2902 138.712 64.0725 138.712 81.8511 138.712C82.359 138.712 82.8705 138.679 83.3783 138.661C83.477 138.694 83.5756 138.723 83.6743 138.756C83.9191 141.708 84.7338 144.529 85.629 147.335L85.6253 147.339ZM100.127 34.8813C99.7576 34.863 99.385 34.8302 99.0159 34.8302C75.4134 34.8302 51.8108 34.8302 28.2083 34.8302C28.0695 34.8302 27.927 34.8448 27.7918 34.8302C27.0172 34.7279 26.7176 35.0311 26.7505 35.835C26.8126 37.4573 26.7907 39.0869 26.8016 40.7128C26.7359 40.8955 26.8163 40.9649 26.9953 40.9613C27.368 40.9796 27.737 41.0124 28.1096 41.0124C51.7451 41.0124 75.3805 41.0124 99.0123 41.0124C99.3849 41.0124 99.754 40.9832 100.127 40.9686C100.306 40.9723 100.382 40.8955 100.339 40.7128C100.339 38.8603 100.339 37.0078 100.339 35.1554C100.386 34.9763 100.317 34.885 100.13 34.885L100.127 34.8813ZM104.047 37.9652C103.831 39.7263 105.384 41.0453 107.123 41.0307C108.782 41.0161 110.097 39.4961 110.163 37.8957C110.236 36.1492 108.826 34.9069 106.911 34.8594C105.421 34.8229 104.054 36.3027 104.047 37.9652ZM113.791 37.925C113.791 39.6496 115.161 41.0124 116.875 41.0015C118.497 40.9905 119.948 39.5692 119.948 37.9907C119.948 36.2515 118.479 34.8302 116.721 34.8594C115.07 34.885 113.791 36.2259 113.791 37.9286V37.925ZM129.451 37.9871C129.798 36.193 127.964 34.874 126.371 34.8667C124.902 34.8594 123.302 36.5 123.313 37.9396C123.324 39.3755 124.971 41.0161 126.382 40.9942C128.227 40.9649 129.451 39.7665 129.451 37.9871Z" fill="#0FE3A9"/>
<path d="M129.754 92.667C132.706 92.9155 135.534 93.7266 138.336 94.6254C138.336 96.3866 138.336 98.1477 138.336 99.9089C137.814 100 137.35 99.8322 136.879 99.6239C135.107 98.8456 133.225 98.4912 131.321 98.2574C130.715 98.1843 130.174 98.0199 129.688 97.6545C129.714 97.5668 129.703 97.4864 129.655 97.4097C129.688 95.8276 129.717 94.2491 129.75 92.667H129.754Z" fill="#096E52"/>
<path d="M85.6254 147.339C84.7266 144.537 83.9154 141.712 83.6707 138.76C85.249 138.727 86.8311 138.698 88.4094 138.665L88.53 138.709L88.6579 138.698C89.3119 139.52 88.8954 140.554 89.2388 141.486C89.9915 143.514 90.5066 145.629 91.1204 147.708C89.3155 147.189 87.4558 147.485 85.6254 147.339Z" fill="#096E52"/>
<path d="M122.191 162.762C115.761 162.349 110.255 159.747 105.424 155.604C101.285 152.052 98.4277 147.591 96.8238 142.432C95.6107 138.533 94.986 134.488 95.7423 130.367C96.4145 130.082 96.3342 129.68 95.9176 129.227C95.9578 128.946 96.0017 128.668 96.0419 128.387C96.1223 128.215 96.199 128.039 96.2794 127.868C96.579 127.791 96.6995 127.597 96.7909 127.29C98.6396 121.17 101.869 116.026 107.171 112.262C111.172 109.419 115.413 107.234 120.357 106.58C126.645 105.747 132.692 106.485 138.293 109.529C145.607 113.501 150.448 119.548 152.787 127.568C152.9 127.963 152.725 128.577 153.4 128.682C154.011 133.056 153.894 137.368 152.692 141.661C150.923 147.982 147.408 153.075 142.202 157.018C137.847 160.317 132.911 162.17 127.485 162.751C125.72 162.751 123.956 162.754 122.191 162.758V162.762ZM126.068 128.953C121.731 128.332 117.975 132.771 121.106 137.068C120.627 137.85 120.145 138.628 119.674 139.414C119.188 140.221 119.155 141.073 119.973 141.599C120.85 142.161 121.643 141.727 122.198 140.926C122.692 140.21 123.141 139.465 123.609 138.731C128.088 139.319 131.559 134.92 128.592 130.623C129.232 129.556 129.845 128.471 130.514 127.422C132.388 124.477 134.036 121.386 136.104 118.561C136.287 118.634 136.473 118.711 136.656 118.784C137.686 120.176 139.096 121.218 140.087 122.672C141.807 125.197 142.962 127.904 143.466 130.908C143.181 131.847 143.729 132.72 143.689 133.637C143.521 137.514 142.651 141.186 140.35 144.379C139.659 145.337 139.71 145.921 140.594 146.696C141.815 147.766 142.896 148.994 144.106 150.225C146.944 147.244 148.497 143.685 149.571 139.863C150.426 136.823 150.006 133.714 150.13 130.637C150.931 129.896 149.889 129.432 149.78 128.847C148.673 122.964 145.852 118.035 141.197 114.21C139.736 113.051 138.402 111.813 136.63 110.983C133.594 109.562 130.452 108.754 127.189 108.243C126.583 107.837 125.921 108.035 125.275 108.064L124.708 108.119C118.457 108.155 112.871 109.993 108.168 114.228C106.963 114.944 106.119 116.015 105.223 117.063C102.86 119.826 101.095 122.898 100.021 126.377C99.5859 127.787 99.6371 129.337 98.7931 130.623C99.4069 132.83 98.8881 135.099 99.2425 137.357C99.9622 141.939 101.789 145.936 104.61 149.56C105.143 150.247 105.428 150.021 105.877 149.553C106.908 148.486 107.942 147.416 109.031 146.411C109.721 145.775 109.714 145.238 109.191 144.493C106.257 140.309 105.121 135.694 105.943 130.623C106.261 129.483 106.506 128.313 106.911 127.203C108.103 123.914 110.192 121.243 112.757 118.912C115.114 117.304 117.58 115.971 120.397 115.284C121.829 114.933 123.335 115.262 124.712 114.663C125.198 114.783 125.636 115.035 126.177 115.003C128.793 114.845 131.084 115.934 133.382 116.965C130.945 120.958 128.508 124.952 126.071 128.949L126.068 128.953Z" fill="white"/>
<path d="M88.4095 138.668C86.8311 138.701 85.2491 138.73 83.6707 138.763C83.5721 138.73 83.4734 138.701 83.3748 138.668C83.3748 137.568 83.3748 136.468 83.3748 135.369C83.4077 132.405 83.2761 129.442 83.9228 126.504C84.2991 124.794 84.1749 124.765 82.3919 124.765C66.6265 124.765 50.861 124.765 35.0955 124.765C32.5708 124.765 32.5635 124.765 32.5708 122.281C32.5782 120.048 32.3589 120.304 34.6205 120.304C51.1314 120.3 67.6385 120.293 84.1493 120.322C85.0481 120.322 85.5889 120.154 85.8994 119.222C86.7252 116.752 88.0259 114.494 89.2425 112.203C89.2791 112.178 89.3521 112.138 89.3485 112.13C89.3193 112.064 89.2791 112.002 89.2425 111.94C71.3397 111.937 53.4332 111.933 35.5303 111.929C32.5416 111.929 32.6001 111.929 32.5416 108.904C32.5197 107.709 32.9216 107.442 34.0506 107.442C52.9326 107.475 71.8146 107.464 90.693 107.464C91.252 107.464 91.8147 107.428 92.3189 107.738C92.0303 108.736 91.1936 109.394 90.7223 110.281C90.4701 110.756 89.7942 111.242 90.0098 111.666C90.2984 112.229 91.0913 111.896 91.6612 111.915C92.9985 111.955 94.3394 111.929 95.6803 111.929C93.7767 114.644 92.1618 117.52 90.8794 120.578C90.1377 120.578 89.396 120.582 88.6543 120.582C86.562 120.582 85.2394 121.568 84.6864 123.541C84.6755 123.585 84.6499 123.625 84.6353 123.669C84.3393 124.451 84.6061 124.791 85.4464 124.776C86.7909 124.754 88.1355 124.776 89.4764 124.776C88.6506 128.569 88.2268 132.394 88.3766 136.282C88.4058 137.024 88.8808 137.696 88.6397 138.452C88.563 138.526 88.4862 138.595 88.4058 138.668H88.4095Z" fill="#E1E6EA"/>
<path d="M113.28 99.0864C112.304 99.9231 111.022 100.098 109.896 100.61C105.961 102.397 102.501 104.863 99.3119 107.742C97.1562 107.731 95.0005 107.717 92.8449 107.706C93.1226 106.836 93.7327 106.208 94.3392 105.565C96.4072 103.376 98.6834 101.425 101.164 99.6198C100.379 99.0133 99.5932 99.0827 98.8259 99.0827C77.7005 99.0827 56.5752 99.0827 35.4534 99.0827C32.4976 99.0827 32.5415 99.0827 32.5451 96.1158C32.5451 95.1147 32.8886 94.8662 33.8385 94.8662C59.1035 94.8918 84.3684 94.8918 109.633 94.8991C109.334 95.7577 108.461 95.6993 107.828 95.9806C105.991 96.8064 104.193 97.6833 102.355 99.0827H113.28V99.0864Z" fill="#E1E6EA"/>
<path d="M153.4 128.686C152.725 128.581 152.9 127.967 152.787 127.572C150.448 119.552 145.607 113.505 138.293 109.533C132.692 106.493 126.645 105.751 120.357 106.584C115.414 107.239 111.175 109.423 107.171 112.266C101.873 116.03 98.6433 121.178 96.7909 127.294C96.6996 127.598 96.579 127.795 96.2794 127.872C96.2611 127.769 96.2429 127.667 96.2246 127.565C96.6594 124.258 98.1208 121.353 99.8015 118.547C104.087 111.393 110.404 106.859 118.486 105.24C128.428 103.252 137.376 105.554 144.891 112.686C149.276 116.848 151.972 121.898 153.335 127.726C153.408 128.032 153.379 128.365 153.4 128.683V128.686Z" fill="#EBF1F4"/>
<path d="M113.28 99.0867H102.355C104.193 97.6873 105.991 96.8067 107.829 95.9846C108.461 95.6996 109.334 95.758 109.634 94.903C110.189 94.8957 110.741 94.8884 111.296 94.8848C114.361 94.8848 117.427 94.8921 120.492 94.8921C122.36 94.8921 123.301 95.808 123.313 97.6398C119.904 97.6836 116.594 98.3924 113.28 99.0903V99.0867Z" fill="#D6D7DC"/>
<path d="M123.313 97.6362C123.301 95.8044 122.36 94.8885 120.492 94.8885C117.427 94.8885 114.361 94.8849 111.296 94.8812C111.446 94.567 111.705 94.4245 112.03 94.3149C115.264 93.2114 118.603 92.5866 122.001 92.4039C124.537 92.2688 127.083 92.3638 129.626 92.3601C129.67 92.4624 129.714 92.5647 129.758 92.667C129.725 94.2491 129.696 95.8276 129.663 97.4097C129.593 97.4828 129.524 97.5558 129.451 97.6289C127.405 97.6289 125.359 97.6362 123.313 97.6399V97.6362Z" fill="#E1E6EA"/>
<path d="M92.8414 107.706C94.997 107.717 97.1527 107.731 99.3083 107.742C98.0953 109.134 96.886 110.53 95.6729 111.922C94.3321 111.922 92.9912 111.948 91.6539 111.908C91.084 111.889 90.2875 112.222 90.0025 111.659C89.7869 111.235 90.4629 110.746 90.715 110.274C91.1863 109.387 92.023 108.729 92.3116 107.731C92.487 107.72 92.666 107.713 92.8414 107.702V107.706Z" fill="#D6D7DC"/>
<path d="M89.4762 124.772C88.1316 124.772 86.7871 124.747 85.4462 124.772C84.6059 124.787 84.3392 124.447 84.6351 123.665C84.6497 123.622 84.6753 123.581 84.6863 123.537C85.2367 121.564 86.5594 120.578 88.6541 120.578C89.3958 120.578 90.1375 120.578 90.8792 120.574C90.4115 121.974 89.9475 123.377 89.4798 124.776L89.4762 124.772Z" fill="#D6D7DC"/>
<path d="M122.191 162.762C123.956 162.762 125.72 162.759 127.485 162.755C125.72 163.146 123.956 163.157 122.191 162.762Z" fill="#7858DD"/>
<path d="M95.9176 129.227C96.3341 129.68 96.4145 130.082 95.7422 130.367C95.7313 129.976 95.4609 129.544 95.9176 129.227Z" fill="#E1E6EA"/>
<path d="M96.2246 127.564C96.2429 127.667 96.2612 127.769 96.2794 127.871C96.2027 128.043 96.1223 128.218 96.0456 128.39C95.9835 128.087 95.9506 127.795 96.2246 127.564Z" fill="#E1E6EA"/>
<path d="M129.451 97.6284C129.52 97.5553 129.59 97.4823 129.663 97.4092C129.71 97.4859 129.721 97.5663 129.695 97.654H129.571L129.451 97.6284Z" fill="#D6D7DC"/>
<path d="M88.4094 138.669C88.4862 138.596 88.5629 138.526 88.6433 138.453C88.6652 138.534 88.6725 138.614 88.6579 138.698L88.53 138.709L88.4094 138.665V138.669Z" fill="#D6D7DC"/>
<path d="M92.8413 107.706C92.6659 107.717 92.4869 107.724 92.3115 107.735C91.8073 107.425 91.2446 107.461 90.6856 107.461C71.8036 107.461 52.9216 107.472 34.0432 107.439C32.9142 107.439 32.5123 107.706 32.5342 108.901C32.5927 111.926 32.5342 111.926 35.5229 111.926C53.4258 111.93 71.3323 111.934 89.2351 111.937C89.2351 112.025 89.2351 112.113 89.2351 112.2C88.0185 114.491 86.7178 116.749 85.8921 119.219C85.5815 120.151 85.0408 120.323 84.142 120.319C67.6311 120.293 51.124 120.297 34.6131 120.301C32.3515 120.301 32.5708 120.049 32.5635 122.278C32.5525 124.762 32.5635 124.762 35.0881 124.762C50.8536 124.762 66.6191 124.762 82.3846 124.762C84.1675 124.762 84.2918 124.791 83.9154 126.501C83.2687 129.439 83.4003 132.402 83.3674 135.366C64.5109 135.366 45.6545 135.366 26.7943 135.362C26.7797 135.037 26.7578 134.711 26.7578 134.386C26.7578 106.471 26.7578 78.5594 26.7578 50.6441C26.7578 50.3189 26.7834 49.9938 26.7943 49.6686C26.8601 49.5918 26.9259 49.5151 26.988 49.4384C27.4045 49.4238 27.8247 49.3945 28.2412 49.3945C61.5515 49.3945 94.8617 49.3945 128.176 49.3945C128.592 49.3945 129.012 49.4274 129.429 49.4457C129.495 49.5224 129.557 49.5955 129.623 49.6722C129.637 57.8568 129.666 66.0414 129.666 74.226C129.666 80.2694 129.633 86.3165 129.615 92.3599C127.072 92.3672 124.526 92.2686 121.99 92.4038C118.592 92.5865 115.256 93.2113 112.019 94.3147C111.69 94.428 111.435 94.5668 111.285 94.8811C110.73 94.8884 110.178 94.8957 109.622 94.8993C84.3575 94.8957 59.0926 94.892 33.8276 94.8665C32.8813 94.8665 32.5342 95.1149 32.5342 96.1161C32.5342 99.083 32.4867 99.083 35.4425 99.083C56.5679 99.083 77.6933 99.083 98.815 99.083C99.5859 99.083 100.368 99.0136 101.153 99.6201C98.6725 101.425 96.3963 103.376 94.3283 105.565C93.7218 106.208 93.108 106.836 92.834 107.706H92.8413ZM123.305 66.4104C123.305 65.5737 123.229 64.726 123.327 63.9002C123.488 62.5629 123.006 62.1866 121.65 62.1902C105.75 62.2377 89.8489 62.2195 73.9483 62.2195C71.0802 62.2195 71.1423 62.2195 71.0619 65.0658C71.0254 66.3264 71.3615 66.7137 72.6732 66.71C89.458 66.6625 106.243 66.6772 123.028 66.6772C123.123 66.8416 123.265 66.9695 123.43 66.8123C123.594 66.6552 123.47 66.5091 123.309 66.4031L123.305 66.4104ZM32.611 57.2357C32.611 67.1668 32.611 77.0979 32.611 87.029C32.8667 87.5332 33.3417 87.3396 33.7253 87.3396C43.0056 87.3505 52.2858 87.3505 61.5661 87.3396C61.9534 87.3396 62.4174 87.5186 62.6987 87.0509C62.6987 77.1052 62.6951 67.1595 62.6914 57.2137C62.4101 56.746 61.9461 56.9251 61.5588 56.9251C52.2822 56.9141 43.0056 56.9141 33.729 56.9251C33.3453 56.9251 32.874 56.7351 32.6146 57.2357H32.611ZM97.4814 78.4169H73.9008C71.0802 78.4169 71.1788 78.4206 71.0473 81.1719C70.9779 82.659 71.4967 82.9148 72.8558 82.9111C88.9501 82.8673 105.041 82.8819 121.135 82.8819C122.528 82.8819 123.254 82.1682 123.313 80.7408C123.324 80.4631 123.324 80.1708 123.415 79.9186C123.872 78.691 123.375 78.395 122.18 78.3986C113.948 78.4352 105.713 78.4169 97.4814 78.4169Z" fill="white"/>
<path d="M26.798 40.7087C26.787 39.0828 26.8053 37.4568 26.7468 35.8308C26.7176 35.0233 27.0135 34.7201 27.7881 34.826C27.9233 34.8443 28.0658 34.826 28.2046 34.826C51.8072 34.826 75.4097 34.826 99.0123 34.826C99.3813 34.826 99.754 34.8589 100.123 34.8772C100.192 34.9685 100.262 35.0562 100.331 35.1476C100.331 37.0001 100.331 38.8526 100.331 40.7051C100.262 40.7891 100.192 40.8731 100.119 40.9608C99.7466 40.9754 99.3776 41.0047 99.005 41.0047C75.3695 41.0047 51.7341 41.0047 28.1023 41.0047C27.7297 41.0047 27.3606 40.9718 26.988 40.9535C26.9222 40.8695 26.8601 40.7891 26.7943 40.7051L26.798 40.7087Z" fill="white"/>
<path d="M26.7979 135.365C45.6543 135.365 64.5108 135.365 83.3709 135.369C83.3709 136.469 83.3709 137.568 83.3709 138.668C82.863 138.687 82.3515 138.719 81.8437 138.719C64.0614 138.719 46.2791 138.719 28.5005 138.719C27.9926 138.719 27.4811 138.679 26.9732 138.657C26.9075 138.592 26.8417 138.526 26.776 138.46C26.681 137.43 26.6481 136.399 26.7979 135.369V135.365Z" fill="#EBF1F4"/>
<path d="M104.043 37.9619C104.051 36.2994 105.421 34.8196 106.908 34.8561C108.819 34.9036 110.233 36.1459 110.159 37.8925C110.094 39.4928 108.778 41.0165 107.12 41.0275C105.381 41.0421 103.828 39.723 104.043 37.9619Z" fill="white"/>
<path d="M113.791 37.9212C113.791 36.2185 115.07 34.8812 116.721 34.852C118.483 34.8228 119.944 36.2441 119.948 37.9833C119.948 39.5618 118.497 40.9831 116.875 40.9941C115.161 41.0051 113.795 39.6422 113.791 37.9176V37.9212Z" fill="white"/>
<path d="M129.451 37.9866C129.451 39.766 128.227 40.9645 126.382 40.9937C124.968 41.0156 123.324 39.3787 123.313 37.9391C123.302 36.4995 124.902 34.8589 126.371 34.8662C127.96 34.8735 129.798 36.1926 129.451 37.9866Z" fill="white"/>
<path d="M129.626 49.6719C129.56 49.5951 129.498 49.5221 129.433 49.4453C129.604 49.4271 129.681 49.4928 129.626 49.6719Z" fill="#D6D7DC"/>
<path d="M26.9952 49.4415C26.9294 49.5183 26.8637 49.595 26.8015 49.6717C26.7394 49.4854 26.8162 49.4233 26.9952 49.4415Z" fill="#D6D7DC"/>
<path d="M100.123 40.9648C100.192 40.8807 100.262 40.7967 100.335 40.709C100.382 40.8917 100.302 40.9684 100.123 40.9648Z" fill="#D6D7DC"/>
<path d="M26.7979 40.709C26.8637 40.793 26.9258 40.8734 26.9916 40.9574C26.8125 40.9611 26.7321 40.8917 26.7979 40.709Z" fill="#D6D7DC"/>
<path d="M100.331 35.1512C100.262 35.0599 100.192 34.9722 100.123 34.8809C100.306 34.8809 100.379 34.9722 100.331 35.1512Z" fill="#D6D7DC"/>
<path d="M26.7798 138.453C26.8456 138.519 26.9113 138.585 26.9771 138.65C26.82 138.676 26.7542 138.61 26.7798 138.453Z" fill="#E1E6EA"/>
<path d="M105.943 130.626C105.121 135.694 106.257 140.312 109.191 144.496C109.714 145.238 109.721 145.778 109.03 146.414C107.942 147.419 106.908 148.49 105.877 149.556C105.428 150.024 105.143 150.247 104.61 149.564C101.789 145.939 99.9658 141.946 99.2424 137.36C98.888 135.102 99.4068 132.833 98.793 130.626C101.175 130.626 103.561 130.626 105.943 130.626Z" fill="#FDD564"/>
<path d="M150.13 130.637C150.006 133.717 150.423 136.827 149.571 139.863C148.497 143.685 146.948 147.24 144.106 150.225C142.896 148.994 141.811 147.77 140.594 146.696C139.71 145.918 139.659 145.337 140.35 144.379C142.651 141.186 143.521 137.514 143.689 133.637C143.729 132.716 143.181 131.847 143.466 130.908C143.912 130.604 144.416 130.634 144.92 130.634C146.656 130.637 148.395 130.634 150.13 130.637Z" fill="#D25442"/>
<path d="M105.943 130.626C103.561 130.626 101.175 130.626 98.793 130.626C99.637 129.336 99.5858 127.787 100.021 126.38C101.095 122.902 102.863 119.829 105.223 117.067C106.119 116.018 106.966 114.948 108.168 114.231C109.695 115.795 111.226 117.355 112.757 118.916C110.192 121.243 108.102 123.918 106.911 127.206C106.509 128.317 106.261 129.486 105.943 130.626Z" fill="#F6C45B"/>
<path d="M150.13 130.637C148.395 130.637 146.656 130.637 144.92 130.633C144.416 130.633 143.912 130.604 143.466 130.907C142.962 127.907 141.807 125.196 140.087 122.672C139.093 121.217 137.686 120.176 136.656 118.784C138.172 117.26 139.685 115.737 141.201 114.213C145.856 118.038 148.676 122.967 149.783 128.85C149.893 129.435 150.931 129.899 150.134 130.641L150.13 130.637Z" fill="#E56454"/>
<path d="M112.757 118.915C111.226 117.355 109.699 115.791 108.168 114.231C112.87 109.996 118.457 108.159 124.708 108.122C124.708 110.303 124.708 112.485 124.708 114.67C123.331 115.273 121.826 114.944 120.393 115.291C117.576 115.978 115.11 117.308 112.754 118.919L112.757 118.915Z" fill="#54B99D"/>
<path d="M124.708 114.666C124.708 112.485 124.708 110.303 124.708 108.118C124.898 108.1 125.085 108.082 125.275 108.063C125.885 108.403 126.546 108.239 127.189 108.243C130.452 108.754 133.594 109.562 136.63 110.983C138.402 111.812 139.736 113.055 141.197 114.209C139.681 115.733 138.168 117.257 136.652 118.78C136.469 118.707 136.283 118.63 136.1 118.557C136.74 117.439 137.361 116.314 138.018 115.21C138.559 114.301 138.501 113.5 137.558 112.967C136.637 112.448 135.998 112.971 135.497 113.738C134.796 114.816 134.087 115.886 133.382 116.961C131.084 115.93 128.793 114.838 126.177 114.998C125.636 115.031 125.198 114.783 124.712 114.659L124.708 114.666Z" fill="#40A69C"/>
<path d="M128.588 130.623C131.559 134.919 128.084 139.322 123.605 138.73C122.764 138.186 121.826 137.791 121.106 137.064C117.975 132.767 121.731 128.328 126.067 128.949C126.751 129.742 127.872 129.873 128.585 130.619L128.588 130.623ZM126.714 134.13C126.615 132.486 126.104 131.963 124.657 132.026C123.433 132.077 122.706 132.851 122.75 134.068C122.783 135.055 123.875 135.99 124.924 135.935C125.731 135.891 126.758 134.857 126.714 134.13Z" fill="#EBF1F4"/>
<path d="M128.588 130.623C127.876 129.874 126.754 129.742 126.071 128.953C128.508 124.959 130.945 120.966 133.382 116.972C134.087 115.898 134.796 114.824 135.497 113.749C135.998 112.982 136.637 112.456 137.558 112.979C138.501 113.512 138.559 114.312 138.018 115.222C137.361 116.325 136.736 117.451 136.1 118.569C134.032 121.393 132.385 124.484 130.51 127.429C129.842 128.478 129.228 129.563 128.588 130.63V130.623Z" fill="#0FE3A9"/>
<path d="M121.106 137.068C121.826 137.795 122.765 138.186 123.605 138.735C123.137 139.469 122.688 140.214 122.195 140.93C121.639 141.731 120.85 142.169 119.97 141.603C119.155 141.077 119.188 140.225 119.67 139.418C120.141 138.632 120.624 137.854 121.102 137.072L121.106 137.068Z" fill="#0FE3A9"/>
<path d="M127.189 108.243C126.546 108.243 125.885 108.407 125.275 108.064C125.921 108.031 126.583 107.833 127.189 108.243Z" fill="#7858DD"/>
<path d="M89.2424 112.2C89.2424 112.112 89.2424 112.024 89.2424 111.937C89.279 111.999 89.3228 112.061 89.3484 112.127C89.3484 112.134 89.279 112.174 89.2424 112.2Z" fill="#FCFDFD"/>
<path d="M62.6913 57.2175C62.6913 67.1632 62.6949 77.109 62.6986 87.0547C52.6693 87.0474 42.6401 87.0401 32.6108 87.0291C32.6108 77.098 32.6108 67.1669 32.6108 57.2321C42.6364 57.2248 52.662 57.2175 62.6876 57.2139L62.6913 57.2175Z" fill="#7858DD"/>
<path d="M97.4851 78.4206C105.717 78.4206 113.952 78.4389 122.184 78.4024C123.378 78.3987 123.872 78.6947 123.419 79.9224C123.324 80.1745 123.327 80.4704 123.316 80.7445C123.255 82.1719 122.53 82.8856 121.139 82.8856C105.044 82.8856 88.9538 82.871 72.8595 82.9149C71.504 82.9185 70.9816 82.6627 71.051 81.1756C71.1825 78.4243 71.0839 78.4206 73.9045 78.4206C81.7635 78.4206 89.6261 78.4206 97.4851 78.4206Z" fill="#E1E6EA"/>
<path d="M123.028 66.6803C106.243 66.6803 89.458 66.6657 72.6732 66.7132C71.3615 66.7132 71.0254 66.3259 71.0619 65.069C71.1423 62.2226 71.0802 62.2226 73.9483 62.2226C89.849 62.2226 105.75 62.2409 121.65 62.1934C123.006 62.1897 123.484 62.5661 123.327 63.9034C123.229 64.7291 123.309 65.5768 123.305 66.4136C123.21 66.5049 123.119 66.5963 123.024 66.6839L123.028 66.6803Z" fill="#E1E6EA"/>
<path d="M62.6913 57.2169C52.6657 57.2242 42.6401 57.2315 32.6145 57.2352C32.8739 56.7383 33.3452 56.9283 33.7289 56.9283C43.0055 56.9173 52.2821 56.9173 61.5587 56.9283C61.946 56.9283 62.41 56.7492 62.6913 57.2169Z" fill="#7858DD"/>
<path d="M32.6145 87.0322C42.6438 87.0395 52.673 87.0468 62.7023 87.0578C62.4209 87.5218 61.9569 87.3465 61.5696 87.3465C52.2894 87.3574 43.0091 87.3574 33.7289 87.3465C33.3452 87.3465 32.8739 87.5401 32.6145 87.0359V87.0322Z" fill="#7858DD"/>
<path d="M123.028 66.6805C123.123 66.5892 123.214 66.4978 123.309 66.4102C123.466 66.5125 123.594 66.6586 123.429 66.8194C123.265 66.9765 123.123 66.8486 123.028 66.6842V66.6805Z" fill="#EBF1F4"/>
<path d="M126.71 134.13C126.754 134.857 125.728 135.891 124.92 135.935C123.872 135.993 122.783 135.054 122.746 134.068C122.702 132.851 123.429 132.077 124.653 132.025C126.1 131.963 126.612 132.489 126.71 134.13Z" fill="#0FE3A9"/>
</g>
<defs>
<clipPath id="clip0_1964_5967">
<rect width="165" height="170" fill="white" transform="translate(0.146729)"/>
</clipPath>
</defs>
</svg>
