<svg width="174" height="166" viewBox="0 0 174 166" fill="none" xmlns="http://www.w3.org/2000/svg">
<g clip-path="url(#clip0_1963_5789)">
<ellipse cx="91.5" cy="82.7305" rx="82" ry="82.5" fill="#F6EDFF"/>
<mask id="mask0_1963_5789" style="mask-type:alpha" maskUnits="userSpaceOnUse" x="0" y="0" width="174" height="166">
<path d="M173.5 82.7305C173.5 128.294 136.787 165.23 91.5 165.23C74.0155 165.23 57.809 159.725 44.5 150.343C36.4751 144.685 8.5631 148.119 3 140C-6.10774 126.708 9.50003 100.096 9.50003 82.7305C9.50003 37.167 46.2127 0.230469 91.5 0.230469C136.787 0.230469 173.5 37.167 173.5 82.7305Z" fill="#F6EDFF"/>
</mask>
<g mask="url(#mask0_1963_5789)">
<path d="M40.8155 32H146.342C149.706 32 152.435 34.7052 152.435 38.0396V101.672C152.435 105.006 149.706 107.712 146.342 107.712H40.8155C37.4519 107.712 34.7229 105.006 34.7229 101.672V38.0396C34.7229 34.7052 37.4519 32 40.8155 32Z" fill="#096E52"/>
<path d="M149.198 36.7256H37.9595V94.4931H149.198V36.7256Z" fill="#DEDED7"/>
<path d="M149.198 36.7256H37.9595V43.7997H149.198V36.7256Z" fill="#7858DD"/>
<g style="mix-blend-mode:soft-light" opacity="0.5">
<path d="M37.9595 94.4931V36.7256H149.191L37.9595 94.4931Z" fill="#0FE3A9"/>
</g>
<path d="M34.7229 94.4932C34.7229 94.4932 36.5634 94.4373 39.7789 94.3464C42.9944 94.2835 47.5991 94.1367 53.1134 94.0668C55.8705 94.0249 58.8604 93.9829 62.0195 93.941C65.1786 93.8991 68.514 93.8361 71.9622 93.8361C78.8586 93.8012 86.2134 93.7732 93.5753 93.7383C100.93 93.7732 108.292 93.8082 115.188 93.8361C122.085 93.8641 128.523 94.0039 134.037 94.0668C139.551 94.1367 144.156 94.2835 147.372 94.3464C150.587 94.4373 152.428 94.4932 152.428 94.4932C152.428 94.4932 150.587 94.5492 147.372 94.64C144.156 94.7029 139.551 94.8497 134.037 94.9196C128.523 94.9826 122.085 95.1224 115.188 95.1503C108.292 95.1853 100.937 95.2132 93.5753 95.2482C86.2205 95.2132 78.8586 95.1783 71.9622 95.1503C68.514 95.1503 65.1786 95.0874 62.0195 95.0455C58.8604 95.0035 55.8705 94.9616 53.1134 94.9196C47.5991 94.8497 42.9944 94.7029 39.7789 94.64C36.5634 94.5492 34.7229 94.4932 34.7229 94.4932Z" fill="#7858DD"/>
<path d="M168.886 132.283H10L36.0696 107.712H149.755L168.886 132.283Z" fill="#096E52"/>
<path d="M149.586 122.489L139.678 109.767H44.9898L31.4861 122.489H149.586Z" fill="#054B38"/>
<path d="M70.8833 124.732L64.7908 130.478H116.281L111.811 124.732H70.8833Z" fill="#054B38"/>
<path d="M168.886 132.282H10V139H168.886V132.282Z" fill="#054B38"/>
<path d="M133.529 40.2415C133.529 41.0034 132.902 41.6256 132.133 41.6256C131.364 41.6256 130.737 41.0034 130.737 40.2415C130.737 39.4796 131.364 38.8574 132.133 38.8574C132.902 38.8574 133.529 39.4796 133.529 40.2415Z" fill="white"/>
<path d="M139.946 40.2415C139.946 41.0034 139.319 41.6256 138.55 41.6256C137.781 41.6256 137.154 41.0034 137.154 40.2415C137.154 39.4796 137.781 38.8574 138.55 38.8574C139.319 38.8574 139.946 39.4796 139.946 40.2415Z" fill="white"/>
<path d="M146.363 40.2415C146.363 41.0034 145.736 41.6256 144.967 41.6256C144.198 41.6256 143.571 41.0034 143.571 40.2415C143.571 39.4796 144.198 38.8574 144.967 38.8574C145.736 38.8574 146.363 39.4796 146.363 40.2415Z" fill="white"/>
<path d="M107.749 40.2415C107.749 41.0034 107.121 41.6256 106.353 41.6256H41.718C40.9494 41.6256 40.3218 41.0034 40.3218 40.2415C40.3218 39.4796 40.9494 38.8574 41.718 38.8574H106.353C107.121 38.8574 107.749 39.4796 107.749 40.2415Z" fill="white"/>
<path d="M88.0981 54H114.577L131.424 65.3253H104.945L88.0981 54Z" fill="#0DAA7F"/>
<path d="M131.424 65.3252H78.4724V117.816H131.424V65.3252Z" fill="#0FE3A9"/>
<path d="M110.616 106.516H99.2869V117.816H110.616V106.516Z" fill="#88F7D8"/>
<path d="M78.4725 65.3252H52V117.816H78.4725V65.3252Z" fill="#0DAA7F"/>
<path d="M95.3191 57.6045H68.8467L52 65.3254H78.4725L95.3191 57.6045Z" fill="#0FE3A9"/>
<path d="M120.362 105.46V109.728C120.362 109.728 108.338 109.147 104.402 109.147C101.245 109.147 101.691 105.947 104.893 106.086C108.823 106.257 120.356 105.46 120.356 105.46H120.362Z" fill="#F8B894"/>
<path d="M120.362 101.191V105.46C120.362 105.46 106.361 104.878 101.781 104.878C98.1001 104.878 98.6231 101.678 102.355 101.817C106.928 101.988 120.369 101.191 120.369 101.191H120.362Z" fill="#F8B894"/>
<path d="M120.362 92.6543V96.9226C120.362 96.9226 106.36 96.3409 101.78 96.3409C98.0998 96.3409 98.6229 93.1412 102.355 93.2803C106.928 93.4511 120.369 92.6543 120.369 92.6543H120.362Z" fill="#F8B894"/>
<path d="M136.099 90.9915C138.976 92.8696 141.043 95.2599 141.043 95.2599L118.378 92.9581L124.037 90.707C124.037 90.707 121.638 89.006 119.839 87.1469C117.288 84.5163 118.391 80.6274 120.356 81.6708C124.387 83.8144 133.216 89.1198 136.093 90.9979L136.099 90.9915Z" fill="#F8B894"/>
<path d="M120.362 96.9229V101.191C120.362 101.191 105.187 100.609 100.23 100.609C96.2436 100.609 96.805 97.4098 100.849 97.5489C105.806 97.7196 120.362 96.9229 120.362 96.9229Z" fill="#F8B894"/>
<path d="M141.043 95.2532L141.464 107.59C141.464 107.59 137.764 109.614 133.834 109.728C129.911 109.835 119.839 109.702 119.839 109.702L120.356 92.6543L141.036 95.2532H141.043Z" fill="#F8B894"/>
<path d="M147.945 94.2676H138.396V108.185H147.945V94.2676Z" fill="#F8B894"/>
<path d="M175.821 90.6133H141.043V110.203H175.821V90.6133Z" fill="#0FE3A9"/>
<path d="M157.992 94.6279H141.043V96.2594H157.992V94.6279Z" fill="white"/>
<path d="M146.67 99.6301C146.67 100.585 145.885 101.363 144.915 101.363C143.946 101.363 143.167 100.585 143.167 99.6301C143.167 98.6752 143.952 97.8975 144.915 97.8975C145.879 97.8975 146.67 98.6752 146.67 99.6301Z" fill="white"/>
<path d="M154.49 99.6301C154.49 100.585 153.705 101.363 152.742 101.363C151.779 101.363 150.994 100.585 150.994 99.6301C150.994 98.6752 151.779 97.8975 152.742 97.8975C153.705 97.8975 154.49 98.6752 154.49 99.6301Z" fill="white"/>
</g>
</g>
<defs>
<clipPath id="clip0_1963_5789">
<rect width="173.353" height="165" fill="white" transform="translate(0.146729 0.230469)"/>
</clipPath>
</defs>
</svg>
