<svg width="38" height="38" viewBox="0 0 38 38" fill="none" xmlns="http://www.w3.org/2000/svg">
<path d="M19.0001 21.5667L24.3167 26.8834C24.6529 27.2195 25.0806 27.3876 25.6001 27.3876C26.1195 27.3876 26.5473 27.2195 26.8834 26.8834C27.2195 26.5473 27.3876 26.1195 27.3876 25.6001C27.3876 25.0806 27.2195 24.6529 26.8834 24.3167L21.5667 19.0001L26.8834 13.6834C27.2195 13.3473 27.3876 12.9195 27.3876 12.4001C27.3876 11.8806 27.2195 11.4529 26.8834 11.1167C26.5473 10.7806 26.1195 10.6126 25.6001 10.6126C25.0806 10.6126 24.6529 10.7806 24.3167 11.1167L19.0001 16.4334L13.6834 11.1167C13.3473 10.7806 12.9195 10.6126 12.4001 10.6126C11.8806 10.6126 11.4529 10.7806 11.1167 11.1167C10.7806 11.4529 10.6126 11.8806 10.6126 12.4001C10.6126 12.9195 10.7806 13.3473 11.1167 13.6834L16.4334 19.0001L11.1167 24.3167C10.7806 24.6529 10.6126 25.0806 10.6126 25.6001C10.6126 26.1195 10.7806 26.5473 11.1167 26.8834C11.4529 27.2195 11.8806 27.3876 12.4001 27.3876C12.9195 27.3876 13.3473 27.2195 13.6834 26.8834L19.0001 21.5667ZM19.0001 37.3334C16.464 37.3334 14.0806 36.8519 11.8501 35.8887C9.61953 34.9256 7.67925 33.6197 6.02925 31.9709C4.37925 30.3209 3.0733 28.3806 2.11141 26.1501C1.14953 23.9195 0.66797 21.5362 0.666748 19.0001C0.666748 16.464 1.1483 14.0806 2.11141 11.8501C3.07453 9.61953 4.38047 7.67925 6.02925 6.02925C7.67925 4.37925 9.61953 3.0733 11.8501 2.11141C14.0806 1.14953 16.464 0.66797 19.0001 0.666748C21.5362 0.666748 23.9195 1.1483 26.1501 2.11141C28.3806 3.07453 30.3209 4.38047 31.9709 6.02925C33.6209 7.67925 34.9275 9.61953 35.8906 11.8501C36.8537 14.0806 37.3346 16.464 37.3334 19.0001C37.3334 21.5362 36.8519 23.9195 35.8887 26.1501C34.9256 28.3806 33.6197 30.3209 31.9709 31.9709C30.3209 33.6209 28.3806 34.9275 26.1501 35.8906C23.9195 36.8537 21.5362 37.3346 19.0001 37.3334ZM19.0001 33.6667C23.0945 33.6667 26.5626 32.2459 29.4042 29.4042C32.2459 26.5626 33.6667 23.0945 33.6667 19.0001C33.6667 14.9056 32.2459 11.4376 29.4042 8.59591C26.5626 5.75425 23.0945 4.33341 19.0001 4.33341C14.9056 4.33341 11.4376 5.75425 8.59591 8.59591C5.75425 11.4376 4.33341 14.9056 4.33341 19.0001C4.33341 23.0945 5.75425 26.5626 8.59591 29.4042C11.4376 32.2459 14.9056 33.6667 19.0001 33.6667Z" fill="#7858DD"/>
</svg>
