<svg width="18" height="18" viewBox="0 0 18 18" fill="none" xmlns="http://www.w3.org/2000/svg">
<path d="M17.1315 3.19162L11.3231 9L17.1315 14.8084C17.4396 15.1165 17.6127 15.5343 17.6127 15.9701C17.6127 16.4058 17.4396 16.8236 17.1315 17.1317C16.8234 17.4398 16.4056 17.6129 15.9698 17.6129C15.5341 17.6129 15.1163 17.4398 14.8082 17.1317L8.99979 11.3234L3.19141 17.1317C2.88331 17.4398 2.46545 17.6129 2.02973 17.6129C1.59402 17.6129 1.17615 17.4398 0.868057 17.1317C0.559961 16.8236 0.386875 16.4058 0.386875 15.9701C0.386875 15.5343 0.559961 15.1165 0.868056 14.8084L6.67643 9L0.868056 3.19162C0.559961 2.88353 0.386874 2.46566 0.386875 2.02995C0.386875 1.59423 0.55996 1.17637 0.868056 0.868272C1.17615 0.560177 1.59402 0.38709 2.02973 0.38709C2.46544 0.38709 2.88331 0.560177 3.19141 0.868272L8.99978 6.67665L14.8082 0.868272C15.1163 0.560177 15.5341 0.38709 15.9698 0.38709C16.4056 0.38709 16.8234 0.560177 17.1315 0.868273C17.4396 1.17637 17.6127 1.59423 17.6127 2.02995C17.6127 2.46566 17.4396 2.88353 17.1315 3.19162Z" fill="#7858DD"/>
</svg>
