<svg width="208" height="171" viewBox="0 0 208 171" fill="none" xmlns="http://www.w3.org/2000/svg">
<ellipse cx="110.5" cy="88.5" rx="82" ry="82.5" fill="#F6EDFF"/>
<mask id="mask0_1961_6061" style="mask-type:alpha" maskUnits="userSpaceOnUse" x="0" y="0" width="208" height="171">
<path d="M208 88C208 111.5 190.791 107.758 187.657 116.5C183.129 129.127 175.626 140.323 166 149.232C151.397 162.748 131.906 171 110.5 171C96.3827 171 83.0986 167.411 71.5001 161.09C55.1579 152.184 42.162 137.854 34.8968 120.5C30.7772 110.66 0 108.5 0 83.5001C0 65.3849 11.5 60 22.1589 37.5001C27.3879 28.8979 40.5 10.2617 46.5 5.99964C53 1.38243 67.1049 -0.241091 76 1.38229C89.9074 3.92041 100.852 9.5 120.5 9.5C140.978 9.5 148.5 20 166 32C197 50 208 82 208 88Z" fill="#F6EDFF"/>
</mask>
<g mask="url(#mask0_1961_6061)">
<path d="M64.6496 67.999C64.1286 67.999 63.6077 67.9939 63.0918 67.9681L63.128 67.1945C63.6334 67.2151 64.1389 67.2254 64.6444 67.2254V67.999H64.6496ZM66.9862 67.901L66.9243 67.1275C67.4298 67.0862 67.9353 67.0346 68.4356 66.9676L68.5336 67.736C68.023 67.8031 67.5072 67.8546 66.9862 67.901ZM60.7707 67.7824C60.2549 67.7205 59.7391 67.6483 59.2285 67.5607L59.3574 66.7974C59.8526 66.8799 60.3529 66.9573 60.8584 67.014L60.7656 67.7824H60.7707ZM70.8393 67.3492L70.6794 66.5911C71.1745 66.488 71.6697 66.3745 72.1597 66.2456L72.3557 66.9934C71.8554 67.1223 71.3499 67.2409 70.8393 67.3492ZM56.9434 67.0759C56.4379 66.947 55.9376 66.8129 55.4424 66.6582L55.6694 65.9155C56.1542 66.0651 56.6391 66.1992 57.1343 66.3229L56.9486 67.0759H56.9434ZM74.5943 66.3178L74.3416 65.5855C74.8213 65.4204 75.2958 65.2399 75.7652 65.0543L76.0541 65.7763C75.5744 65.9671 75.0844 66.1527 74.5892 66.3229L74.5943 66.3178ZM53.2399 65.8949C52.7551 65.7092 52.2805 65.5081 51.806 65.2966L52.1258 64.5901C52.5849 64.7964 53.0491 64.9924 53.5236 65.178L53.2451 65.9L53.2399 65.8949ZM78.1947 64.817L77.8491 64.1208C78.303 63.899 78.7517 63.6618 79.1953 63.4143L79.5719 64.0899C79.118 64.3426 78.6589 64.585 78.1895 64.817H78.1947ZM49.717 64.2549C49.2631 64.0073 48.8092 63.7495 48.3707 63.4762L48.773 62.816C49.2063 63.079 49.6448 63.3317 50.0884 63.5741L49.717 64.2549ZM81.5732 62.8779L81.1451 62.2333C81.5681 61.9548 81.9859 61.666 82.3933 61.3617L82.8524 61.9857C82.4346 62.2951 82.0065 62.5891 81.5732 62.8779ZM46.421 62.192C45.998 61.8877 45.5854 61.5783 45.1779 61.2534L45.6627 60.6448C46.0599 60.9594 46.4622 61.2637 46.8749 61.5628L46.421 62.192ZM84.6784 60.5314L84.1729 59.9435C84.5597 59.6134 84.9311 59.273 85.3025 58.9275L85.8338 59.4896C85.4572 59.8455 85.0704 60.1962 84.6784 60.5314ZM43.4087 59.7269C43.027 59.3762 42.6556 59.01 42.2945 58.6387L42.8516 58.0972C43.2075 58.4582 43.5686 58.814 43.9399 59.1596L43.4138 59.7269H43.4087ZM87.4689 57.8187L86.8963 57.2978C87.2368 56.9213 87.5669 56.5397 87.8867 56.1478L88.485 56.6377C88.1549 57.04 87.8196 57.4319 87.4689 57.8187ZM40.7265 56.911C40.3912 56.5139 40.0714 56.1065 39.7567 55.6939L40.3757 55.2246C40.68 55.6269 40.9998 56.024 41.3248 56.4108L40.7316 56.911H40.7265ZM89.8983 54.7811L89.2639 54.3376C89.5527 53.925 89.8364 53.5021 90.1047 53.0741L90.7597 53.4866C90.4812 53.925 90.1975 54.3582 89.8983 54.7811ZM38.4156 53.7806C38.1319 53.3422 37.8637 52.8987 37.6058 52.45L38.2764 52.0632C38.5291 52.5016 38.7922 52.9348 39.0656 53.3629L38.4156 53.7858V53.7806ZM91.9255 51.465L91.2394 51.104C91.4767 50.6553 91.6985 50.2066 91.9151 49.7477L92.6166 50.0777C92.3948 50.547 92.1679 51.0112 91.9255 51.4702V51.465ZM36.5175 50.3768C36.2957 49.9075 36.079 49.4331 35.8779 48.9534L36.5948 48.6543C36.7908 49.1236 36.9972 49.5878 37.219 50.0416L36.5175 50.3768ZM93.5245 47.9168L92.7972 47.6435C92.9777 47.169 93.1428 46.6946 93.2975 46.2098L94.0351 46.447C93.8752 46.9421 93.705 47.4321 93.5245 47.9168ZM35.0629 46.7616C34.8978 46.2717 34.7483 45.7714 34.609 45.2712L35.3569 45.0649C35.491 45.5548 35.6406 46.0396 35.7953 46.5192L35.0577 46.7616H35.0629ZM94.6644 44.1985L93.9113 44.018C94.0299 43.5281 94.1331 43.033 94.226 42.5327L94.9894 42.672C94.8965 43.1825 94.7882 43.6931 94.6695 44.1933L94.6644 44.1985ZM34.0777 43.002C33.9797 42.4966 33.892 41.9809 33.8146 41.4652L34.5832 41.3569C34.6554 41.8623 34.7431 42.3574 34.8359 42.8525L34.0725 43.002H34.0777ZM95.3246 40.3667L94.5509 40.2842C94.6025 39.7839 94.6489 39.2785 94.6747 38.7731L95.4484 38.8195C95.4175 39.3404 95.3762 39.8561 95.3195 40.3718L95.3246 40.3667ZM33.5671 39.1444C33.5309 38.6493 33.5103 38.1542 33.5 37.6488L34.2737 37.5715V37.6334C34.284 38.1233 34.3047 38.6081 34.3408 39.0929L33.5671 39.1444ZM95.5 36.4781L94.7263 36.4936V36.375C94.7108 35.8644 94.6902 35.359 94.6541 34.8588L95.4278 34.8072C95.4639 35.3229 95.4897 35.8387 95.5 36.3595V36.4781ZM34.3201 35.2971L33.5464 35.2559C33.5774 34.735 33.6186 34.2193 33.6702 33.7036L34.4439 33.7861C34.3923 34.2863 34.3511 34.7917 34.3201 35.2971ZM94.4116 32.5948C94.3394 32.0894 94.2517 31.5943 94.1537 31.0992L94.912 30.9496C95.01 31.455 95.1028 31.9707 95.175 32.4865L94.4065 32.5999L94.4116 32.5948ZM34.7689 31.5324L34.0055 31.3931C34.0983 30.8826 34.2067 30.372 34.3253 29.8666L35.0784 30.0471C34.9649 30.537 34.8566 31.0321 34.7689 31.5324ZM93.6276 28.8816C93.4935 28.3916 93.3439 27.9069 93.184 27.4324L93.9216 27.1849C94.0867 27.6748 94.2363 28.1699 94.3755 28.6753L93.6276 28.8816ZM35.687 27.8501L34.9494 27.6181C35.1042 27.123 35.2744 26.633 35.4601 26.1483L36.1874 26.4216C36.012 26.896 35.8469 27.3705 35.6922 27.8553L35.687 27.8501ZM92.3845 25.2973C92.1885 24.828 91.977 24.369 91.7604 23.91L92.4619 23.5748C92.6889 24.0441 92.9003 24.5186 93.1015 24.9982L92.3845 25.2973ZM37.0642 24.3174L36.3627 23.9925C36.5794 23.5232 36.8115 23.0591 37.0539 22.6001L37.7399 22.9611C37.5027 23.4046 37.2809 23.8584 37.0694 24.3174H37.0642ZM90.6978 21.8987C90.4451 21.4603 90.1769 21.0271 89.9035 20.6042L90.5534 20.1814C90.8371 20.6146 91.1053 21.0581 91.3684 21.5119L90.6978 21.8987ZM38.8747 20.9859L38.2196 20.5733C38.493 20.1349 38.7819 19.7017 39.0759 19.2737L39.7103 19.7172C39.4215 20.1298 39.1429 20.5527 38.8747 20.9807V20.9859ZM88.5985 18.7373C88.2942 18.3351 87.9744 17.938 87.6494 17.5512L88.2426 17.0509C88.5779 17.448 88.9028 17.8555 89.2175 18.268L88.5985 18.7373ZM41.0875 17.907L40.484 17.4171C40.8141 17.0148 41.1494 16.6229 41.5002 16.2361L42.0779 16.757C41.7374 17.1334 41.4073 17.5151 41.0875 17.907ZM86.1175 15.8648C85.7616 15.5038 85.4005 15.1479 85.0291 14.8075L85.5552 14.2351C85.9369 14.5858 86.3083 14.9468 86.6745 15.3181L86.1226 15.8596L86.1175 15.8648ZM43.6614 15.1221L43.125 14.56C43.5015 14.2041 43.8832 13.8535 44.2804 13.5131L44.7859 14.101C44.4042 14.4311 44.0276 14.7714 43.6614 15.1221ZM83.296 13.3274C82.8988 13.0128 82.4965 12.7086 82.0839 12.4146L82.5326 11.7854C82.9556 12.0897 83.3682 12.3991 83.7757 12.724L83.2908 13.3326L83.296 13.3274ZM46.5654 12.6828L46.1063 12.0587C46.5241 11.7493 46.9471 11.4502 47.3804 11.1666L47.8085 11.8112C47.3855 12.0897 46.9729 12.3837 46.5654 12.6828ZM80.1805 11.1614C79.7473 10.8984 79.3088 10.6457 78.8652 10.4084L79.2366 9.72769C79.6905 9.97523 80.1444 10.2331 80.5829 10.5013L80.1805 11.1666V11.1614ZM49.7531 10.625L49.3765 9.94945C49.8304 9.69674 50.2895 9.45436 50.7537 9.22228L51.0993 9.9185C50.6454 10.1454 50.1967 10.3827 49.7531 10.6302V10.625ZM76.8226 9.40278C76.3636 9.19649 75.8942 9.00052 75.4248 8.82002L75.7033 8.09801C76.1882 8.28367 76.6679 8.4848 77.1373 8.69625L76.8226 9.40278ZM53.178 8.98505L52.8892 8.2682C53.3689 8.07222 53.8589 7.89172 54.3489 7.72153L54.6017 8.45386C54.122 8.61889 53.6474 8.79939 53.178 8.99021V8.98505ZM73.2739 8.08254C72.789 7.93814 72.3042 7.80405 71.809 7.68027L71.9947 6.92732C72.5002 7.05109 73.0005 7.19034 73.4957 7.3399L73.2687 8.08254H73.2739ZM56.7835 7.78858L56.5875 7.04078C57.0879 6.90669 57.5933 6.78808 58.104 6.67978L58.2639 7.43789C57.7687 7.54103 57.2735 7.65965 56.7887 7.78858H56.7835ZM69.5807 7.21613C69.0855 7.13361 68.58 7.06141 68.0797 6.99952L68.1725 6.2311C68.6884 6.29298 69.2042 6.36519 69.7148 6.45286L69.5859 7.21613H69.5807ZM60.5025 7.05625L60.3993 6.28783C60.91 6.22078 61.4258 6.16405 61.9468 6.1228L62.0086 6.89638C61.5032 6.93764 60.9977 6.99437 60.4973 7.05625H60.5025ZM65.805 6.81902C65.3047 6.79839 64.794 6.78808 64.2885 6.79323V5.99902C64.8043 5.99902 65.3253 5.99902 65.8411 6.02481L65.8102 6.79839L65.805 6.81902Z" fill="#0FE3A9"/>
<path d="M173.226 122.431H43.4846V126.018H173.226V122.431Z" fill="url(#paint0_linear_1961_6061)"/>
<path d="M173.226 122.43H43.4846L52.2253 117.327C53.7748 116.422 55.5404 115.944 57.3318 115.944H159.374C161.17 115.944 162.931 116.422 164.48 117.327L173.221 122.43H173.226Z" fill="#096E52"/>
<path d="M159.415 50.0283H57.2958C55.8032 50.0283 54.5933 51.2362 54.5933 52.7263V113.248C54.5933 114.738 55.8032 115.945 57.2958 115.945H159.415C160.907 115.945 162.117 114.738 162.117 113.248V52.7263C162.117 51.2362 160.907 50.0283 159.415 50.0283Z" fill="#096E52"/>
<path d="M158.252 55.6768V110.314C158.252 111.296 157.454 112.087 156.476 112.087H61.6765C60.6109 112.087 59.6638 111.568 59.0769 110.766C58.6908 110.242 58.4644 109.589 58.4644 108.88V55.6665C58.4644 54.685 59.2622 53.8936 60.2403 53.8936H156.465C157.448 53.8936 158.252 54.6901 158.252 55.6768Z" fill="#DEDED7"/>
<path d="M86.0506 53.8936L59.0769 110.766C59.6637 111.568 60.6109 112.087 61.6765 112.087H75.7965L103.388 53.8936H86.0506ZM108.932 53.8936L81.3405 112.087H111.001L138.593 53.8936H108.932ZM142.206 53.8936L114.615 112.087H123.294L150.885 53.8936H142.206Z" fill="url(#paint1_linear_1961_6061)"/>
<path d="M78.9268 70.0664H6.57001C4.87449 70.0664 3.5 71.4386 3.5 73.1312V91.7584C3.5 93.451 4.87449 94.8232 6.57001 94.8232H78.9268C80.6223 94.8232 81.9968 93.451 81.9968 91.7584V73.1312C81.9968 71.4386 80.6223 70.0664 78.9268 70.0664Z" fill="#0FE3A9"/>
<path d="M55.2018 78.0154H12.9051C12.6773 78.0154 12.4983 77.8312 12.4983 77.6092C12.4983 77.3872 12.6827 77.2031 12.9051 77.2031H55.2018C55.4296 77.2031 55.6086 77.3872 55.6086 77.6092C55.6086 77.8312 55.4242 78.0154 55.2018 78.0154Z" fill="#7858DD"/>
<path d="M63.506 82.8503H12.9051C12.6773 82.8503 12.4983 82.6662 12.4983 82.4442C12.4983 82.2222 12.6827 82.0381 12.9051 82.0381H63.506C63.7338 82.0381 63.9128 82.2222 63.9128 82.4442C63.9128 82.6662 63.7284 82.8503 63.506 82.8503Z" fill="#7858DD"/>
<path d="M60.9242 87.6921H12.9051C12.6773 87.6921 12.4983 87.508 12.4983 87.286C12.4983 87.064 12.6827 86.8799 12.9051 86.8799H60.9242C61.152 86.8799 61.331 87.064 61.331 87.286C61.331 87.508 61.1465 87.6921 60.9242 87.6921Z" fill="#7858DD"/>
<path d="M199.274 79H123.23C121.448 79 120.003 80.4421 120.003 82.221V101.797C120.003 103.576 121.448 105.018 123.23 105.018H199.274C201.055 105.018 202.5 103.576 202.5 101.797V82.221C202.5 80.4421 201.055 79 199.274 79Z" fill="#0FE3A9"/>
<path d="M192.073 87.3536H130.435C130.195 87.3536 130.007 87.1601 130.007 86.9268C130.007 86.6935 130.201 86.5 130.435 86.5H192.073C192.313 86.5 192.501 86.6935 192.501 86.9268C192.501 87.1601 192.307 87.3536 192.073 87.3536Z" fill="#7858DD"/>
<path d="M175.571 92.4356H130.429C130.19 92.4356 130.002 92.2422 130.002 92.0088C130.002 91.7755 130.196 91.582 130.429 91.582H175.571C175.811 91.582 175.999 91.7755 175.999 92.0088C175.999 92.2422 175.805 92.4356 175.571 92.4356Z" fill="#7858DD"/>
<path d="M183.5 97.5235H130.435C130.196 97.5235 130.008 97.3301 130.008 97.0967C130.008 96.8634 130.201 96.6699 130.435 96.6699H183.5C183.74 96.6699 183.928 96.8634 183.928 97.0967C183.928 97.3301 183.734 97.5235 183.5 97.5235Z" fill="#7858DD"/>
<path d="M93.314 39.1065V57.7402C93.314 59.4155 94.6729 60.7722 96.3511 60.7722H141.239C142.731 60.7722 143.828 62.1803 143.452 63.6243L140.611 74.596L155.178 61.5944C155.776 61.06 156.548 60.7671 157.346 60.7671H168.325C170.004 60.7671 171.363 59.4104 171.363 57.7351V39.1013C171.363 37.426 170.004 36.0693 168.325 36.0693H96.3511C94.6729 36.0693 93.314 37.426 93.314 39.1013V39.1065Z" fill="#7858DD"/>
<path d="M104.294 41.9473L105.725 46.3359H110.347L106.605 49.0441L108.036 53.4328L104.294 50.7194L100.557 53.4328L101.988 49.0441L98.2454 46.3359H102.868L104.294 41.9473Z" fill="#FDFDFD"/>
<path d="M132.338 41.9473L133.769 46.3359H138.387L134.649 49.0441L136.075 53.4328L132.338 50.7194L128.601 53.4328L130.027 49.0441L126.29 46.3359H130.912L132.338 41.9473Z" fill="#FDFDFD"/>
<path d="M117.745 41.9473L119.171 46.3359H123.793L120.056 49.0441L121.482 53.4328L117.745 50.7194L114.008 53.4328L115.433 49.0441L111.696 46.3359H116.319L117.745 41.9473Z" fill="#FDFDFD"/>
<path d="M146.843 42.0244L148.274 46.4131H152.891L149.154 49.1213L150.58 53.5099L146.843 50.7966L143.105 53.5099L144.531 49.1213L140.794 46.4131H145.417L146.843 42.0244Z" fill="#FDFDFD"/>
<path d="M161.215 41.9473L162.646 46.3308H167.269L163.526 49.0441L164.957 53.4328L161.215 50.7194L157.478 53.4328L158.909 49.0441L155.167 46.3308H159.789L161.215 41.9473Z" fill="#FDFDFD"/>
<path d="M113.165 109.31L113.171 109.309C129.844 112.172 130.078 133.914 129.563 142.109C129.432 144.161 129.903 146.205 130.937 147.986L142.891 168.503C129.338 181.163 115.783 180.77 115.783 180.77L104.51 161.262C103.841 160.101 102.811 159.181 101.573 158.646L95.7998 156.162C94.705 155.686 93.6925 155.042 92.8005 154.249L81.8972 144.519C80.7383 143.489 79.7341 142.29 78.9142 140.985L72.0156 130.014C70.883 128.211 70.2243 126.158 70.0962 124.032L69.2599 110.306C69.2278 109.773 69.5585 109.252 70.0708 109.101C76.9834 107.071 81.8461 120.402 82.2249 121.479L71.4471 85.3234C71.1297 84.2599 71.2676 83.1586 71.7344 82.2408C72.2071 81.3225 73.0132 80.5693 74.0622 80.1993C76.1781 79.4579 78.4916 80.5186 79.322 82.6053L87.8938 104.3C87.7416 101.446 89.2816 99.5785 90.3724 98.621C90.8388 98.209 91.3637 97.8464 91.9408 97.6058C95.2506 96.2055 98.2615 98.9123 100.674 102.626C104.443 99.261 109.535 104.372 113.158 109.298L113.165 109.31Z" fill="#F3B199"/>
<path d="M74.0638 80.2173C75.7344 79.6332 77.534 80.1705 78.6175 81.4535C80.0547 85.5492 76.9588 86.5465 76.9588 86.5465C72.1938 88.218 71.5323 83.2933 71.4861 82.8816C71.4846 82.8637 71.4836 82.8517 71.4836 82.8517C71.5571 82.6469 71.6366 82.4416 71.736 82.2588C72.2088 81.3405 73.0148 80.5872 74.0638 80.2173Z" fill="url(#paint2_linear_1961_6061)"/>
<path d="M69.7956 119.095L69.2605 110.312C69.2284 109.779 69.5591 109.258 70.0713 109.107C70.4013 109.013 70.7338 108.95 71.0573 108.923C71.4131 110.013 71.6636 110.998 71.8318 111.863C73.1722 118.574 69.7891 119.09 69.7891 119.09L69.7956 119.095Z" fill="#FFEDE9"/>
<path d="M82.2259 121.49C82.2414 121.531 82.2498 121.561 82.2498 121.561L84.2073 128.148C81.8379 122.63 77.6244 123.606 77.6244 123.606C78.8369 117.424 71.8378 111.862 71.8378 111.862C71.6695 110.997 71.419 110.013 71.0633 108.922C77.4439 108.333 81.8626 120.455 82.2254 121.484L82.2259 121.49Z" fill="#D17E74"/>
<path d="M87.9013 104.318C87.7492 101.464 89.2892 99.5966 90.3799 98.6391C90.7735 98.2934 91.2174 97.9735 91.6933 97.7474C91.0521 98.1619 89.6379 99.947 92.1965 107.237C92.1965 107.237 95.025 114.728 92.9077 116.981L87.9018 104.324L87.9013 104.318Z" fill="#D17E74"/>
<path d="M104.246 105.401C104.246 105.401 108.636 111.714 105.867 113.895L105.861 113.895C104.965 111.236 103.13 106.42 100.682 102.643C101.788 101.654 103.015 101.396 104.273 101.653C104.273 101.653 102.834 102.706 104.246 105.401Z" fill="#D17E74"/>
<path d="M116.925 110.365C117.997 112.895 116.576 114.452 116.576 114.452L116.57 114.452C115.771 113.098 114.572 111.222 113.165 109.31L113.171 109.309C114.529 109.54 115.77 109.894 116.925 110.365Z" fill="#D17E74"/>
<path d="M130.943 147.986L135.274 155.418C134.379 153.927 132.567 152.59 131.037 151.669C129.697 150.859 128.115 150.472 126.558 150.673C124.743 150.896 123.475 150.67 122.601 150.309C121.489 149.841 121.248 148.392 122.147 147.601C127.087 143.229 129.522 137.103 129.678 136.723C129.725 138.82 129.655 140.668 129.563 142.109C129.432 144.161 129.903 146.205 130.937 147.986L130.943 147.986Z" fill="#D17E74"/>
<path d="M117.705 116.424C116.547 114.756 115.448 113.064 114.253 111.447C113.057 109.83 111.85 108.221 110.52 106.729C109.208 105.236 107.787 103.813 106.138 102.763C105.317 102.247 104.403 101.841 103.439 101.783C102.477 101.676 101.5 102.034 100.682 102.643C101.355 101.883 102.369 101.384 103.445 101.343C104.522 101.313 105.554 101.686 106.48 102.163C108.341 103.146 109.832 104.618 111.201 106.137C112.547 107.681 113.752 109.333 114.824 111.063C115.36 111.928 115.879 112.8 116.369 113.693C116.835 114.593 117.285 115.507 117.705 116.43L117.705 116.424Z" fill="#B5635D"/>
<path d="M106.507 115.871C105.679 113.886 104.904 111.891 104.014 109.954C103.124 108.017 102.21 106.093 101.142 104.261C100.091 102.434 98.9008 100.66 97.3947 99.225C96.6368 98.5232 95.7776 97.908 94.7939 97.6102C94.3043 97.4521 93.7917 97.3801 93.2686 97.3994C92.7474 97.4426 92.2247 97.5402 91.716 97.7329C92.6338 97.163 93.7999 96.97 94.9035 97.1856C96.0085 97.4192 96.9875 98.0244 97.8522 98.7054C99.5735 100.116 100.823 101.951 101.925 103.817C102.998 105.703 103.903 107.669 104.65 109.697C105.023 110.707 105.373 111.726 105.694 112.753C105.984 113.789 106.264 114.831 106.507 115.877L106.507 115.871Z" fill="#B5635D"/>
<path d="M80.6023 116.02C81.8311 118.91 82.8008 121.877 83.6996 124.861C84.5749 127.853 85.3918 130.868 85.9376 133.96C84.7028 131.07 83.7336 128.11 82.8344 125.119C81.959 122.127 81.1481 119.111 80.6023 116.02Z" fill="#B5635D"/>
<path d="M93.7535 119.108C92.139 116.003 90.7806 112.785 89.4871 109.551C88.2166 106.302 87.011 103.036 86.0625 99.6709C87.6775 102.782 89.0359 106 90.3294 109.234C91.5994 112.477 92.799 115.743 93.754 119.114L93.7535 119.108Z" fill="#B5635D"/>
<path d="M57.5583 30.9893H73.0116C77.768 30.9893 81.6287 34.8435 81.6287 39.5918V56.3551H48.936V39.597C48.936 34.8486 52.7968 30.9944 57.5532 30.9944L57.5583 30.9893Z" fill="#0FE3A9"/>
<path d="M73.2948 29.9816C77.7174 25.5665 77.7174 18.4081 73.2948 13.993C68.8722 9.57786 61.7017 9.57785 57.2791 13.993C52.8565 18.4081 52.8565 25.5665 57.2791 29.9816C61.7017 34.3968 68.8722 34.3968 73.2948 29.9816Z" fill="#0FE3A9"/>
</g>
<defs>
<linearGradient id="paint0_linear_1961_6061" x1="43.4846" y1="124.224" x2="173.226" y2="124.224" gradientUnits="userSpaceOnUse">
<stop stop-color="#3B478F"/>
<stop offset="1" stop-color="#2C234E"/>
</linearGradient>
<linearGradient id="paint1_linear_1961_6061" x1="115.366" y1="32.6132" x2="99.5477" y2="108.588" gradientUnits="userSpaceOnUse">
<stop stop-color="white"/>
<stop offset="0.05" stop-color="white" stop-opacity="0.88"/>
<stop offset="0.15" stop-color="white" stop-opacity="0.68"/>
<stop offset="0.26" stop-color="white" stop-opacity="0.5"/>
<stop offset="0.37" stop-color="white" stop-opacity="0.34"/>
<stop offset="0.48" stop-color="white" stop-opacity="0.22"/>
<stop offset="0.6" stop-color="white" stop-opacity="0.12"/>
<stop offset="0.72" stop-color="white" stop-opacity="0.05"/>
<stop offset="0.85" stop-color="white" stop-opacity="0.01"/>
<stop offset="1" stop-color="white" stop-opacity="0"/>
</linearGradient>
<linearGradient id="paint2_linear_1961_6061" x1="74.2591" y1="80.5674" x2="76.9613" y2="87.1248" gradientUnits="userSpaceOnUse">
<stop stop-color="#FFEDE9"/>
<stop offset="1" stop-color="#F2CBC2"/>
</linearGradient>
</defs>
</svg>
