<svg width="440" height="328" viewBox="0 0 440 328" fill="none" xmlns="http://www.w3.org/2000/svg">
<path d="M439.817 287.991H0.000488281V288.211H439.817V287.991Z" fill="#EBEBEB"/>
<path d="M395.747 302.146H366.614V302.365H395.747V302.146Z" fill="#EBEBEB"/>
<path d="M291.353 304.538H256.854V304.758H291.353V304.538Z" fill="#EBEBEB"/>
<path d="M365.734 293.981H315.578V294.201H365.734V293.981Z" fill="#EBEBEB"/>
<path d="M213.848 295.46H153.479V295.68H213.848V295.46Z" fill="#EBEBEB"/>
<path d="M227.245 295.46H221.677V295.68H227.245V295.46Z" fill="#EBEBEB"/>
<path d="M198.041 299.172H86.4946V299.392H198.041V299.172Z" fill="#EBEBEB"/>
<path d="M208.474 248.76H38.6252C37.2947 248.758 36.0194 248.228 35.0793 247.286C34.1393 246.344 33.6113 245.068 33.6113 243.737V4.97872C33.6229 3.65578 34.156 2.39082 35.0948 1.45862C36.0336 0.526424 37.3022 0.00226628 38.6252 0H208.474C209.806 0 211.083 0.529176 212.025 1.47112C212.967 2.41306 213.496 3.6906 213.496 5.0227V243.737C213.496 245.07 212.967 246.347 212.025 247.289C211.083 248.231 209.806 248.76 208.474 248.76ZM38.6252 0.175927C37.353 0.178257 36.1336 0.685291 35.2348 1.58574C34.336 2.48618 33.8312 3.70646 33.8312 4.97872V243.737C33.8312 245.01 34.336 246.23 35.2348 247.13C36.1336 248.031 37.353 248.538 38.6252 248.54H208.474C209.747 248.538 210.967 248.031 211.867 247.131C212.767 246.231 213.274 245.011 213.276 243.737V4.97872C213.274 3.70566 212.767 2.4854 211.867 1.5852C210.967 0.685006 209.747 0.178253 208.474 0.175927H38.6252Z" fill="#EBEBEB"/>
<path d="M398.747 248.76H228.89C227.558 248.758 226.282 248.228 225.341 247.287C224.399 246.345 223.87 245.069 223.867 243.737V4.97872C223.881 3.65497 224.416 2.39003 225.356 1.45807C226.296 0.526116 227.566 0.00224156 228.89 0H398.747C400.068 0.00457805 401.335 0.529758 402.272 1.46171C403.209 2.39366 403.741 3.6573 403.752 4.97872V243.737C403.752 245.067 403.225 246.341 402.287 247.283C401.349 248.224 400.076 248.756 398.747 248.76ZM228.89 0.175927C227.617 0.178253 226.397 0.685006 225.496 1.5852C224.596 2.4854 224.089 3.70566 224.087 4.97872V243.737C224.089 245.011 224.596 246.231 225.496 247.131C226.397 248.031 227.617 248.538 228.89 248.54H398.747C400.02 248.538 401.24 248.031 402.141 247.131C403.041 246.231 403.547 245.011 403.55 243.737V4.97872C403.547 3.70566 403.041 2.4854 402.141 1.5852C401.24 0.685006 400.02 0.178253 398.747 0.175927H228.89Z" fill="#EBEBEB"/>
<path d="M68.9111 287.991H99.7246L99.7246 184.476H68.9111L68.9111 287.991Z" fill="#F5F5F5"/>
<path d="M68.9021 287.991H73.9863L73.9863 184.476H68.9021L68.9021 287.991Z" fill="#F0F0F0"/>
<path d="M211.983 187.899H94.9746V213.796H211.983V187.899Z" fill="#E6E6E6"/>
<path d="M211.983 221.554H94.9746V227.535H211.983V221.554Z" fill="#E6E6E6"/>
<path d="M205.14 184.477H68.9023V193.466H205.14V184.477Z" fill="#F0F0F0"/>
<path d="M205.14 287.991H235.953V184.476H205.14V287.991Z" fill="#F5F5F5"/>
<path d="M205.14 287.991H210.224V184.476H205.14V287.991Z" fill="#F0F0F0"/>
<path d="M302.823 287.992V128.039H249.93V287.992H302.823Z" fill="#F0F0F0"/>
<path d="M299.92 179.129V132.042H252.833V179.129H299.92Z" fill="#E6E6E6"/>
<path d="M299.92 230.446V183.359H252.833V230.446H299.92Z" fill="#E6E6E6"/>
<path d="M299.92 281.756V234.669H252.833V281.756H299.92Z" fill="#E6E6E6"/>
<path d="M271.358 179.138V132.051H252.842V179.138H271.358Z" fill="#E0E0E0"/>
<path d="M271.35 230.446V183.359H252.833V230.446H271.35Z" fill="#E0E0E0"/>
<path d="M271.358 281.764V234.678H252.842V281.764H271.358Z" fill="#E0E0E0"/>
<path d="M317.188 287.983V128.03H302.823V287.983H317.188Z" fill="#F5F5F5"/>
<path d="M359.375 287.992V128.039H306.482V287.992H359.375Z" fill="#F0F0F0"/>
<path d="M356.463 179.138V132.051H309.376V179.138H356.463Z" fill="#E6E6E6"/>
<path d="M356.472 230.446V183.359H309.385V230.446H356.472Z" fill="#E6E6E6"/>
<path d="M356.472 281.764V234.678H309.385V281.764H356.472Z" fill="#E6E6E6"/>
<path d="M327.91 179.138V132.051H309.394V179.138H327.91Z" fill="#E0E0E0"/>
<path d="M327.901 230.446V183.359H309.385V230.446H327.901Z" fill="#E0E0E0"/>
<path d="M327.901 281.756V234.669H309.385V281.756H327.901Z" fill="#E0E0E0"/>
<path d="M373.739 287.992V128.039H359.374V287.992H373.739Z" fill="#F5F5F5"/>
<path d="M341.52 175.567C346.267 170.819 346.267 163.122 341.52 158.375C336.772 153.627 329.075 153.627 324.328 158.375C319.58 163.122 319.58 170.819 324.328 175.567C329.075 180.314 336.772 180.314 341.52 175.567Z" fill="#F5F5F5"/>
<path d="M291.449 218.289C291.364 221.458 290.045 224.468 287.774 226.679C285.503 228.89 282.458 230.127 279.288 230.127C276.119 230.127 273.074 228.89 270.803 226.679C268.531 224.468 267.213 221.458 267.127 218.289H291.449Z" fill="#F0F0F0"/>
<path d="M291.449 209.194C291.493 210.819 291.211 212.436 290.619 213.949C290.028 215.463 289.139 216.843 288.005 218.007C286.872 219.172 285.516 220.097 284.019 220.729C282.522 221.361 280.913 221.687 279.288 221.687C277.663 221.687 276.055 221.361 274.557 220.729C273.06 220.097 271.705 219.172 270.571 218.007C269.438 216.843 268.549 215.463 267.957 213.949C267.366 212.436 267.084 210.819 267.127 209.194H291.449Z" fill="#F0F0F0"/>
<path d="M312.578 281.755H350.807V241.459H312.578V281.755Z" fill="#F0F0F0"/>
<path d="M356.463 241.46H350.807V281.756H356.463V241.46Z" fill="#E0E0E0"/>
<path d="M322.527 128.039H337.727V69.1388H322.527V128.039Z" fill="#E6E6E6"/>
<path d="M281.316 128.038H331.763L339.38 59.0928H288.934L281.316 128.038Z" fill="#F0F0F0"/>
<path d="M275.854 128.038H327.954L335.581 59.0928H283.471L275.854 128.038Z" fill="#F5F5F5"/>
<path d="M312.939 128.038H323.055L311.399 59.0928H301.292L312.939 128.038Z" fill="#FAFAFA"/>
<path d="M303.932 128.038H307.855L296.2 59.0928H292.276L303.932 128.038Z" fill="#FAFAFA"/>
<path d="M181.152 160.983V28.4482L62.4014 28.4482L62.4014 160.983H181.152Z" fill="#EBEBEB"/>
<path d="M182.225 160.973V28.4385H181.152V160.973H182.225Z" fill="#E0E0E0"/>
<path d="M71.1982 152.177H172.356V37.2351L71.1982 37.2351L71.1982 152.177Z" fill="#F5F5F5"/>
<path d="M129.755 158.334H158.247V118.46H129.755V158.334Z" fill="white"/>
<path d="M87.9727 144.296H116.455L118.505 104.422H90.0222L87.9727 144.296Z" fill="white"/>
<path d="M145.659 73.3435H174.141L176.191 33.4609H147.708L145.659 73.3435Z" fill="white"/>
<path d="M108.234 96.1657L136.689 97.4131L138.435 57.5776L109.98 56.3302L108.234 96.1657Z" fill="white"/>
<path d="M67.4479 85.0917L95.9185 84.2666L94.7634 44.4096L66.2928 45.2347L67.4479 85.0917Z" fill="white"/>
<path d="M219.909 327.716C314.102 327.716 390.461 323.258 390.461 317.758C390.461 312.259 314.102 307.801 219.909 307.801C125.716 307.801 49.3569 312.259 49.3569 317.758C49.3569 323.258 125.716 327.716 219.909 327.716Z" fill="#F5F5F5"/>
<path d="M136.273 310.818H143.073L145.791 295.081H138.991L136.273 310.818Z" fill="#FFC3BD"/>
<path d="M96.311 310.818H103.111L109.321 295.081H102.521L96.311 310.818Z" fill="#FFC3BD"/>
<path d="M104.061 310.035H95.7746C95.6391 310.037 95.5079 310.083 95.4002 310.165C95.2925 310.248 95.2141 310.362 95.1765 310.493L93.4788 316.536C93.4364 316.674 93.4269 316.82 93.4509 316.963C93.475 317.106 93.5319 317.241 93.6173 317.358C93.7026 317.475 93.814 317.571 93.9427 317.637C94.0713 317.703 94.2136 317.739 94.3584 317.741C96.9973 317.697 98.9853 317.538 102.337 317.538C104.404 317.538 108.644 317.758 111.502 317.758C114.361 317.758 114.889 314.935 113.737 314.68C108.564 313.536 106.7 311.953 105.099 310.449C104.815 310.188 104.446 310.041 104.061 310.035Z" fill="#263238"/>
<path d="M143.064 310.035H135.648C135.512 310.037 135.379 310.082 135.27 310.164C135.161 310.247 135.081 310.362 135.041 310.493L133.353 316.536C133.308 316.674 133.297 316.821 133.32 316.965C133.344 317.108 133.4 317.244 133.486 317.362C133.572 317.479 133.684 317.575 133.814 317.641C133.943 317.706 134.087 317.741 134.232 317.741C136.871 317.697 140.785 317.538 144.146 317.538C148.086 317.538 151.464 317.758 156.082 317.758C158.871 317.758 159.803 314.935 158.651 314.68C153.373 313.519 149.072 313.395 144.647 310.563C144.18 310.241 143.631 310.058 143.064 310.035Z" fill="#263238"/>
<path d="M142.712 116.19C146.301 118.442 150.074 120.712 153.795 122.867C157.516 125.022 161.298 127.115 165.081 128.928C166.022 129.394 166.963 129.807 167.904 130.229C168.371 130.44 168.837 130.608 169.303 130.801L170.007 131.091L170.578 131.303C171.787 131.829 173.121 131.997 174.422 131.786C175.844 131.428 177.119 130.638 178.073 129.526C178.695 128.857 179.263 128.139 179.771 127.379C180.035 126.984 180.29 126.57 180.527 126.148L181.204 124.908L186.183 126.051C186.11 126.713 186.002 127.371 185.858 128.021C185.717 128.637 185.559 129.253 185.365 129.869C184.982 131.131 184.46 132.346 183.808 133.493C183.091 134.745 182.203 135.89 181.169 136.897C180.045 138.006 178.727 138.901 177.281 139.536C175.792 140.181 174.197 140.545 172.575 140.609C171.057 140.678 169.537 140.527 168.063 140.16C167.728 140.081 167.324 139.993 167.042 139.897L166.163 139.624C165.591 139.439 165.002 139.263 164.447 139.061C163.339 138.647 162.196 138.26 161.131 137.803C156.886 136.045 152.742 134.051 148.72 131.83C146.723 130.74 144.752 129.622 142.817 128.444C140.882 127.265 138.973 126.104 137.029 124.793L142.712 116.19Z" fill="#FFC3BD"/>
<path d="M132.482 122.462C133.828 128.954 150.162 138.296 150.162 138.296L156.117 122.647C156.117 122.647 151.464 119.735 144.515 115.091C137.566 110.446 130.995 115.337 132.482 122.462Z" fill="#263238"/>
<path d="M179.313 127.414L184.037 119.999L187.556 128.074C187.556 128.074 184.758 132.314 180.439 130.132L179.313 127.414Z" fill="#FFC3BD"/>
<path d="M190.063 117.193L192.376 123.245L187.564 128.066L184.037 119.999L190.063 117.193Z" fill="#FFC3BD"/>
<path opacity="0.2" d="M145.79 295.091L144.383 303.201H137.592L138.991 295.091H145.79Z" fill="black"/>
<path opacity="0.2" d="M102.522 295.091H109.321L106.111 303.201H99.3198L102.522 295.091Z" fill="black"/>
<path d="M140.363 113.474C140.363 113.474 149.802 132.931 145.017 172.092L108.952 176.825C108.301 171.283 109.831 143.636 102.557 118.083C106.472 116.791 110.464 115.748 114.511 114.96C119.573 113.996 124.686 113.327 129.825 112.955C133.346 112.847 136.87 113.021 140.363 113.474Z" fill="#263238"/>
<path opacity="0.2" d="M102.592 118.1L102.75 118.047C106.269 117.062 110.324 120.774 112.488 126.193C115.646 134.109 119.366 144.551 119.366 144.551L107.711 147.339C106.911 137.456 105.197 127.668 102.592 118.1Z" fill="black"/>
<path d="M114.801 97.4014C116.129 102.239 117.748 111.212 114.546 114.994C118.695 118.454 123.782 120.598 129.157 121.151C132.526 117.571 129.86 112.997 129.86 112.997C124.266 112.39 124.116 108.265 124.794 104.28L114.801 97.4014Z" fill="#FFC3BD"/>
<path d="M142.87 157.823L134.786 112.962C133.299 113.229 131.879 113.787 130.607 114.603C129.335 115.419 128.237 116.478 127.374 117.719C126.511 118.959 125.902 120.358 125.58 121.834C125.258 123.311 125.23 124.836 125.497 126.324L129.5 148.561C130.048 151.56 131.763 154.22 134.27 155.957C136.776 157.693 139.869 158.364 142.87 157.823Z" fill="#9379E4"/>
<path opacity="0.3" d="M142.87 157.823L134.786 112.962C133.299 113.229 131.879 113.787 130.607 114.603C129.335 115.419 128.237 116.478 127.374 117.719C126.511 118.959 125.902 120.358 125.58 121.834C125.258 123.311 125.23 124.836 125.497 126.324L129.5 148.561C130.048 151.56 131.763 154.22 134.27 155.957C136.776 157.693 139.869 158.364 142.87 157.823Z" fill="black"/>
<path d="M173.842 202.228L168.177 203.248C167.203 203.423 166.203 203.389 165.244 203.147C164.284 202.906 163.387 202.463 162.611 201.848C161.836 201.233 161.2 200.461 160.746 199.581C160.292 198.702 160.031 197.736 159.979 196.748L157.648 151.886C157.557 150.191 158.089 148.521 159.144 147.191C160.199 145.861 161.703 144.963 163.375 144.665L173.851 142.773C174.976 142.573 176.133 142.652 177.22 143.003C178.308 143.354 179.292 143.967 180.087 144.788C180.882 145.609 181.463 146.613 181.779 147.711C182.095 148.809 182.136 149.968 181.9 151.086L177.686 170.807C177.543 171.486 177.502 172.183 177.563 172.874L179.516 194.751C179.672 196.48 179.177 198.205 178.127 199.588C177.078 200.971 175.549 201.913 173.842 202.228Z" fill="#9379E4"/>
<path opacity="0.2" d="M173.851 142.755L163.374 144.638C161.705 144.939 160.202 145.839 159.148 147.168C158.094 148.497 157.561 150.165 157.648 151.86L158.413 166.752C165.321 165.579 172.247 164.602 179.19 163.823L181.899 151.05C182.135 149.933 182.093 148.776 181.776 147.679C181.459 146.582 180.877 145.58 180.083 144.761C179.288 143.942 178.304 143.33 177.217 142.98C176.13 142.631 174.974 142.553 173.851 142.755Z" fill="black"/>
<path d="M182.506 184.601L172.98 186.307L173.059 169.788L182.586 168.072L182.506 184.601Z" fill="#9379E4"/>
<path d="M183.949 176.076C183.949 180.641 183.28 184.459 182.506 184.591C181.732 184.723 181.117 181.152 181.134 176.586C181.152 172.021 181.803 168.212 182.586 168.071C183.368 167.931 183.975 171.528 183.949 176.076Z" fill="#9379E4"/>
<path opacity="0.2" d="M183.949 176.076C183.949 180.641 183.28 184.459 182.506 184.591C181.732 184.723 181.117 181.152 181.134 176.586C181.152 172.021 181.803 168.212 182.586 168.071C183.368 167.931 183.975 171.528 183.949 176.076Z" fill="black"/>
<path d="M143.556 101.782C140.425 102.354 137.649 104.143 135.835 106.758C134.022 109.373 133.319 112.601 133.88 115.733L141.04 155.519C141.61 158.651 143.399 161.429 146.014 163.243C148.63 165.057 151.859 165.759 154.991 165.195C178.372 160.992 202.114 159.133 225.863 159.645L250.291 160.181L234.651 73.2471L211.939 82.2633C189.852 91.0332 166.944 97.5721 143.556 101.782Z" fill="#9379E4"/>
<path opacity="0.3" d="M206.274 84.4454L219.786 159.575C220.973 159.575 222.169 159.575 223.357 159.575L209.599 83.1348C208.473 83.6274 207.383 84.0496 206.274 84.4454Z" fill="black"/>
<path d="M246.139 116.111C250.458 140.116 252.296 159.873 250.273 160.242C248.25 160.612 243.087 141.444 238.768 117.439C234.449 93.434 232.61 73.6774 234.633 73.308C236.656 72.9386 241.82 92.0618 246.139 116.111Z" fill="#9379E4"/>
<path opacity="0.2" d="M246.139 116.111C250.458 140.116 252.296 159.873 250.273 160.242C248.25 160.612 243.087 141.444 238.768 117.439C234.449 93.434 232.61 73.6774 234.633 73.308C236.656 72.9386 241.82 92.0618 246.139 116.111Z" fill="black"/>
<path opacity="0.2" d="M118.874 100.199L124.785 104.254C124.613 105.177 124.522 106.113 124.512 107.052C122.392 107.052 119.34 105.081 118.953 102.9C118.764 102.012 118.737 101.097 118.874 100.199Z" fill="black"/>
<path d="M123.861 77.6542C127.432 77.9797 132.816 87.5765 129.236 90.9543C125.656 94.3321 117.097 77.0297 123.861 77.6542Z" fill="#263238"/>
<path d="M111.327 91.3412C113.411 97.6745 114.3 101.501 118.434 103.77C124.644 107.183 131.875 101.677 131.743 94.7366C131.629 88.4912 128.224 79.1846 121.24 78.6393C119.657 78.5426 118.074 78.8327 116.628 79.4846C115.182 80.1365 113.916 81.1306 112.94 82.381C111.964 83.6315 111.307 85.1006 111.026 86.6617C110.745 88.2228 110.848 89.8288 111.327 91.3412Z" fill="#FFC3BD"/>
<path d="M128.427 76.6247C126.691 76.2707 124.918 76.1318 123.149 76.2113C124.177 75.2631 125.111 74.2173 125.937 73.0886C124.283 74.2215 122.448 75.0634 120.51 75.5779C120.834 74.7678 121.035 73.914 121.108 73.0446C119.762 74.6631 117.475 75.7626 115.003 76.6863C116.057 75.3734 116.87 73.8844 117.405 72.2881C115.865 75.1293 110.086 77.5659 106.445 79.9849H106.392C106.136 80.1364 105.892 80.3069 105.662 80.4951C105.364 80.7043 105.108 80.9668 104.905 81.2691C104.561 81.65 104.301 82.0998 104.144 82.5886C103.987 83.0775 103.936 83.5942 103.995 84.1044C104.053 84.6145 104.219 85.1064 104.482 85.5473C104.745 85.9882 105.099 86.3679 105.521 86.6613C104.855 87.1335 104.378 87.8273 104.177 88.6186C103.975 89.4099 104.062 90.247 104.421 90.9803C104.369 89.7488 104.659 88.403 105.547 87.8576C104.052 92.1854 109.066 96.2669 113.534 97.4192C116.173 98.0877 117.792 87.9895 115.294 83.996C118.68 83.565 121.574 82.7205 123.307 81.5242C122.002 81.9476 120.618 82.065 119.261 81.8673C122.515 80.583 126.016 78.771 128.778 79.2284C127.448 78.7443 126.042 78.5029 124.627 78.5159C125.563 78.1322 126.562 77.9263 127.573 77.909C130.538 78.0321 132.49 80.5479 131.734 82.2367C132.869 80.4159 132.455 77.4779 128.427 76.6247Z" fill="#263238"/>
<path d="M110.253 99.3988C110.871 99.9438 111.594 100.357 112.378 100.612C113.162 100.868 113.989 100.961 114.81 100.885C117.035 100.674 117.449 98.4576 116.287 96.7511C115.214 95.2205 112.769 93.4788 110.799 94.5432C110.374 94.7696 110.011 95.0959 109.741 95.4939C109.471 95.8919 109.302 96.3496 109.249 96.8275C109.195 97.3054 109.258 97.7893 109.433 98.2372C109.608 98.6852 109.89 99.0838 110.253 99.3988Z" fill="#FFC3BD"/>
<path d="M145.017 172.109C145.017 172.109 163.489 222.891 161.527 243.606C159.513 265.166 147.031 301.662 147.031 301.662H135.517C135.517 301.662 142.272 266.476 142.993 245.286C143.776 222.213 122.63 193.036 121.337 175.258L145.017 172.109Z" fill="#9379E4"/>
<path opacity="0.2" d="M126.175 189.614C125.761 189.348 125.311 189.143 124.838 189.007C128.884 199.905 135.437 212.616 139.466 225.019C139.906 204.515 135.464 195.384 126.175 189.614Z" fill="black"/>
<path d="M132.235 173.789C132.235 173.789 137.513 224.016 132.156 243.465C126.289 264.769 109.4 301.626 109.4 301.626H96.9531C96.9531 301.626 107.79 266.529 111.661 245.418C115.865 222.547 110.227 193.862 109.022 176.859L132.235 173.789Z" fill="#9379E4"/>
<path d="M111.591 301.899H95.7837L96.848 297.237H113.772L111.591 301.899Z" fill="#9379E4"/>
<path opacity="0.4" d="M111.591 301.899H95.7837L96.848 297.237H113.772L111.591 301.899Z" fill="black"/>
<path d="M149.582 301.899H133.942L134.197 297.466L150.453 297.237L149.582 301.899Z" fill="#9379E4"/>
<path opacity="0.4" d="M149.582 301.899H133.942L134.197 297.466L150.453 297.237L149.582 301.899Z" fill="black"/>
<path d="M121.627 90.0122C121.759 90.5312 122.155 90.8918 122.507 90.7599C122.858 90.6279 123.017 90.1353 122.885 89.6075C122.753 89.0798 122.357 88.7279 122.005 88.8599C121.653 88.9918 121.486 89.4844 121.627 90.0122Z" fill="#263238"/>
<path d="M127.547 88.1033C127.688 88.6311 128.075 88.9829 128.427 88.8598C128.778 88.7366 128.946 88.2265 128.805 87.7075C128.664 87.1885 128.277 86.8278 127.925 86.951C127.573 87.0741 127.45 87.5755 127.547 88.1033Z" fill="#263238"/>
<path d="M125.788 88.9756C126.831 90.3763 128.073 91.6179 129.473 92.6613C129.187 93.0323 128.824 93.338 128.41 93.5579C127.996 93.7779 127.54 93.907 127.072 93.9367L125.788 88.9756Z" fill="#ED847E"/>
<path d="M125.894 95.88C125.21 96.1293 124.475 96.2052 123.755 96.1008C123.035 95.9964 122.353 95.715 121.768 95.2819C121.753 95.2671 121.74 95.2494 121.732 95.2297C121.724 95.2101 121.719 95.1889 121.719 95.1675C121.719 95.1462 121.724 95.125 121.732 95.1054C121.74 95.0857 121.753 95.068 121.768 95.0532C121.798 95.0247 121.837 95.0088 121.878 95.0088C121.919 95.0088 121.958 95.0247 121.988 95.0532C122.536 95.4462 123.172 95.7003 123.839 95.7937C124.507 95.8872 125.188 95.8172 125.823 95.5898C125.843 95.5831 125.864 95.5805 125.884 95.5823C125.905 95.584 125.925 95.5901 125.943 95.6C125.961 95.6099 125.977 95.6235 125.99 95.6399C126.003 95.6563 126.012 95.6752 126.017 95.6953C126.021 95.7356 126.01 95.7759 125.988 95.8096C125.966 95.8432 125.932 95.8681 125.894 95.88Z" fill="#263238"/>
<path d="M119.331 88.666C119.265 88.6835 119.195 88.6835 119.129 88.666C119.089 88.6515 119.053 88.6291 119.023 88.6001C118.992 88.5711 118.968 88.5362 118.951 88.4974C118.935 88.4587 118.926 88.4169 118.927 88.3748C118.927 88.3327 118.936 88.2911 118.953 88.2526C119.135 87.7612 119.427 87.3179 119.807 86.9566C120.186 86.5953 120.643 86.3255 121.143 86.1678C121.184 86.1575 121.226 86.1554 121.267 86.1619C121.308 86.1683 121.348 86.1831 121.383 86.2053C121.419 86.2276 121.449 86.2568 121.473 86.2911C121.497 86.3255 121.513 86.3644 121.521 86.4053C121.533 86.4909 121.514 86.578 121.467 86.6506C121.421 86.7233 121.349 86.7767 121.266 86.8012C120.866 86.9253 120.499 87.1398 120.194 87.428C119.889 87.7162 119.654 88.0705 119.507 88.4637C119.476 88.5508 119.413 88.623 119.331 88.666Z" fill="#263238"/>
<path d="M129.667 85.2271C129.611 85.2456 129.551 85.248 129.493 85.234C129.436 85.22 129.383 85.1902 129.342 85.1479C129.091 84.8373 128.766 84.5942 128.398 84.4406C128.029 84.287 127.628 84.2278 127.231 84.2683C127.19 84.2772 127.149 84.2775 127.109 84.2691C127.068 84.2608 127.03 84.244 126.997 84.2199C126.964 84.1958 126.936 84.1649 126.916 84.1293C126.895 84.0936 126.883 84.054 126.879 84.0132C126.87 83.9277 126.893 83.8421 126.943 83.7724C126.994 83.7027 127.068 83.6538 127.151 83.6349C127.642 83.5726 128.141 83.6342 128.602 83.8139C129.063 83.9937 129.471 84.286 129.79 84.6641C129.848 84.7261 129.881 84.8078 129.881 84.8928C129.881 84.9778 129.848 85.0595 129.79 85.1215C129.762 85.1691 129.719 85.2062 129.667 85.2271Z" fill="#263238"/>
<path d="M109.831 123.588C110.588 126.535 111.379 129.631 112.232 132.631C113.086 135.63 113.939 138.647 114.871 141.603C115.804 144.558 116.842 147.479 117.941 150.311C118.971 153.044 120.215 155.691 121.662 158.228C121.838 158.501 122.005 158.817 122.181 159.063L122.454 159.459L122.586 159.653C122.837 159.957 123.134 160.221 123.465 160.436C124.584 161.211 125.76 161.899 126.984 162.494C129.623 163.805 132.499 165.01 135.402 166.145C141.225 168.414 147.259 170.543 153.241 172.583L152.08 177.553C145.627 176.619 139.236 175.303 132.939 173.613C129.704 172.751 126.52 171.706 123.404 170.481C121.686 169.811 120.026 168.999 118.443 168.053C117.406 167.432 116.459 166.671 115.628 165.793L115.232 165.37L115.012 165.089L114.564 164.508C114.256 164.121 114.018 163.743 113.745 163.356C111.82 160.443 110.166 157.36 108.802 154.146C107.43 151.076 106.269 147.989 105.187 144.849C103.028 138.647 101.216 132.331 99.7593 125.928L109.831 123.588Z" fill="#FFC3BD"/>
<path d="M98.5632 121.838C95.2206 129.631 100.657 147.409 100.657 147.409L116.93 143.23C115.924 136.958 114.475 130.764 112.593 124.697C109.778 116.366 101.158 115.839 98.5632 121.838Z" fill="#263238"/>
<path d="M106.242 311.222C105.648 311.208 105.058 311.125 104.483 310.976C104.453 310.968 104.426 310.951 104.406 310.927C104.386 310.904 104.373 310.875 104.369 310.844C104.368 310.812 104.375 310.781 104.391 310.753C104.406 310.725 104.429 310.702 104.457 310.686C104.712 310.527 106.981 309.182 107.711 309.569C107.792 309.613 107.859 309.679 107.903 309.761C107.946 309.842 107.965 309.934 107.958 310.026C107.971 310.192 107.943 310.359 107.877 310.513C107.811 310.666 107.709 310.801 107.579 310.906C107.181 311.156 106.711 311.267 106.242 311.222ZM104.958 310.747C105.751 311.013 106.615 310.969 107.377 310.624C107.463 310.555 107.53 310.466 107.575 310.365C107.619 310.264 107.639 310.154 107.632 310.044C107.635 310.006 107.628 309.968 107.61 309.934C107.593 309.899 107.568 309.871 107.535 309.85C107.157 309.63 105.873 310.237 104.958 310.747Z" fill="#9379E4"/>
<path d="M104.51 310.976H104.43C104.407 310.961 104.388 310.941 104.375 310.916C104.363 310.891 104.357 310.863 104.36 310.835C104.36 310.747 104.65 308.786 105.477 308.144C105.572 308.063 105.683 308.003 105.803 307.968C105.923 307.933 106.048 307.924 106.172 307.941C106.291 307.938 106.406 307.978 106.497 308.054C106.588 308.131 106.647 308.237 106.665 308.355C106.761 309.12 105.319 310.607 104.589 310.994C104.561 310.998 104.533 310.991 104.51 310.976ZM106.049 308.223C105.911 308.227 105.778 308.277 105.671 308.364C105.163 308.969 104.839 309.708 104.738 310.492C105.468 309.964 106.401 308.839 106.339 308.39C106.339 308.39 106.339 308.258 106.119 308.232L106.049 308.223Z" fill="#9379E4"/>
<path d="M145.826 311.223C145.113 311.209 144.403 311.126 143.706 310.977C143.673 310.973 143.643 310.958 143.62 310.934C143.598 310.909 143.585 310.878 143.583 310.845C143.58 310.811 143.587 310.776 143.605 310.746C143.622 310.716 143.648 310.693 143.679 310.678C143.996 310.52 146.802 309.13 147.603 309.596C147.677 309.638 147.74 309.7 147.783 309.774C147.826 309.848 147.849 309.932 147.849 310.018C147.855 310.167 147.827 310.315 147.766 310.451C147.704 310.587 147.613 310.707 147.497 310.801C147.003 311.125 146.414 311.274 145.826 311.223ZM144.251 310.748C145.738 310.995 146.89 310.933 147.295 310.564C147.371 310.501 147.432 310.422 147.471 310.332C147.511 310.242 147.529 310.143 147.523 310.045C147.526 310.011 147.519 309.978 147.504 309.948C147.488 309.919 147.465 309.894 147.436 309.878C146.996 309.631 145.404 310.212 144.26 310.748H144.251Z" fill="#9379E4"/>
<path d="M143.732 310.977C143.704 310.986 143.673 310.986 143.644 310.977C143.622 310.96 143.604 310.937 143.593 310.911C143.582 310.884 143.579 310.856 143.583 310.827C143.706 309.846 144.127 308.925 144.788 308.189C145.035 307.987 145.349 307.886 145.667 307.907C146.107 307.96 146.222 308.18 146.248 308.364C146.327 309.13 144.612 310.599 143.776 311.003L143.732 310.977ZM145.553 308.224C145.343 308.224 145.141 308.299 144.981 308.435C144.441 309.016 144.086 309.745 143.961 310.528C144.841 310.027 146.002 308.875 145.949 308.408C145.949 308.408 145.949 308.259 145.65 308.233L145.553 308.224Z" fill="#9379E4"/>
<path d="M151.948 172.47L158.747 171.353L156.012 179.806C156.012 179.806 150.083 179.463 150.092 176.226L151.948 172.47Z" fill="#FFC3BD"/>
<path d="M165.186 174.493L162.583 181.319L156.012 179.806L158.747 171.353L165.186 174.493Z" fill="#FFC3BD"/>
<path d="M345.107 77.873L335.141 40.8404C334.947 40.1184 334.613 39.4416 334.157 38.8487C333.702 38.2558 333.134 37.7585 332.486 37.3852C331.838 37.0119 331.123 36.7699 330.382 36.673C329.641 36.5761 328.887 36.6262 328.165 36.8205L256.036 56.1724C254.577 56.566 253.333 57.5227 252.58 58.8324C251.826 60.1421 251.623 61.6975 252.016 63.1567L261.973 100.189C262.365 101.648 263.319 102.891 264.627 103.647C265.935 104.402 267.489 104.608 268.949 104.218L279.126 101.482L293.138 109.549L290.156 98.518L341.087 84.8309C342.54 84.4371 343.779 83.4844 344.532 82.1808C345.285 80.8772 345.492 79.3286 345.107 77.873Z" fill="#9379E4"/>
<path opacity="0.2" d="M345.107 77.873L335.141 40.8404C334.947 40.1184 334.613 39.4416 334.157 38.8487C333.702 38.2558 333.134 37.7585 332.486 37.3852C331.838 37.0119 331.123 36.7699 330.382 36.673C329.641 36.5761 328.887 36.6262 328.165 36.8205L256.036 56.1724C254.577 56.566 253.333 57.5227 252.58 58.8324C251.826 60.1421 251.623 61.6975 252.016 63.1567L261.973 100.189C262.365 101.648 263.319 102.891 264.627 103.647C265.935 104.402 267.489 104.608 268.949 104.218L279.126 101.482L293.138 109.549L290.156 98.518L341.087 84.8309C342.54 84.4371 343.779 83.4844 344.532 82.1808C345.285 80.8772 345.492 79.3286 345.107 77.873Z" fill="black"/>
<path d="M374.495 155.413L378.348 130.344C378.5 129.357 378.253 128.35 377.663 127.545C377.072 126.74 376.186 126.203 375.199 126.051L326.344 118.539C325.856 118.463 325.357 118.484 324.876 118.601C324.395 118.718 323.943 118.929 323.544 119.222C323.145 119.514 322.808 119.883 322.552 120.306C322.296 120.729 322.126 121.199 322.052 121.688L318.19 146.758C318.039 147.744 318.285 148.751 318.876 149.556C319.466 150.361 320.352 150.899 321.339 151.05L328.227 152.115L334.551 160.735L335.704 153.258L370.168 158.536C370.657 158.616 371.157 158.599 371.64 158.486C372.123 158.372 372.578 158.164 372.98 157.874C373.383 157.584 373.723 157.217 373.983 156.795C374.243 156.372 374.417 155.903 374.495 155.413Z" fill="#9379E4"/>
<path opacity="0.3" d="M374.495 155.413L378.348 130.344C378.5 129.357 378.253 128.35 377.663 127.545C377.072 126.74 376.186 126.203 375.199 126.051L326.344 118.539C325.856 118.463 325.357 118.484 324.876 118.601C324.395 118.718 323.943 118.929 323.544 119.222C323.145 119.514 322.808 119.883 322.552 120.306C322.296 120.729 322.126 121.199 322.052 121.688L318.19 146.758C318.039 147.744 318.285 148.751 318.876 149.556C319.466 150.361 320.352 150.899 321.339 151.05L328.227 152.115L334.551 160.735L335.704 153.258L370.168 158.536C370.657 158.616 371.157 158.599 371.64 158.486C372.123 158.372 372.578 158.164 372.98 157.874C373.383 157.584 373.723 157.217 373.983 156.795C374.243 156.372 374.417 155.903 374.495 155.413Z" fill="white"/>
<path d="M372.763 114.774L366.482 69.9129C366.234 68.1434 365.292 66.5452 363.865 65.4697C362.439 64.3941 360.643 63.9294 358.873 64.1777L271.429 76.4046C269.66 76.6532 268.061 77.5945 266.986 79.0213C265.91 80.4482 265.446 82.2439 265.694 84.0134L271.974 128.875C272.095 129.751 272.388 130.595 272.836 131.358C273.284 132.121 273.878 132.788 274.584 133.32C275.29 133.853 276.094 134.241 276.95 134.463C277.807 134.684 278.699 134.734 279.574 134.61L291.889 132.851L307.151 144.365L305.277 130.977L367.001 122.348C368.767 122.103 370.365 121.169 371.445 119.75C372.524 118.331 372.998 116.542 372.763 114.774Z" fill="#9379E4"/>
<path d="M280.102 96.1074L285.054 95.4125L292.839 103.998L291.511 94.5064L296.507 93.8115L298.909 110.964L293.912 111.668L286.172 103.144L287.491 112.565L282.503 113.26L280.102 96.1074Z" fill="white"/>
<path d="M300.017 93.32L314.232 91.332L314.742 95.0001L305.849 96.2404L306.227 98.9672L314.478 97.8149L314.971 101.333L306.72 102.486L307.186 105.864L316.343 104.588L316.888 108.467L302.418 110.49L300.017 93.32Z" fill="white"/>
<path d="M315.578 91.1463L320.609 90.4426L323.767 99.7931L325.078 89.8181L330.092 89.1144L334.094 98.3329L334.569 88.4898L339.574 87.7861L338.193 105.476L332.994 106.197L328.473 95.8172L326.986 107.041L321.788 107.763L315.578 91.1463Z" fill="white"/>
<path d="M341.984 99.1512L346.989 98.1309C347.126 98.7833 347.429 99.3892 347.869 99.8901C348.199 100.196 348.596 100.421 349.028 100.544C349.461 100.668 349.917 100.688 350.358 100.603C350.993 100.556 351.588 100.277 352.03 99.8198C352.198 99.6471 352.326 99.4391 352.403 99.2108C352.481 98.9825 352.507 98.7398 352.478 98.5003C352.44 98.2718 352.352 98.0544 352.222 97.8631C352.091 97.6717 351.921 97.511 351.722 97.392C350.827 96.9833 349.855 96.7733 348.872 96.7762C347.028 96.7355 345.219 96.2593 343.594 95.3864C343.056 95.0499 342.601 94.5971 342.261 94.0612C341.922 93.5253 341.707 92.9201 341.632 92.2901C341.505 91.388 341.652 90.4685 342.055 89.6512C342.506 88.7421 343.216 87.9864 344.095 87.4785C345.373 86.7886 346.776 86.3609 348.221 86.2206C349.963 85.865 351.773 86.0459 353.411 86.7396C354.077 87.1188 354.654 87.6372 355.102 88.2596C355.55 88.882 355.858 89.5937 356.006 90.3461L351.053 91.3401C350.896 90.7036 350.515 90.1448 349.98 89.7656C349.418 89.4634 348.769 89.364 348.142 89.4841C347.64 89.5166 347.167 89.7254 346.805 90.0734C346.675 90.2069 346.577 90.3681 346.52 90.545C346.462 90.7218 346.445 90.9095 346.47 91.0938C346.495 91.238 346.553 91.3746 346.638 91.4934C346.723 91.6123 346.834 91.7102 346.963 91.7799C347.55 92.0392 348.186 92.1683 348.828 92.1582C350.584 92.2281 352.325 92.5027 354.018 92.9762C354.969 93.2706 355.819 93.8251 356.472 94.5772C357.038 95.2802 357.397 96.1269 357.51 97.0225C357.668 98.1027 357.5 99.2056 357.026 100.189C356.535 101.217 355.752 102.077 354.774 102.661C353.531 103.365 352.157 103.805 350.737 103.954C347.805 104.365 345.705 104.071 344.438 103.074C343.185 102.096 342.316 100.707 341.984 99.1512Z" fill="white"/>
</svg>
