<svg width="209" height="173" viewBox="0 0 209 173" fill="none" xmlns="http://www.w3.org/2000/svg">
<ellipse cx="100" cy="90.5" rx="82" ry="82.5" fill="#F6EDFF"/>
<mask id="mask0_1613_4744" style="mask-type:alpha" maskUnits="userSpaceOnUse" x="18" y="-21" width="197" height="195">
<path d="M214 76C217 177.5 145.287 173 100 173C54.7127 173 18 136.063 18 90.5C18 44.9365 54.7127 -20.5 100 -20.5C145.287 -20.5 214 30.4365 214 76Z" fill="#F6EDFF"/>
</mask>
<g mask="url(#mask0_1613_4744)">
<path d="M135.659 126.247C136.348 123.855 137.899 121.963 139.462 120.155C142.925 116.15 146.721 112.457 151.223 109.558C154.792 107.26 158.677 105.726 162.786 104.571C169.588 102.66 176.523 101.764 183.486 100.899C186.887 100.477 190.124 99.2523 193.124 97.651C197.413 95.3622 200.725 92.0361 202.824 87.644C203.103 87.0592 203.406 86.4618 204.317 85.9997C203.833 87.5231 203.456 88.8443 202.993 90.1383C201.938 93.0849 200.34 95.7555 198.287 98.1396C197.028 99.6007 195.377 100.648 193.725 101.658C190.265 103.773 186.346 104.233 182.471 104.825C177.002 105.662 171.438 105.807 166.024 106.97C162.183 107.796 158.282 108.6 154.724 110.42C150.293 112.687 146.238 115.465 142.691 118.963C140.573 121.051 138.556 123.214 136.705 125.53C136.464 125.832 136.222 126.247 135.657 126.247L135.659 126.247Z" fill="#7858DD"/>
<path d="M187.234 114.567C186.756 118.083 185.15 121.009 182.248 122.879C180.289 124.141 177.904 124.62 175.551 124.837C172.162 125.149 168.749 125.36 165.433 126.092C160.872 127.1 156.761 129.067 153.586 132.666C152.397 134.014 151.187 135.342 149.76 136.932C149.89 135.367 150.79 134.529 151.469 133.673C153.704 130.852 156.246 128.293 159.375 126.508C161.022 125.568 162.889 124.991 164.777 124.507C167.082 123.916 169.378 123.375 171.735 123.027C173.78 122.725 175.838 122.578 177.879 122.183C180.899 121.599 183.138 119.936 185.059 117.72C185.889 116.761 186.515 115.623 187.233 114.567L187.234 114.567Z" fill="#7858DD"/>
<path d="M103.229 55.6277C103.619 54.6891 104.335 53.9934 105.053 53.3317C106.642 51.8671 108.352 50.5441 110.312 49.5756C111.866 48.8081 113.512 48.3649 115.233 48.086C118.08 47.6245 120.934 47.581 123.798 47.5511C125.198 47.5367 126.567 47.1893 127.858 46.6781C129.703 45.9475 131.2 44.751 132.254 43.0662C132.394 42.8419 132.545 42.6135 132.935 42.4681C132.669 43.0637 132.455 43.5823 132.207 44.0858C131.644 45.2324 130.872 46.242 129.93 47.1144C129.352 47.649 128.633 47.9976 127.917 48.3313C126.416 49.0295 124.805 49.0352 123.206 49.0968C120.949 49.1842 118.685 48.9866 116.435 49.2087C114.839 49.3663 113.22 49.5128 111.693 50.087C109.791 50.802 108.018 51.742 106.418 52.9971C105.462 53.7468 104.544 54.531 103.687 55.3852C103.575 55.4965 103.458 55.6535 103.229 55.6275L103.229 55.6277Z" fill="#7858DD"/>
<path d="M124.689 53.268C124.333 54.6723 123.547 55.785 122.283 56.4098C121.43 56.8316 120.441 56.9157 119.476 56.8953C118.087 56.8656 116.693 56.7936 115.314 56.9377C113.418 57.1363 111.659 57.7448 110.205 59.0579C109.661 59.5499 109.109 60.0329 108.457 60.612C108.581 59.9831 108.985 59.6849 109.3 59.3691C110.337 58.3279 111.486 57.4068 112.838 56.8271C113.549 56.522 114.333 56.3739 115.121 56.2644C116.083 56.1311 117.04 56.0176 118.012 55.9852C118.855 55.957 119.697 55.9921 120.543 55.9262C121.795 55.8284 122.78 55.2571 123.661 54.4467C124.042 54.0963 124.348 53.6633 124.689 53.2681L124.689 53.268Z" fill="#7858DD"/>
<path d="M32.4443 142.264C32.8681 141.244 33.6463 140.488 34.4261 139.769C36.153 138.178 38.0115 136.74 40.1415 135.687C41.83 134.853 43.6193 134.372 45.4887 134.069C48.5828 133.567 51.6847 133.52 54.7976 133.487C56.3182 133.472 57.8062 133.094 59.2092 132.539C61.2144 131.745 62.8412 130.444 63.9863 128.613C64.1388 128.37 64.3024 128.122 64.7268 127.963C64.4371 128.611 64.205 129.174 63.9359 129.721C63.3234 130.968 62.4848 132.065 61.4604 133.013C60.8323 133.594 60.0519 133.973 59.2729 134.335C57.6419 135.094 55.8912 135.1 54.1535 135.167C51.7005 135.262 49.2407 135.047 46.7958 135.289C45.061 135.46 43.3015 135.619 41.6418 136.243C39.5746 137.02 37.6479 138.042 35.909 139.406C34.8707 140.22 33.8733 141.073 32.9412 142.001C32.8198 142.122 32.6925 142.293 32.4435 142.264L32.4443 142.264Z" fill="#7858DD"/>
<path d="M55.7641 139.7C55.3769 141.226 54.5227 142.435 53.1495 143.114C52.2229 143.573 51.1473 143.664 50.0993 143.642C48.5898 143.609 47.0746 143.531 45.5761 143.688C43.5152 143.904 41.6041 144.565 40.0244 145.992C39.4327 146.527 38.8328 147.051 38.1238 147.681C38.2595 146.997 38.6985 146.673 39.0404 146.33C40.1673 145.199 41.416 144.198 42.8848 143.568C43.6581 143.236 44.5098 143.075 45.3666 142.956C46.4119 142.811 47.4514 142.688 48.5079 142.653C49.4242 142.622 50.3387 142.66 51.2586 142.589C52.6188 142.482 53.6895 141.861 54.6472 140.981C55.0613 140.6 55.3941 140.129 55.7638 139.7L55.7641 139.7Z" fill="#7858DD"/>
<path d="M73.6844 133.286L45.9292 90.5547L208.514 61.5156L73.6844 133.286Z" fill="#098C68"/>
<path d="M42.2589 99.8841L31.0517 128.554L61.3858 117.242L208.513 61.517L42.2589 99.8841Z" fill="#0FE3A9"/>
<path d="M45.9291 90.5554L54.6032 71.5528L208.514 61.5163L45.9291 90.5554Z" fill="#0FE3A9"/>
<path d="M51.0804 98.4852L45.9292 90.5547L207.288 61.543L51.0804 98.4852Z" fill="#0AA67B"/>
<path d="M71.3338 53.9772L64.918 40.0986L114.449 38.4278L71.3338 53.9772Z" fill="#098C68"/>
<path d="M63.4293 42.7119L58.8744 50.7478L68.3677 48.6854L114.449 38.4275L63.4293 42.7119Z" fill="#0FE3A9"/>
<path d="M64.9182 40.0982L68.3073 34.8252L114.449 38.4274L64.9182 40.0982Z" fill="#0FE3A9"/>
<path d="M66.1087 42.6744L64.918 40.0986L114.084 38.3835L66.1087 42.6744Z" fill="#0AA67B"/>
<path d="M95.0255 156.437L85.583 144.411L133.395 131.367L95.0255 156.437Z" fill="#098C68"/>
<path d="M84.7366 147.298L82.1569 156.168L90.919 151.972L133.395 131.368L84.7366 147.298Z" fill="#0FE3A9"/>
<path d="M85.5829 144.412L87.6651 138.5L133.395 131.368L85.5829 144.412Z" fill="#0FE3A9"/>
<path d="M87.3355 146.643L85.583 144.411L133.029 131.408L87.3355 146.643Z" fill="#0AA67B"/>
</g>
</svg>
