<svg width="204" height="180" viewBox="0 0 204 180" fill="none" xmlns="http://www.w3.org/2000/svg">
<ellipse cx="100" cy="97.5" rx="82" ry="82.5" fill="#F6EDFF"/>
<mask id="mask0_1614_4911" style="mask-type:alpha" maskUnits="userSpaceOnUse" x="10" y="0" width="194" height="180">
<path d="M203 106.5C213 160 145.287 180 100 180C63.192 180 32.0483 155.6 21.6764 122C20.5259 118.273 19.631 114.433 19.0122 110.5C18.346 106.265 10 99.4233 10 95C27.5 38.5 47.9999 5.5 102.5 0C131.351 0 165 14 177.5 53C190.778 64.0644 186 94 203 106.5Z" fill="#F6EDFF"/>
</mask>
<g mask="url(#mask0_1614_4911)">
<g clip-path="url(#clip0_1614_4911)">
<path d="M182.702 135.962C182.409 136.064 88.6128 143.549 79.3287 144.413L75.7416 54.6134L103.566 53.3708L132.4 52.093L162.433 50.7534L178.311 50.0449L182.699 135.968L182.702 135.962Z" fill="#0FE3A9"/>
<path d="M182.702 135.963C182.409 136.064 171.199 136.922 166.154 137.412L162.384 50.8228C162.384 50.8228 162.406 50.7964 162.437 50.7522L178.315 50.0437L182.703 135.967L182.702 135.963Z" fill="#098C68"/>
<path d="M134.208 85.3035L105.386 86.8713L103.571 53.3696L132.403 52.0872L134.208 85.3035Z" fill="#0AA67B"/>
<g style="mix-blend-mode:multiply">
<path d="M77.8111 106.339L181.901 120.276L182.681 137.435L79.3288 144.413L77.8111 106.339Z" fill="#EFE8D3"/>
</g>
<path d="M204.859 133.276C203.319 134.353 198.225 137.8 192.316 140.897C191.7 141.218 191.078 141.537 190.449 141.847C190.046 142.046 189.636 142.207 189.202 142.336C185.933 143.333 170.824 147.916 168.853 148.36C168.839 148.364 168.825 148.368 168.815 148.366L168.788 148.325C168.354 148.557 167.919 148.781 167.498 149.005C165.165 150.242 162.986 151.38 161.182 152.306C158.91 153.431 156.536 154.328 154.092 154.992C146.961 156.914 131.581 160.547 117.855 160.345C117.855 160.345 45.1381 162.828 44.6093 162.233L44.3125 162.222C44.6354 155.907 45.0817 146.936 45.4791 139.361L45.8479 139.381C71.8157 138.281 76.3812 130.461 76.7468 129.732C77.7954 129.411 78.7883 128.953 79.7172 128.38C81.472 127.339 84.4588 125.773 88.3924 124.484C90.7338 123.712 93.4023 123.036 96.3378 122.624C96.3378 122.624 96.3424 122.623 96.3515 122.62C103.294 121.654 111.732 122.164 120.831 126.365L120.854 126.662C122.101 126.561 123.496 126.451 124.986 126.348C132.048 125.868 141.23 125.516 146.918 126.373C146.918 126.373 154.436 126.916 154.602 133.255C154.602 133.255 154.687 133.842 154.576 134.695C154.502 135.249 154.337 135.919 154.009 136.622L154.225 136.732C154.225 136.732 164.156 135.08 169.944 132.835C170.211 132.73 170.476 132.617 170.745 132.503C173.106 131.491 185.827 126.353 191.262 130.535C191.476 130.706 191.689 130.886 191.878 131.089L191.843 130.333C193.91 129.657 200.567 127.811 204.024 131.092C204.41 131.455 204.754 131.88 205.051 132.379C205.225 132.681 205.139 133.064 204.858 133.256L204.859 133.276Z" fill="#FFCC8F"/>
<path d="M45.4773 139.372C45.6268 136.568 45.7696 133.961 45.8932 131.742C47.0955 131.689 70.429 130.657 76.6459 129.776C76.6779 129.767 76.7144 129.756 76.7464 129.747C76.3762 130.478 71.8153 138.296 45.8475 139.396L45.4787 139.376L45.4773 139.372Z" fill="#EFB06C"/>
<path d="M145.015 141.556L144.993 140.897C144.993 140.897 146.067 140.812 147.771 140.656L147.865 141.309C146.968 141.49 146.009 141.575 145.01 141.558L145.015 141.556Z" fill="#DD9247"/>
<path d="M191.266 130.549C181.287 130.396 172.091 134.764 167.747 137.203C165.655 138.379 163.354 139.14 160.976 139.486C156.288 140.173 150.974 140.697 147.812 140.982C153.62 139.794 154.576 134.709 154.576 134.709C154.501 135.263 154.336 135.933 154.008 136.637L154.224 136.747C154.224 136.747 164.155 135.095 169.943 132.849C170.211 132.745 170.476 132.632 170.745 132.518C173.105 131.506 185.827 126.367 191.261 130.55L191.266 130.549Z" fill="#EFB06C"/>
<path d="M125.05 126.712L112.454 127.523C107.227 123 96.8076 122.65 96.3511 122.636C103.293 121.669 111.731 122.179 120.83 126.381L120.853 126.677C122.101 126.576 123.495 126.467 124.986 126.363L125.048 126.708L125.05 126.712Z" fill="#EFB06C"/>
<path d="M105.995 127.873C109.387 127.426 112.784 127.062 116.191 126.749C119.595 126.442 123.005 126.188 126.418 125.978C129.832 125.788 133.248 125.622 136.67 125.563C138.384 125.523 140.096 125.513 141.811 125.548C143.531 125.58 145.241 125.631 146.995 125.897L146.959 125.893C147.975 126.015 148.904 126.266 149.823 126.631C150.732 126.998 151.608 127.474 152.356 128.118C153.102 128.757 153.726 129.557 154.106 130.454C154.509 131.343 154.635 132.325 154.605 133.264C154.506 132.324 154.262 131.401 153.815 130.594C153.376 129.785 152.725 129.113 151.984 128.591C151.24 128.076 150.415 127.674 149.543 127.4C148.682 127.128 147.755 126.935 146.887 126.874L146.851 126.869C143.545 126.585 140.095 126.771 136.705 126.84C133.3 126.959 129.892 127.083 126.486 127.231L116.254 127.615C112.841 127.726 109.422 127.813 106.006 127.86L105.995 127.873Z" fill="#DD9247"/>
<path d="M204.023 131.107C193.198 132.289 190.449 141.847 190.449 141.847C190.046 142.046 189.636 142.207 189.202 142.336C185.933 143.333 170.824 147.916 168.853 148.36L168.788 148.325C175.69 144.521 192.096 136.125 192.096 136.125C193.318 135.5 193.547 134.477 193.547 134.477L192.799 132.337L191.264 130.545C191.479 130.715 191.691 130.895 191.88 131.098L191.846 130.343C193.912 129.666 200.569 127.82 204.027 131.101L204.023 131.107Z" fill="#EFB06C"/>
<path d="M143.175 131.95C143.369 133.414 143.65 135.572 143.822 136.958C143.926 137.797 144.59 138.461 145.452 138.584C146.593 138.743 148.416 138.825 150.993 138.445C152.132 138.277 153.122 137.556 153.539 136.513C154.069 135.182 154.323 133.134 152.773 130.635C152.228 129.752 151.247 129.192 150.182 129.155C148.986 129.111 147.14 129.225 144.616 129.883C143.669 130.128 143.045 131.009 143.169 131.947L143.175 131.95Z" fill="#FFEFDE"/>
<path d="M197.494 137.952C197.494 137.952 199.24 134.596 201.721 133.121C202.06 132.921 202.475 132.898 202.835 133.055C203.321 133.269 204.11 133.498 204.893 133.256C204.893 133.256 199.998 137.812 197.494 137.952Z" fill="#FFF4EB"/>
<path d="M194.263 134.564C194.267 134.627 194.27 134.686 194.266 134.742C194.254 134.934 194.195 135.106 194.134 135.218C194.008 135.465 193.867 135.626 193.729 135.766C193.447 136.038 193.165 136.246 192.877 136.431C192.311 136.802 191.72 137.091 191.135 137.364C190.545 137.638 189.955 137.862 189.404 138.115C188.842 138.366 188.285 138.635 187.737 138.917L185.448 140.102L185.003 139.925C185.097 139.504 185.239 139.11 185.419 138.743C186.927 135.627 191.134 134.203 192.705 133.767C193.081 133.661 193.306 133.614 193.306 133.614C193.306 133.614 193.753 134.049 194.263 134.564Z" fill="#FFEFDE"/>
<path d="M153.002 138.158C152.558 138.742 152.027 139.282 151.412 139.707C150.799 140.137 150.132 140.504 149.433 140.78C148.035 141.348 146.545 141.655 145.054 141.808L145.112 141.801C143.307 142.201 141.494 142.559 139.679 142.927C137.868 143.294 136.05 143.619 134.235 143.967C132.416 144.307 130.596 144.607 128.777 144.927C126.96 145.256 125.131 145.524 123.309 145.82L123.387 145.797C121.456 146.279 119.57 146.539 117.645 146.721C115.728 146.911 113.801 146.934 111.88 146.877C109.96 146.808 108.043 146.596 106.161 146.233L104.753 145.944L103.369 145.568C102.443 145.345 101.557 144.956 100.663 144.654C102.538 144.979 104.391 145.291 106.271 145.395C106.737 145.441 107.208 145.456 107.676 145.472C108.143 145.487 108.609 145.518 109.077 145.519C110.012 145.521 110.944 145.513 111.876 145.471C113.741 145.406 115.596 145.225 117.445 144.986C119.28 144.736 121.136 144.375 122.883 143.942L122.937 143.926L122.962 143.924C124.784 143.613 126.607 143.272 128.434 142.995C130.262 142.707 132.086 142.401 133.92 142.132C135.752 141.872 137.581 141.585 139.414 141.345C141.252 141.104 143.081 140.851 144.925 140.648L144.982 140.641C146.407 140.617 147.833 140.498 149.211 140.13C150.581 139.769 151.918 139.165 152.997 138.159L153.002 138.158Z" fill="#DD9247"/>
<path d="M193.058 131.55C192.481 130.692 191.672 130.006 190.777 129.521C188.968 128.565 186.964 128.378 185.067 128.452C183.159 128.524 181.293 128.888 179.482 129.37C177.672 129.871 175.898 130.461 174.182 131.197C175.984 130.718 177.784 130.25 179.612 129.943C181.431 129.623 183.267 129.407 185.082 129.427C185.99 129.437 186.887 129.514 187.756 129.694C188.622 129.865 189.457 130.15 190.192 130.569C191.427 131.262 192.282 132.421 192.705 133.767C192.791 134.04 192.859 134.318 192.909 134.606L192.944 134.676C192.916 134.714 192.861 134.78 192.799 134.838C192.629 135.003 192.404 135.169 192.161 135.32C191.671 135.629 191.139 135.916 190.583 136.17C190.039 136.431 189.456 136.663 188.866 136.937C188.284 137.204 187.712 137.487 187.145 137.789L185.419 138.743L180.54 141.44C178.348 142.666 176.165 143.908 173.987 145.165C171.823 146.452 169.64 147.694 167.497 149.02C169.786 147.969 172.034 146.847 174.302 145.758C176.558 144.647 178.804 143.52 181.045 142.374L185.448 140.101L187.737 138.917C188.285 138.635 188.842 138.366 189.404 138.115C189.956 137.862 190.545 137.638 191.135 137.364C191.721 137.091 192.311 136.802 192.877 136.43C193.166 136.246 193.447 136.038 193.73 135.766C193.867 135.625 194.008 135.464 194.134 135.218C194.195 135.106 194.254 134.934 194.267 134.742C194.27 134.686 194.267 134.627 194.264 134.563C194.258 134.51 194.246 134.454 194.23 134.399C194.209 134.346 194.187 134.288 194.154 134.228C193.961 133.291 193.613 132.365 193.058 131.55ZM193.011 134.85C192.998 134.824 192.986 134.798 192.979 134.775C192.972 134.752 192.967 134.734 192.966 134.714L193.111 134.969C193.02 134.882 193.036 134.882 193.011 134.85Z" fill="#DD9247"/>
<path d="M46.4092 124.753C46.3307 124.757 46.1425 127.546 45.8976 131.74C45.7694 133.961 45.6312 136.567 45.4817 139.37C45.3393 142.012 45.1971 144.823 45.0536 147.63C44.7866 152.874 44.5242 158.117 44.3152 162.231C44.0771 166.935 43.901 170.168 43.8578 170.241C43.8578 170.241 39.7054 170.287 34.5933 170.349L34.5887 169.863C34.5731 168.853 34.9221 160.393 35.3319 151.03C35.8633 139.106 36.5033 125.717 36.6434 124.343C41.851 124.537 46.1409 124.703 46.4078 124.749L46.4092 124.753Z" fill="#F25928"/>
<path d="M35.3289 151.036C34.9191 160.399 34.5656 168.86 34.5856 169.868L34.5903 170.354C26.4389 170.461 15.8625 170.604 15.8371 170.686C15.8371 170.686 16.1418 161.841 16.4773 151.824C16.9087 138.756 17.3999 123.706 17.3461 123.692C17.2955 123.673 28.1819 124.039 36.6417 124.353C36.5003 125.723 35.8603 139.111 35.3303 151.04L35.3289 151.036Z" fill="#9A1D00"/>
<g style="mix-blend-mode:multiply">
<path d="M45.0493 147.631C44.7823 152.875 44.5199 158.118 44.3109 162.232C44.0729 166.936 43.8967 170.169 43.8536 170.242C43.8536 170.242 39.7012 170.288 34.589 170.35C26.4377 170.456 15.8613 170.599 15.8358 170.682C15.8358 170.682 16.1406 161.837 16.476 151.82C16.7347 151.887 24.0424 153.885 35.3336 151.034C38.3169 150.28 41.5727 149.187 45.0552 147.634L45.0493 147.631Z" fill="#D4E6F2"/>
</g>
<path d="M73.2624 102.959C60.915 101.807 59.7053 100.655 57.9421 88.3764C56.7903 100.724 55.6376 101.933 43.3593 103.697C55.7067 104.849 56.9164 106.001 58.6796 118.28C59.8314 105.932 60.9841 104.722 73.2624 102.959Z" fill="#7858DD"/>
<path d="M48.5254 80.9752C42.6557 80.4293 42.0808 79.8792 41.2426 74.0449C40.6967 79.9146 40.1466 80.4895 34.3124 81.3277C40.182 81.8736 40.7569 82.4237 41.5951 88.258C42.141 82.3883 42.6911 81.8134 48.5254 80.9752Z" fill="#7858DD"/>
<path d="M66.9785 66.2975C61.1088 65.7516 60.534 65.2015 59.6958 59.3672C59.1498 65.2369 58.5997 65.8118 52.7655 66.6499C58.6352 67.1959 59.21 67.746 60.0482 73.5802C60.5941 67.7106 61.1442 67.1357 66.9785 66.2975Z" fill="#7858DD"/>
<path d="M35.2872 100.469C35.2406 98.5764 33.6711 97.0842 31.7783 97.1308C29.8855 97.1774 28.3933 98.7469 28.44 100.64C28.4866 102.532 30.0561 104.025 31.9488 103.978C33.8416 103.931 35.3338 102.362 35.2872 100.469Z" fill="#5C40B7"/>
<path d="M126.841 29.2645C116.823 28.2233 115.851 27.2809 114.525 17.2993C113.484 27.3174 112.542 28.2895 102.56 29.6157C112.578 30.6568 113.55 31.5992 114.876 41.5808C115.917 31.5627 116.86 30.5907 126.841 29.2645Z" fill="#7858DD"/>
<path d="M137.506 11.0659C132.746 10.5712 132.283 10.1213 131.653 5.38004C131.159 10.1401 130.709 10.6038 125.968 11.2331C130.728 11.7278 131.191 12.1777 131.821 16.919C132.315 12.1589 132.765 11.6952 137.506 11.0659Z" fill="#7858DD"/>
<path d="M140.509 36.4009C135.749 35.9062 135.285 35.4563 134.656 30.715C134.161 35.4751 133.711 35.9387 128.97 36.5681C133.73 37.0628 134.194 37.5127 134.823 42.2539C135.318 37.4939 135.768 37.0302 140.509 36.4009Z" fill="#7858DD"/>
<path d="M147.972 19.0945C147.952 17.5572 146.687 16.3317 145.154 16.3523C143.616 16.373 142.391 17.6379 142.411 19.1711C142.432 20.7044 143.697 21.9339 145.23 21.9133C146.767 21.8926 147.993 20.6277 147.972 19.0945Z" fill="#5C40B7"/>
</g>
</g>
<defs>
<clipPath id="clip0_1614_4911">
<rect width="279.124" height="182.17" fill="white" transform="translate(-28.9995 19.2344) rotate(-16.4911)"/>
</clipPath>
</defs>
</svg>
