<svg width="150" height="136" viewBox="0 0 150 136" fill="none" xmlns="http://www.w3.org/2000/svg">
<ellipse cx="76.9231" cy="72.5752" rx="63.0769" ry="63.4249" fill="#F6EDFF"/>
<path d="M126.788 51.4851C127.134 51.7379 127.457 52.0189 127.768 52.312C128.079 52.6039 128.376 52.9132 128.663 53.2299C129.234 53.8659 129.761 54.5449 130.242 55.2556C130.723 55.9673 131.154 56.7141 131.537 57.4873C131.632 57.6807 131.726 57.8753 131.813 58.073L132.07 58.6681C132.227 59.0716 132.382 59.4755 132.514 59.8883L132.614 60.1975C132.646 60.3013 132.673 60.4061 132.703 60.5104C132.758 60.7197 132.822 60.9275 132.872 61.139L133.011 61.7758C133.056 61.988 133.088 62.2035 133.123 62.4175C133.255 63.2761 133.33 64.145 133.302 65.0141L133.296 65.3386C133.295 65.4465 133.281 65.555 133.274 65.663C133.256 65.8788 133.24 66.0944 133.219 66.31C133.188 66.5242 133.157 66.7387 133.122 66.9517L133.069 67.2702L132.998 67.5859C132.948 67.7961 132.903 68.0053 132.848 68.2124C132.783 68.4182 132.721 68.6237 132.654 68.8272C132.619 68.9286 132.59 69.031 132.552 69.1312L132.43 69.4291C132.345 69.6261 132.265 69.8231 132.175 70.0161C132.185 69.8017 132.205 69.5914 132.219 69.381L132.247 69.0671L132.261 68.7529C132.269 68.5437 132.282 68.3365 132.293 68.1297L132.298 67.5084L132.303 67.2006L132.293 66.8918L132.276 66.2783C132.24 65.8703 132.23 65.4644 132.175 65.0607C132.14 64.6565 132.073 64.256 132.016 63.8566C131.987 63.6571 131.94 63.4588 131.907 63.2598L131.853 62.9619L131.786 62.6664C131.738 62.4703 131.704 62.2715 131.652 62.0761L131.499 61.4904C131.449 61.2946 131.387 61.1019 131.332 60.907C131.303 60.8104 131.277 60.7122 131.246 60.6168L131.15 60.3285C131.034 59.9409 130.89 59.5613 130.752 59.1804L130.533 58.6114L130.301 58.0469C129.985 57.2965 129.639 56.5545 129.27 55.8205C128.53 54.3512 127.701 52.9164 126.787 51.4844L126.788 51.4851Z" fill="#7858DD"/>
<path d="M131.021 45.6272C131.491 46.0157 131.927 46.4426 132.343 46.8857C132.762 47.3271 133.157 47.7919 133.539 48.2665C134.298 49.2191 134.989 50.2291 135.612 51.2803C136.236 52.3329 136.787 53.4313 137.265 54.563C137.384 54.8461 137.501 55.1307 137.609 55.4192L137.923 56.2871C138.113 56.874 138.298 57.4615 138.452 58.0597L138.567 58.5076C138.604 58.658 138.634 58.8093 138.667 58.9601C138.729 59.2625 138.802 59.5633 138.854 59.8681L138.998 60.7854C139.045 61.0909 139.073 61.4 139.104 61.7073C139.219 62.9393 139.252 64.1811 139.139 65.4146L139.103 65.8754C139.092 66.0288 139.062 66.1818 139.044 66.3348C139.001 66.6402 138.959 66.9454 138.91 67.25C138.849 67.5521 138.786 67.8544 138.719 68.1544L138.616 68.6027L138.489 69.0457C138.4 69.3403 138.318 69.6338 138.222 69.9237C138.113 70.2109 138.008 70.4978 137.894 70.7815C137.837 70.9228 137.787 71.0659 137.724 71.2051L137.526 71.6183C137.388 71.8913 137.258 72.1647 137.114 72.4316C137.146 72.1275 137.191 71.8301 137.23 71.5321L137.296 71.0883L137.343 70.6427C137.372 70.3459 137.408 70.0523 137.44 69.7593L137.5 68.8762L137.534 68.439L137.545 67.999L137.573 67.1253C137.557 66.5421 137.576 65.9641 137.532 65.3855C137.516 64.8078 137.455 64.2327 137.408 63.66C137.383 63.3738 137.333 63.0879 137.304 62.8023L137.252 62.3741L137.181 61.9482C137.129 61.6653 137.099 61.3798 137.041 61.0975L136.873 60.2517C136.818 59.9692 136.747 59.6899 136.685 59.4082C136.652 59.2683 136.624 59.1265 136.588 58.9883L136.475 58.5702C136.342 58.0092 136.169 57.4572 136.006 56.9041L135.743 56.0766L135.46 55.2542C135.075 54.1605 134.646 53.0762 134.183 52.0014C133.254 49.8496 132.197 47.7394 131.019 45.626L131.021 45.6272Z" fill="#7858DD"/>
<g clip-path="url(#clip0_1936_5528)">
<path d="M117.598 47.8435L62.4331 64.2764L72.8453 99.3999L128.011 82.9671L117.598 47.8435Z" fill="#0FE3A9"/>
<path d="M90.0079 56.064L62.4292 64.2793L72.8414 99.4028L100.42 91.1876L90.0079 56.064Z" fill="#0CBA8A"/>
<path d="M92.9918 55.1873L86.2803 57.1865L88.9395 66.1569L95.651 64.1576L92.9918 55.1873Z" fill="#09926C"/>
<path d="M100.303 79.8398L93.5908 81.8379L96.6906 92.3013L103.402 90.3032L100.303 79.8398Z" fill="#09926C"/>
<path d="M96.9062 25.6132L53.8154 38.4492L61.9483 65.8839L105.039 53.0478L96.9062 25.6132Z" fill="#0FE3A9"/>
<path d="M75.3574 32.0273L53.812 38.4453L61.9449 65.88L83.4903 59.4619L75.3574 32.0273Z" fill="#0CBA8A"/>
<path d="M77.6882 31.3487L72.4497 32.9082L74.524 39.9098L79.7625 38.3504L77.6882 31.3487Z" fill="#09926C"/>
<path d="M83.3938 50.5987L78.1553 52.1582L80.5768 60.332L85.8153 58.7725L83.3938 50.5987Z" fill="#09926C"/>
<path d="M53.894 49.7734V98.6832" stroke="#8F9498" stroke-width="7" stroke-linecap="round" stroke-linejoin="round"/>
<path d="M46.7217 19.9629C53.9997 47.5072 63.327 74.7988 71.1093 102.082C86.6656 97.4033 102.994 93.5068 118.551 88.8278" stroke="#B3B3B4" stroke-width="8.87" stroke-linecap="round" stroke-linejoin="round"/>
<path d="M22.8872 5.41242C38.4435 0.350262 44.0139 8.57525 47.0064 21.0472" stroke="#7858DD" stroke-width="9.56" stroke-linecap="round" stroke-linejoin="round"/>
<path d="M47.0063 104.422C47.0063 95.8137 53.9673 88.8359 62.5464 88.8359C71.1256 88.8359 78.0946 95.8137 78.0946 104.422C78.0946 113.03 71.1337 120.008 62.5464 120.008C53.9591 120.008 47.0063 113.03 47.0063 104.422Z" fill="#454C53"/>
<path d="M53.7476 104.422C53.7476 99.5473 57.6915 95.5938 62.5544 95.5938C67.4173 95.5938 71.3613 99.5473 71.3613 104.422C71.3613 109.297 67.4173 113.25 62.5544 113.25C57.6915 113.25 53.7476 109.297 53.7476 104.422Z" fill="#A9A9B2"/>
<path d="M56.3418 104.422C56.3418 100.982 59.1229 98.1943 62.5546 98.1943C65.9862 98.1943 68.7673 100.982 68.7673 104.422C68.7673 107.862 65.9862 110.65 62.5546 110.65C59.1229 110.65 56.3418 107.862 56.3418 104.422Z" fill="#C6C6CB"/>
</g>
<defs>
<clipPath id="clip0_1936_5528">
<rect width="109" height="120" fill="white" transform="translate(19)"/>
</clipPath>
</defs>
</svg>
