<svg width="24" height="24" viewBox="0 0 24 24" fill="none" xmlns="http://www.w3.org/2000/svg">
<path d="M21.8571 13.6429H13.6429V21.8571C13.6429 22.2929 13.4698 22.7107 13.1617 23.0188C12.8536 23.3269 12.4357 23.5 12 23.5C11.5643 23.5 11.1464 23.3269 10.8383 23.0188C10.5302 22.7107 10.3571 22.2929 10.3571 21.8571V13.6429H2.14286C1.70714 13.6429 1.28928 13.4698 0.981182 13.1617C0.673087 12.8536 0.5 12.4357 0.5 12C0.5 11.5643 0.673087 11.1464 0.981182 10.8383C1.28928 10.5302 1.70714 10.3571 2.14286 10.3571H10.3571V2.14286C10.3571 1.70714 10.5302 1.28928 10.8383 0.981181C11.1464 0.673086 11.5643 0.5 12 0.5C12.4357 0.5 12.8536 0.673086 13.1617 0.981181C13.4698 1.28928 13.6429 1.70714 13.6429 2.14286V10.3571H21.8571C22.2929 10.3571 22.7107 10.5302 23.0188 10.8383C23.3269 11.1464 23.5 11.5643 23.5 12C23.5 12.4357 23.3269 12.8536 23.0188 13.1617C22.7107 13.4698 22.2929 13.6429 21.8571 13.6429Z" fill="#7858DD"/>
</svg>
