<svg width="195" height="173" viewBox="0 0 195 173" fill="none" xmlns="http://www.w3.org/2000/svg">
<ellipse cx="100" cy="90.5" rx="82" ry="82.5" fill="#F6EDFF"/>
<path d="M105.696 155.222C98.0603 154.509 97.3123 153.797 96.222 146.204C95.5097 153.839 94.7969 154.587 87.2043 155.678C94.8397 156.39 95.5877 157.103 96.678 164.695C97.3903 157.06 98.1031 156.312 105.696 155.222Z" fill="#7858DD"/>
<path d="M86.9045 151.378C82.4511 150.963 82.0148 150.547 81.3788 146.119C80.9634 150.572 80.5476 151.008 76.1192 151.644C80.5726 152.06 81.0089 152.476 81.6448 156.904C82.0603 152.451 82.476 152.014 86.9045 151.378Z" fill="#7858DD"/>
<path d="M117.904 151.378C113.451 150.963 113.015 150.547 112.379 146.119C111.963 150.572 111.548 151.008 107.119 151.644C111.573 152.06 112.009 152.476 112.645 156.904C113.06 152.451 113.476 152.014 117.904 151.378Z" fill="#7858DD"/>
<g clip-path="url(#clip0_1961_5747)">
<path d="M127.554 28.3797L92.0029 111.75L159.454 141.004L195.005 57.6335L127.554 28.3797Z" fill="#FAFAF9"/>
<path d="M178.063 67.8235C177.931 68.1356 177.525 68.2648 177.166 68.1069L132.277 48.6397C131.918 48.4854 131.733 48.1015 131.865 47.7894C131.996 47.4772 132.402 47.3481 132.761 47.5059L177.65 66.9732C178.009 67.1275 178.194 67.5114 178.063 67.8235Z" fill="#ECECF0"/>
<path d="M161.349 63.0229C161.218 63.335 160.812 63.4642 160.453 63.3063L131.395 50.7061C131.036 50.5518 130.851 50.1679 130.982 49.8558C131.114 49.5436 131.52 49.4145 131.879 49.5723L160.937 62.1726C161.296 62.3269 161.481 62.7108 161.349 63.0229Z" fill="#ECECF0"/>
<path d="M153.188 61.9715C153.057 62.2836 152.651 62.4128 152.292 62.2549L130.502 52.8047C130.143 52.6504 129.958 52.2665 130.09 51.9544C130.221 51.6423 130.627 51.5131 130.986 51.671L152.776 61.1212C153.135 61.2754 153.32 61.6593 153.188 61.9715Z" fill="#ECECF0"/>
<path d="M173.701 78.0452C173.569 78.3573 173.164 78.4865 172.805 78.3286L127.916 58.8614C127.556 58.7071 127.371 58.3232 127.503 58.0111C127.635 57.6989 128.04 57.5698 128.4 57.7276L173.288 77.1949C173.648 77.3492 173.833 77.733 173.701 78.0452Z" fill="#ECECF0"/>
<path d="M156.988 73.2446C156.856 73.5567 156.451 73.6859 156.091 73.528L127.034 60.9278C126.674 60.7735 126.489 60.3896 126.621 60.0775C126.753 59.7653 127.158 59.6362 127.518 59.794L156.575 72.3943C156.935 72.5486 157.12 72.9325 156.988 73.2446Z" fill="#ECECF0"/>
<path d="M148.827 72.1932C148.695 72.5053 148.29 72.6345 147.93 72.4766L126.141 63.0264C125.781 62.8721 125.596 62.4882 125.728 62.1761C125.86 61.864 126.265 61.7348 126.624 61.8927L148.414 71.3429C148.774 71.4971 148.959 71.881 148.827 72.1932Z" fill="#ECECF0"/>
<path d="M168.642 89.9133C168.511 90.2255 168.105 90.3546 167.746 90.1968L122.857 70.7295C122.498 70.5752 122.313 70.1914 122.444 69.8792C122.576 69.5671 122.981 69.4379 123.341 69.5958L168.23 89.063C168.589 89.2173 168.774 89.6012 168.642 89.9133Z" fill="#ECECF0"/>
<path d="M151.929 85.1128C151.798 85.4249 151.392 85.554 151.033 85.3962L121.975 72.7959C121.616 72.6417 121.431 72.2578 121.562 71.9456C121.694 71.6335 122.099 71.5043 122.459 71.6622L151.516 84.2624C151.876 84.4167 152.061 84.8006 151.929 85.1128Z" fill="#ECECF0"/>
<path d="M143.768 84.0613C143.636 84.3735 143.231 84.5026 142.872 84.3448L121.082 74.8946C120.722 74.7403 120.537 74.3564 120.669 74.0443C120.801 73.7321 121.206 73.603 121.566 73.7608L143.355 83.211C143.715 83.3653 143.9 83.7492 143.768 84.0613Z" fill="#ECECF0"/>
<path d="M157.621 115.76C157.49 116.072 157.084 116.201 156.725 116.043L111.836 96.5762C111.477 96.4219 111.292 96.038 111.423 95.7259C111.555 95.4138 111.96 95.2846 112.32 95.4425L157.209 114.91C157.568 115.064 157.753 115.448 157.621 115.76Z" fill="#ECECF0"/>
<path d="M140.908 110.962C140.776 111.274 140.371 111.404 140.011 111.246L110.954 98.6455C110.594 98.4913 110.409 98.1074 110.541 97.7952C110.673 97.4831 111.078 97.3539 111.437 97.5118L140.495 110.112C140.855 110.266 141.04 110.65 140.908 110.962Z" fill="#ECECF0"/>
<path d="M132.747 109.912C132.615 110.224 132.21 110.353 131.85 110.195L110.061 100.745C109.701 100.591 109.516 100.207 109.648 99.8948C109.78 99.5827 110.185 99.4535 110.544 99.6114L132.334 109.062C132.693 109.216 132.878 109.6 132.747 109.912Z" fill="#ECECF0"/>
<path d="M164.324 100.041C164.192 100.353 163.786 100.483 163.427 100.325L118.538 80.8575C118.179 80.7032 117.994 80.3193 118.126 80.0071C118.257 79.695 118.663 79.5659 119.022 79.7237L163.911 99.191C164.27 99.3452 164.455 99.7291 164.324 100.041Z" fill="#ECECF0"/>
<path d="M147.61 95.2446C147.479 95.5567 147.073 95.6859 146.714 95.528L117.656 82.9278C117.297 82.7735 117.112 82.3896 117.243 82.0775C117.375 81.7653 117.781 81.6362 118.14 81.794L147.198 94.3943C147.557 94.5486 147.742 94.9324 147.61 95.2446Z" fill="#ECECF0"/>
<path d="M144.828 101.764C144.697 102.076 144.291 102.205 143.932 102.048L114.874 89.4473C114.515 89.293 114.33 88.9091 114.461 88.597C114.593 88.2849 114.999 88.1557 115.358 88.3136L144.416 100.914C144.775 101.068 144.96 101.452 144.828 101.764Z" fill="#ECECF0"/>
<path d="M139.449 94.1932C139.318 94.5053 138.912 94.6344 138.553 94.4766L116.763 85.0264C116.404 84.8721 116.219 84.4882 116.35 84.1761C116.482 83.864 116.887 83.7348 117.247 83.8927L139.037 93.3428C139.396 93.4971 139.581 93.881 139.449 94.1932Z" fill="#ECECF0"/>
<path d="M134.565 94.6888C134.433 95.0009 134.028 95.1301 133.668 94.9722L115.82 87.2334C115.461 87.0791 115.276 86.6953 115.408 86.3831C115.539 86.071 115.945 85.9418 116.304 86.0997L134.152 93.8385C134.512 93.9928 134.697 94.3767 134.565 94.6888Z" fill="#ECECF0"/>
<path d="M171.883 73.4597C171.848 73.4597 171.809 73.4525 171.777 73.4382C171.702 73.4059 171.645 73.3377 171.627 73.2552L170.845 69.9508C170.813 69.8217 170.88 69.6889 171.001 69.6387C171.033 69.6244 171.069 69.6172 171.101 69.6172C171.193 69.6172 171.279 69.6638 171.328 69.7463L172.485 71.6622L176.743 70.2128C176.771 70.202 176.8 70.1984 176.828 70.1984C176.931 70.1984 177.028 70.2594 177.074 70.3599C177.131 70.489 177.077 70.6361 176.956 70.7043L172.011 73.4238C171.972 73.4453 171.926 73.4561 171.883 73.4561V73.4597Z" fill="#7858DD"/>
<path d="M171.101 69.8858L172.367 71.9883L176.828 70.4706L171.883 73.1902L171.101 69.8858ZM171.101 69.3477C171.033 69.3477 170.965 69.362 170.898 69.3871C170.656 69.4876 170.521 69.7531 170.581 70.0114L171.364 73.3157C171.403 73.4772 171.513 73.6135 171.666 73.6817C171.734 73.714 171.809 73.7283 171.883 73.7283C171.972 73.7283 172.061 73.7068 172.139 73.6637L177.07 70.9514C177.244 70.8617 177.362 70.6823 177.362 70.4706C177.362 70.1836 177.138 69.9468 176.853 69.9325C176.842 69.9325 176.835 69.9325 176.825 69.9325C176.8 69.9325 176.771 69.9325 176.746 69.9396C176.711 69.9432 176.675 69.954 176.643 69.9648L172.602 71.3425L171.556 69.6096C171.456 69.4445 171.282 69.3512 171.101 69.3512V69.3477Z" fill="#7858DD"/>
<path d="M151.758 120.66C151.723 120.66 151.684 120.653 151.652 120.639C151.577 120.606 151.52 120.538 151.502 120.456L150.72 117.155C150.688 117.026 150.755 116.893 150.876 116.843C150.908 116.828 150.944 116.821 150.976 116.821C151.068 116.821 151.154 116.868 151.203 116.95L152.36 118.866L156.618 117.417C156.646 117.406 156.675 117.403 156.703 117.403C156.807 117.403 156.903 117.464 156.949 117.564C157.006 117.693 156.952 117.84 156.831 117.908L151.886 120.628C151.847 120.649 151.801 120.66 151.758 120.66Z" fill="#7858DD"/>
<path d="M150.976 117.087L152.242 119.189L156.703 117.672L151.758 120.391L150.976 117.087ZM150.976 116.549C150.908 116.549 150.84 116.563 150.773 116.588C150.531 116.689 150.396 116.954 150.456 117.213L151.239 120.517C151.278 120.678 151.388 120.815 151.541 120.883C151.609 120.915 151.684 120.93 151.758 120.93C151.847 120.93 151.936 120.908 152.014 120.865L156.945 118.153C157.119 118.063 157.237 117.883 157.237 117.672C157.237 117.385 157.013 117.148 156.728 117.134C156.717 117.134 156.71 117.134 156.7 117.134C156.675 117.134 156.646 117.134 156.621 117.141C156.586 117.144 156.55 117.155 156.518 117.166L152.477 118.544L151.431 116.811C151.331 116.646 151.157 116.552 150.976 116.552V116.549Z" fill="#7858DD"/>
<path d="M162.207 96.156C162.171 96.156 162.132 96.1488 162.1 96.1345C162.025 96.1022 161.969 96.034 161.951 95.9515L161.168 92.6471C161.136 92.518 161.204 92.3852 161.325 92.335C161.357 92.3207 161.392 92.3135 161.424 92.3135C161.517 92.3135 161.602 92.3601 161.652 92.4426L162.808 94.3585L167.066 92.909C167.095 92.8983 167.123 92.8947 167.152 92.8947C167.255 92.8947 167.351 92.9557 167.397 93.0561C167.454 93.1853 167.401 93.3324 167.28 93.4006L162.335 96.1201C162.296 96.1416 162.25 96.1524 162.207 96.1524V96.156Z" fill="#7858DD"/>
<path d="M161.424 92.5821L162.691 94.6845L167.152 93.1669L162.207 95.8865L161.424 92.5821ZM161.424 92.0439C161.357 92.0439 161.289 92.0583 161.221 92.0834C160.979 92.1839 160.844 92.4494 160.905 92.7077L161.687 96.012C161.727 96.1735 161.837 96.3098 161.99 96.378C162.057 96.4103 162.132 96.4246 162.207 96.4246C162.296 96.4246 162.385 96.4031 162.463 96.36L167.394 93.6477C167.568 93.558 167.685 93.3786 167.685 93.1669C167.685 92.8799 167.461 92.6431 167.177 92.6288C167.166 92.6288 167.159 92.6288 167.148 92.6288C167.123 92.6288 167.095 92.6288 167.07 92.6359C167.034 92.6395 166.999 92.6503 166.967 92.661L162.925 94.0387L161.88 92.3059C161.78 92.1408 161.606 92.0475 161.424 92.0475V92.0439Z" fill="#7858DD"/>
<path d="M127.575 22.4307H42.0163C40.2814 22.4307 38.875 23.849 38.875 25.5987V137.268C38.875 139.018 40.2814 140.436 42.0163 140.436H127.575C129.309 140.436 130.716 139.018 130.716 137.268V25.5987C130.716 23.849 129.309 22.4307 127.575 22.4307Z" fill="#096E52"/>
<path d="M130.716 133.368C130.716 135.058 129.311 136.429 127.574 136.429H42.0126C40.2801 136.429 38.8713 135.058 38.8713 133.368V25.491C38.8713 23.8012 40.2766 22.4307 42.0126 22.4307H127.571C129.303 22.4307 130.712 23.8012 130.712 25.491V133.368H130.716Z" fill="#0FE3A9"/>
<path d="M125.383 28.8066H44.2075V129.135H125.383V28.8066Z" fill="#FAFAF9"/>
<path d="M110.644 23.4246C110.644 20.8342 108.563 18.7354 105.995 18.7354H63.5925C61.024 18.7354 58.9429 20.8342 58.9429 23.4246V31.6765H110.644V23.4246Z" fill="#B4B3B3"/>
<path d="M90.6008 25.5721C92.9591 22.338 92.2711 17.7882 89.0643 15.4099C85.8574 13.0316 81.346 13.7254 78.9878 16.9595C76.6295 20.1937 77.3174 24.7434 80.5243 27.1217C83.7311 29.5 88.2425 28.8063 90.6008 25.5721Z" fill="#B4B3B3"/>
<path d="M87.001 19.0405C87.001 20.2711 86.012 21.2685 84.7917 21.2685C83.5715 21.2685 82.5825 20.2711 82.5825 19.0405C82.5825 17.8099 83.5715 16.8125 84.7917 16.8125C86.012 16.8125 87.001 17.8099 87.001 19.0405Z" fill="#EDEFC7"/>
<path d="M110.644 25.9326H58.9429V31.6766H110.644V25.9326Z" fill="#D2D2D2"/>
<path d="M111.196 50.5518C111.196 50.9285 110.875 51.2335 110.484 51.2335H56.3138C55.9225 51.2335 55.6023 50.9249 55.6023 50.5518C55.6023 50.1787 55.9225 49.8701 56.3138 49.8701H110.484C110.875 49.8701 111.196 50.1787 111.196 50.5518Z" fill="#ECECF0"/>
<path d="M92.1452 53.0381C92.1452 53.4148 91.825 53.7198 91.4337 53.7198H56.3175C55.9261 53.7198 55.606 53.4112 55.606 53.0381C55.606 52.665 55.9261 52.3564 56.3175 52.3564H91.4337C91.825 52.3564 92.1452 52.665 92.1452 53.0381Z" fill="#ECECF0"/>
<path d="M83.4007 55.5674C83.4007 55.9441 83.0806 56.2491 82.6892 56.2491H56.3138C55.9225 56.2491 55.6023 55.9405 55.6023 55.5674C55.6023 55.1943 55.9225 54.8857 56.3138 54.8857H82.6892C83.0806 54.8857 83.4007 55.1943 83.4007 55.5674Z" fill="#ECECF0"/>
<path d="M110.865 66.7109H68.1356C67.7426 66.7109 67.4241 67.0322 67.4241 67.4285V68.1102C67.4241 68.5065 67.7426 68.8277 68.1356 68.8277H110.865C111.258 68.8277 111.576 68.5065 111.576 68.1102V67.4285C111.576 67.0322 111.258 66.7109 110.865 66.7109Z" fill="#ECECF0"/>
<path d="M110.865 77.3701H68.1356C67.7426 77.3701 67.4241 77.6914 67.4241 78.0877V78.7693C67.4241 79.1656 67.7426 79.4869 68.1356 79.4869H110.865C111.258 79.4869 111.576 79.1656 111.576 78.7693V78.0877C111.576 77.6914 111.258 77.3701 110.865 77.3701Z" fill="#ECECF0"/>
<path d="M110.865 88.2197H68.1356C67.7426 88.2197 67.4241 88.541 67.4241 88.9373V89.619C67.4241 90.0153 67.7426 90.3365 68.1356 90.3365H110.865C111.258 90.3365 111.576 90.0153 111.576 89.619V88.9373C111.576 88.541 111.258 88.2197 110.865 88.2197Z" fill="#ECECF0"/>
<path d="M110.865 98.3408H68.1356C67.7426 98.3408 67.4241 98.6621 67.4241 99.0584V99.74C67.4241 100.136 67.7426 100.458 68.1356 100.458H110.865C111.258 100.458 111.576 100.136 111.576 99.74V99.0584C111.576 98.6621 111.258 98.3408 110.865 98.3408Z" fill="#ECECF0"/>
<path d="M63.0268 63.9447V70.5857H56.4419V63.9447H63.0268ZM63.8628 63.1016H55.6023V71.4324H63.8628V63.1016Z" fill="#ECECF0"/>
<path d="M63.0268 74.7445V81.3855H56.4419V74.7445H63.0268ZM63.8628 73.9014H55.6023V82.2322H63.8628V73.9014Z" fill="#ECECF0"/>
<path d="M63.0268 85.5326V92.1735H56.4419V85.5326H63.0268ZM63.8628 84.6895H55.6023V93.0203H63.8628V84.6895Z" fill="#ECECF0"/>
<path d="M63.0268 96.4574V103.098H56.4419V96.4574H63.0268ZM63.8628 95.6143H55.6023V103.945H63.8628V95.6143Z" fill="#ECECF0"/>
<path d="M59.7681 69.5465C59.6863 69.5465 59.608 69.507 59.5582 69.4388L56.8367 65.7542C56.7584 65.6465 56.7691 65.4994 56.8616 65.4062C56.915 65.3523 56.9826 65.3236 57.0537 65.3236C57.1071 65.3236 57.1604 65.3416 57.2067 65.3739L59.7218 67.1785L64.3004 63.0311C64.3502 62.9844 64.4142 62.9629 64.4782 62.9629C64.5423 62.9629 64.6099 62.988 64.6597 63.0346C64.7593 63.1315 64.7735 63.2858 64.6881 63.397L59.9851 69.446C59.9353 69.5106 59.857 69.55 59.7752 69.55L59.7681 69.5465Z" fill="#7858DD"/>
<path d="M64.4784 63.2279L59.7753 69.2769L57.0538 65.5923L59.7433 67.5225L64.4819 63.2315M64.4819 62.6934C64.4819 62.6934 64.4748 62.6934 64.4713 62.6934C64.3396 62.6934 64.2151 62.7472 64.1262 62.8333L59.7077 66.8372L57.3669 65.1582C57.2744 65.09 57.1641 65.0577 57.0574 65.0577C56.9186 65.0577 56.7799 65.1115 56.6767 65.2191C56.4917 65.4093 56.474 65.7035 56.6305 65.9188L59.352 69.6034C59.4516 69.7362 59.6081 69.8187 59.7718 69.8187C59.7718 69.8187 59.7753 69.8187 59.7789 69.8187C59.9425 69.8187 60.0991 69.7433 60.1987 69.6142L64.891 63.5831C64.9693 63.4898 65.0191 63.3679 65.0191 63.2351C65.0191 62.9373 64.7808 62.6969 64.4855 62.6969L64.4819 62.6934Z" fill="#7858DD"/>
<path d="M59.7681 79.4986C59.6863 79.4986 59.608 79.4591 59.5582 79.391L56.8367 75.7063C56.7584 75.5987 56.7691 75.4516 56.8616 75.3583C56.915 75.3045 56.9826 75.2758 57.0537 75.2758C57.1071 75.2758 57.1604 75.2937 57.2067 75.326L59.7218 77.1307L64.3004 72.9832C64.3502 72.9366 64.4142 72.915 64.4782 72.915C64.5423 72.915 64.6099 72.9402 64.6597 72.9868C64.7593 73.0837 64.7735 73.2379 64.6881 73.3492L59.9851 79.3981C59.9353 79.4627 59.857 79.5022 59.7752 79.5022L59.7681 79.4986Z" fill="#7858DD"/>
<path d="M64.4784 73.184L59.7753 79.233L57.0538 75.5483L59.7433 77.4786L64.4819 73.1876M64.4819 72.6494H64.4784C64.3432 72.6494 64.2187 72.7032 64.1262 72.7893L59.7077 76.7933L57.3669 75.1142C57.2744 75.046 57.1641 75.0138 57.0574 75.0138C56.9186 75.0138 56.7799 75.0676 56.6767 75.1752C56.4917 75.3654 56.474 75.6596 56.6305 75.8748L59.352 79.5595C59.4516 79.6922 59.6081 79.7747 59.7718 79.7747C59.7718 79.7747 59.7753 79.7747 59.7789 79.7747C59.9425 79.7747 60.0991 79.6994 60.1987 79.5702L64.891 73.5392C64.9693 73.4459 65.0191 73.3239 65.0191 73.1912C65.0191 72.8934 64.7808 72.653 64.4855 72.653L64.4819 72.6494Z" fill="#7858DD"/>
<path d="M44.2075 104.52V129.024H56.0256C55.5062 129.024 44.919 116.829 44.2075 104.52Z" fill="#DDDDE0"/>
<path d="M57.5375 117.435C54.0334 116.38 51.4471 114.909 49.5367 113.284C45.0364 109.456 44.3036 104.788 44.2075 102.818V104.419C44.919 116.732 55.5062 129.027 56.0256 129.023C55.4813 128.385 55.2394 127.495 55.2145 126.562C55.1504 124.291 56.3529 121.188 57.5375 117.435Z" fill="#ECECF0"/>
<path d="M16.5693 38.2857C15.4166 36.3053 16.0712 33.7544 18.0385 32.5919C20.0023 31.4295 22.5317 32.0896 23.6843 34.0737L27.7861 41.1129C28.9388 43.0934 28.2842 45.6443 26.3169 46.8067C24.3531 47.9691 21.8237 47.309 20.6711 45.3249L16.5693 38.2857Z" fill="#FAFAF9"/>
<path d="M24.458 35.3412L17.2893 39.5879L19.2929 43.0279L26.4616 38.7812L24.458 35.3412Z" fill="#D2D2D2"/>
<path d="M57.2104 91.417L50.042 95.6649L59.5939 103.881L57.2104 91.417Z" fill="#FDFFFE"/>
<path d="M59.7326 104.039L58.9855 100.132L56.7407 101.463L59.7326 104.039Z" fill="#543823"/>
<path d="M26.4588 38.7729L19.2922 43.0303L50.043 95.6787L57.2096 91.4214L26.4588 38.7729Z" fill="#0FE3A9"/>
<path d="M24.4449 39.9685L21.303 41.835L52.0538 94.4834L55.1956 92.617L24.4449 39.9685Z" fill="#0FB689"/>
<path d="M49.8546 103.268C49.8546 103.268 49.8435 103.264 49.8286 103.253L49.8546 103.268Z" fill="#ECECF0"/>
</g>
<defs>
<clipPath id="clip0_1961_5747">
<rect width="179" height="127" fill="white" transform="translate(16 14)"/>
</clipPath>
</defs>
</svg>
