<svg width="134" height="144" viewBox="0 0 134 144" fill="none" xmlns="http://www.w3.org/2000/svg">
<ellipse cx="70.9231" cy="80.5752" rx="63.0769" ry="63.4249" fill="#F6EDFF"/>
<g clip-path="url(#clip0_1936_5551)">
<path d="M102.62 0.151367H43.1312C40.2445 0.151367 37.9043 2.49253 37.9043 5.38049V114.771C37.9043 117.659 40.2445 120 43.1312 120H102.62C105.507 120 107.847 117.659 107.847 114.771V5.38049C107.847 2.49253 105.507 0.151367 102.62 0.151367Z" fill="#0FE3A9"/>
<path d="M107.848 5.38086H103.042V6.11208H107.848V5.38086Z" fill="#09926C"/>
<path d="M107.848 114.04H103.042V114.771H107.848V114.04Z" fill="#09926C"/>
<g style="mix-blend-mode:soft-light" opacity="0.17">
<path d="M107.848 26.7227V32.5439L95.7222 48.2027V42.3886L107.848 26.7227Z" fill="white"/>
<path d="M107.848 34.3232V35.8071L95.7222 51.4624V49.9785L107.848 34.3232Z" fill="white"/>
<path d="M107.848 72.4395V81.5708L95.7222 97.2297V88.0983L107.848 72.4395Z" fill="white"/>
<path d="M107.848 86.457V87.9409L98.6528 99.8116H97.5083L107.848 86.457Z" fill="white"/>
</g>
<path d="M98.6703 0.151367H39.181C36.2943 0.151367 33.9541 2.49253 33.9541 5.38049V114.771C33.9541 117.659 36.2943 120 39.181 120H98.6703C101.557 120 103.897 117.659 103.897 114.771V5.38049C103.897 2.49253 101.557 0.151367 98.6703 0.151367Z" fill="#0A805F"/>
<path d="M63.5617 4.38867H74.2865C75.0852 4.38867 75.7305 5.03785 75.7305 5.83328C75.7305 6.63227 75.0816 7.27789 74.2865 7.27789H63.5617C62.763 7.27789 62.1177 6.62871 62.1177 5.83328C62.1177 5.03429 62.7666 4.38867 63.5617 4.38867Z" fill="#0FE3A9"/>
<path d="M68.9241 118.128C71.0271 118.128 72.732 116.422 72.732 114.318C72.732 112.214 71.0271 110.509 68.9241 110.509C66.8211 110.509 65.1162 112.214 65.1162 114.318C65.1162 116.422 66.8211 118.128 68.9241 118.128Z" fill="#0FE3A9"/>
<path d="M99.0911 11.5156V99.8793C99.0911 104.716 95.1727 108.64 90.3344 108.64H38.7568V11.5156H99.0876H99.0911Z" fill="#FAFAFA"/>
<path d="M90.3343 108.636C85.4996 108.636 81.5776 104.712 81.5776 99.8756V91.1152H30V99.8756C30 104.712 33.9184 108.636 38.7567 108.636H90.3343Z" fill="#E0E0E0"/>
<path d="M68.0364 29.7686H58.1958V32.5008H68.0364V29.7686Z" fill="#E0E0E0"/>
<path d="M95.0626 29.7686H71.7803V32.5008H95.0626V29.7686Z" fill="#E0E0E0"/>
<path d="M78.5509 34.6465H58.1958V37.3823H78.5509V34.6465Z" fill="#E0E0E0"/>
<path d="M95.0623 34.6465H82.2944V37.3823H95.0623V34.6465Z" fill="#E0E0E0"/>
<path d="M73.2919 39.5225H58.1958V42.2583H73.2919V39.5225Z" fill="#E0E0E0"/>
<path d="M95.0625 39.5225H77.0356V42.2583H95.0625V39.5225Z" fill="#E0E0E0"/>
<path d="M65.1056 50.0703H58.1958V52.8026H65.1056V50.0703Z" fill="#E0E0E0"/>
<path d="M89.0227 50.0703H68.853V52.8026H89.0227V50.0703Z" fill="#E0E0E0"/>
<path d="M95.0658 50.0703H92.7661V52.8026H95.0658V50.0703Z" fill="#E0E0E0"/>
<path d="M78.2228 54.9502H58.1958V57.6825H78.2228V54.9502Z" fill="#E0E0E0"/>
<path d="M95.0656 54.9502H81.9697V57.6825H95.0656V54.9502Z" fill="#E0E0E0"/>
<path d="M70.2719 59.8252H58.1958V62.5575H70.2719V59.8252Z" fill="#E0E0E0"/>
<path d="M95.0624 59.8252H74.0156V62.5575H95.0624V59.8252Z" fill="#E0E0E0"/>
<path d="M85.0542 70.3701H58.1958V73.106H85.0542V70.3701Z" fill="#E0E0E0"/>
<path d="M95.0657 70.3701H88.8013V73.106H95.0657V70.3701Z" fill="#E0E0E0"/>
<path d="M69.5446 75.25H58.1958V77.9858H69.5446V75.25Z" fill="#E0E0E0"/>
<path d="M95.0661 75.25H73.292V77.9858H95.0661V75.25Z" fill="#E0E0E0"/>
<path d="M61.3619 80.1289H58.1958V82.8612H61.3619V80.1289Z" fill="#E0E0E0"/>
<path d="M80.4265 80.1289H65.1094V82.8612H80.4265V80.1289Z" fill="#E0E0E0"/>
<path d="M95.0659 80.1289H84.1699V82.8612H95.0659V80.1289Z" fill="#E0E0E0"/>
<path d="M42.7822 29.7686V42.2635H55.2719V29.7686H42.7822ZM53.0649 40.0556H44.9857V31.9729H53.0649V40.0556Z" fill="#E0E0E0"/>
<path d="M42.7822 50.0684V62.5633H55.2719V50.0684H42.7822ZM53.0649 60.3554H44.9857V52.2727H53.0649V60.3554Z" fill="#E0E0E0"/>
<path d="M42.7822 70.3701V82.8651H55.2719V70.3701H42.7822ZM53.0649 80.6572H44.9857V72.5745H53.0649V80.6572Z" fill="#E0E0E0"/>
<path d="M48.1623 39.2316L44.2153 33.8563L46.2476 32.3617L48.5759 35.5327L55.229 29.7686L56.8798 31.6733L48.1623 39.2316Z" fill="#66BB6A"/>
<path d="M48.1623 59.5314L44.2153 54.1596L46.2476 52.6651L48.5759 55.8361L55.229 50.0684L56.8798 51.9767L48.1623 59.5314Z" fill="#66BB6A"/>
<path d="M86.9297 17.958H50.9224V22.274H86.9297V17.958Z" fill="#757575"/>
<path d="M106.375 14.6834V14.6299H106.069C105.509 14.6299 105.056 15.0829 105.056 15.6429V22.0241C105.056 22.5841 105.509 23.0372 106.069 23.0372H106.375V22.9836C106.785 22.8517 107.085 22.4736 107.085 22.0206V15.6393C107.085 15.1863 106.785 14.8082 106.375 14.6763V14.6834Z" fill="#E0E0E0"/>
<path d="M106.375 14.6299C106.935 14.6299 107.388 15.0829 107.388 15.6429V22.0241C107.388 22.5841 106.935 23.0372 106.375 23.0372C105.816 23.0372 105.363 22.5841 105.363 22.0241V15.6429C105.363 15.0829 105.816 14.6299 106.375 14.6299Z" fill="#BDBDBD"/>
<path d="M106.197 47.4121L88.9443 87.5116L96.8026 90.8931L114.052 50.7971L106.197 47.4121Z" fill="#7858DD"/>
<path d="M90.6018 98.7116C90.3844 99.2145 89.5215 99.3286 88.6729 98.9612C87.8244 98.5974 87.311 97.8912 87.5284 97.3882C87.7459 96.8853 88.6088 96.7711 89.4573 97.1385C90.3059 97.5024 90.8193 98.2086 90.6018 98.7116Z" fill="#09926C"/>
<path d="M98.8233 86.189L90.9668 82.8057L90.6552 83.5297L98.5117 86.9131L98.8233 86.189Z" fill="#E0E0E0"/>
<path d="M88.9442 87.5117L88.6625 88.168C88.5841 88.3499 88.6696 88.5604 88.8479 88.6389L96.0465 91.7385C96.2284 91.817 96.4387 91.7314 96.5171 91.5531L96.7988 90.8967L88.9406 87.5153L88.9442 87.5117Z" fill="#E0E0E0"/>
<path d="M88.9191 88.668L87.1507 96.8434C87.1079 97.0467 87.2113 97.2536 87.4038 97.3356L90.7304 98.766C90.9229 98.848 91.144 98.7838 91.2616 98.6126L95.9787 91.707L88.9227 88.668H88.9191Z" fill="#BDBDBD"/>
<path d="M123.558 22.6648L120.085 21.1703C118.873 20.6495 117.472 21.2095 116.948 22.4187L106.194 47.4123L114.053 50.7973L124.806 25.8038C125.326 24.591 124.767 23.1892 123.558 22.6648Z" fill="#BDBDBD"/>
<path d="M124.539 26.4205L116.683 23.0371L116.371 23.7612L124.228 27.1445L124.539 26.4205Z" fill="#E0E0E0"/>
<path d="M123.773 28.2046L115.917 24.8213L115.761 25.1817L123.618 28.565L123.773 28.2046Z" fill="#E0E0E0"/>
<path d="M103.616 64.233C102.768 63.8692 101.784 64.258 101.42 65.1069L95.0948 79.8027C94.7311 80.6516 95.1198 81.6361 95.9683 81.9999C96.8169 82.3638 97.801 81.975 98.1646 81.1261L104.49 66.4303C104.853 65.5813 104.465 64.5969 103.616 64.233Z" fill="#0FE3A9"/>
</g>
<path d="M27.5295 64.0859C16.6948 63.0752 15.6334 62.0637 14.0862 51.2897C13.0755 62.1244 12.064 63.1858 1.28996 64.733C12.1247 65.7437 13.1861 66.7552 14.7333 77.5292C15.744 66.6945 16.7555 65.6331 27.5295 64.0859Z" fill="#7858DD"/>
<path d="M30.6095 81.2195C25.459 80.7405 24.9545 80.2578 24.2191 75.1383C23.74 80.2888 23.2573 80.7933 18.1378 81.5288C23.2884 82.0078 23.7928 82.4905 24.5283 87.61C25.0074 82.4595 25.4901 81.955 30.6095 81.2195Z" fill="#7858DD"/>
<path d="M29.6095 45.2195C24.459 44.7405 23.9545 44.2578 23.2191 39.1383C22.74 44.2888 22.2573 44.7933 17.1378 45.5288C22.2884 46.0078 22.7928 46.4905 23.5283 51.61C24.0074 46.4595 24.4901 45.955 29.6095 45.2195Z" fill="#7858DD"/>
<defs>
<clipPath id="clip0_1936_5551">
<rect width="95" height="120" fill="white" transform="translate(30)"/>
</clipPath>
</defs>
</svg>
