<svg width="182" height="165" viewBox="0 0 182 165" fill="none" xmlns="http://www.w3.org/2000/svg">
<ellipse cx="99.5" cy="82.5" rx="82" ry="82.5" fill="#F6EDFF"/>
<g clip-path="url(#clip0_1964_6421)">
<path d="M58.3781 128.639C58.3781 130.494 56.8714 132 55.0154 132C53.1593 132 51.6526 130.494 51.6526 128.639C51.6788 128.613 58.4305 128.692 58.3781 128.639Z" fill="#096E52"/>
<path d="M148.439 128.639C148.439 130.494 146.932 132 145.076 132C143.22 132 141.714 130.494 141.714 128.639C141.74 128.613 148.492 128.692 148.439 128.639Z" fill="#096E52"/>
<path d="M80.5373 31.3086H78.0305V36.066H80.5373V31.3086Z" fill="#096E52"/>
<path d="M87.9877 31.3086H85.481V36.066H87.9877V31.3086Z" fill="#096E52"/>
<path d="M114.615 31.3086H112.108V36.066H114.615V31.3086Z" fill="#096E52"/>
<path d="M122.065 31.3086H119.559V36.066H122.065V31.3086Z" fill="#096E52"/>
<path d="M85.647 33.9052H80.3713V25.4771C80.3713 21.9068 83.2755 19 86.8523 19H113.248C116.82 19 119.724 21.9068 119.724 25.4771V33.8004H114.449V25.4771C114.449 24.8137 113.907 24.2725 113.243 24.2725H86.8479C86.1841 24.2725 85.6426 24.8137 85.6426 25.4771V33.9095L85.647 33.9052Z" fill="#0FE3A9"/>
<path d="M157.706 35.0225H42.3896C36.7311 35.0225 32.144 39.6068 32.144 45.2619V118.941C32.144 124.596 36.7311 129.18 42.3896 129.18H157.706C163.365 129.18 167.952 124.596 167.952 118.941V45.2619C167.952 39.6068 163.365 35.0225 157.706 35.0225Z" fill="#0FE3A9"/>
<path d="M39.6037 72.3223C39.6037 72.3223 39.5896 72.3458 39.6037 72.3458C39.6177 72.3458 39.6177 72.3223 39.6037 72.3223Z" fill="#363636"/>
<path d="M129.966 86.141C128.782 84.0678 124.096 74.8148 122.485 72.9686C122.45 72.8595 120.681 73.6887 117.864 75.1291C116.296 75.9321 112.318 75.3429 109.54 75.5873C107.759 75.7445 104.038 76.1766 101.815 77.1499C99.7141 78.0708 95.3425 80.0305 95.0586 80.3011C93.1807 80.982 91.5823 82.7933 91.9011 84.6745C92.1544 86.1759 102.924 98.0346 105.771 100.492C107.151 101.683 113.432 108.444 114.654 107.872C116.388 107.065 121.319 106.258 125.629 102.373C128.97 99.3614 131.866 96.0574 134.936 93.5303C135.172 93.3339 131.433 88.3539 129.966 86.1366V86.141Z" fill="#FF8D77"/>
<path d="M133.171 96.0878C134.027 96.4588 140.569 93.6043 140.574 91.8498C140.574 90.0079 126.686 69.6033 124.542 68.5994C123.677 68.1935 116.921 73.2216 116.659 74.0465C116.362 74.9892 132.333 95.7212 133.176 96.0835L133.171 96.0878Z" fill="white"/>
<path d="M165.637 39.1948C163.214 40.5304 139.574 56.5398 135.189 59.1978C133.036 60.5029 130.865 61.773 128.682 63.0256C126.463 64.3045 124.061 65.4174 121.965 66.8883C121.76 66.8316 121.515 67.0498 121.638 67.2986C125.673 75.4648 131.774 82.7231 137.591 89.6629C138.281 90.4878 138.975 91.3127 139.674 92.1333C140.272 92.8447 140.866 93.8136 141.644 94.3418C142.932 95.2234 144.867 93.9577 146.085 93.447C150.051 91.7797 153.352 89.2701 156.99 86.9787C161.074 84.4035 164.257 82.3478 167.891 79.3406C168.004 79.2489 168.057 66.4868 167.891 55.1344C167.764 46.6452 168.808 41.9445 165.637 39.1904V39.1948Z" fill="#7858DD"/>
<path d="M122.376 104.738C117.655 99.7757 112.929 94.8174 108.208 89.8549C107.068 88.6546 105.929 87.4587 104.789 86.2584L102.981 84.3555C102.199 83.5349 101.518 83.0984 101.885 81.8764C102.352 80.3269 102.474 78.8168 101.26 77.73C101.36 77.6121 101.395 77.4419 101.295 77.2717C98.5043 72.5361 92.5343 74.247 88.3505 75.6349C85.0881 76.7174 82.0442 77.1931 78.7338 75.971C75.5894 74.8057 72.5542 73.1122 69.6893 71.3838C69.5364 71.2922 69.3093 71.3445 69.222 71.506C69.1565 71.6282 69.0953 71.7461 69.0298 71.8683C68.9992 71.8945 68.9687 71.9207 68.9468 71.9599C68.7852 72.2655 68.628 72.5753 68.4708 72.8809C68.4271 72.9114 68.3878 72.9551 68.3529 73.0205C66.8549 76.0409 65.3482 79.0524 63.7542 82.0247C62.1645 84.984 60.3259 87.8559 58.8804 90.8849C58.7668 91.125 59.0289 91.3127 59.2123 91.1948C59.1992 91.2952 59.2341 91.4043 59.3346 91.4654C60.5923 92.2511 61.8544 93.0323 63.1166 93.8136C67.1825 96.7597 71.1174 99.7015 74.633 103.328C78.463 107.278 82.5377 110.801 86.752 114.34C88.6911 115.968 90.617 117.614 92.6172 119.163C94.4995 120.617 95.9756 121.699 98.1942 122.607C99.5568 123.161 101.539 122.69 102.583 121.952C103.697 121.167 104.828 120.346 104.352 119.203C107.208 119.966 110.344 117.985 110.117 115.013C112.003 115.541 113.916 115.584 115.331 114.109C116.497 112.896 116.576 111.303 116.013 109.771C118.174 111.342 122.537 109.993 123.494 107.348C123.843 106.379 123.153 105.476 122.362 104.738H122.376Z" fill="#FFC1B1"/>
<path d="M116.1 109.373C114.619 107.693 112.781 106.244 111.113 104.755C109.58 103.389 108.073 101.835 106.374 100.674C106.344 100.653 106.313 100.701 106.335 100.727C107.745 102.451 109.58 103.939 111.2 105.467C112.711 106.885 114.187 108.452 115.855 109.687C116.048 109.827 116.235 109.535 116.096 109.378L116.1 109.373Z" fill="#FF8D77"/>
<path d="M110.2 114.603C108.78 113.232 107.073 112.115 105.535 110.875C103.981 109.623 102.47 108.318 100.915 107.069C100.858 107.026 100.78 107.096 100.832 107.152C102.273 108.654 103.828 110.033 105.404 111.39C106.837 112.621 108.304 113.987 109.938 114.943C110.147 115.065 110.374 114.777 110.2 114.607V114.603Z" fill="#FF8D77"/>
<path d="M104.92 119.552C104.064 118.522 102.789 117.736 101.784 116.846C100.749 115.929 99.7228 114.995 98.7008 114.061C98.6659 114.026 98.6178 114.079 98.6484 114.114C99.5568 115.275 100.522 116.331 101.605 117.33C102.535 118.19 103.562 119.273 104.723 119.805C104.894 119.884 105.042 119.696 104.92 119.548V119.552Z" fill="#FF8D77"/>
<path d="M76.8035 73.9193C76.4978 73.1337 69.7766 68.7341 68.9949 69.188C67.0558 70.3185 55.5307 91.1552 55.6704 92.9447C55.8015 94.6469 62.1602 96.9514 62.9375 96.5324C63.7018 96.1177 77.1572 74.814 76.8079 73.9193H76.8035Z" fill="white"/>
<path d="M70.7069 66.1899C70.0998 65.6706 69.2482 65.1599 68.7853 64.8675C67.7328 64.204 66.5842 63.7021 65.5448 63.0212C63.5228 61.6987 61.5007 60.3806 59.4787 59.0581C55.4347 56.4219 37.5159 45.039 32.6683 42.0361C31.5808 43.3717 32.1093 79.7988 32.249 79.9341C35.5856 83.0941 49.8708 92.1201 54.3953 95.1361C54.5306 95.2278 54.666 95.3587 54.8276 95.3325C55.2949 95.2496 56.2077 92.9538 56.4042 92.561C57.0811 91.2079 57.7318 89.8462 58.3869 88.4844C59.6665 85.8176 60.9548 83.1465 62.4484 80.5888C63.763 78.341 65.1605 76.1456 66.6322 73.9982C68.0603 71.9163 70.0256 69.9261 71.2484 67.7437C71.3969 67.4775 71.4537 67.1327 71.3052 66.8621C71.1873 66.6482 70.9733 66.4169 70.7069 66.1899Z" fill="#7858DD"/>
<path d="M105.116 76.2114C102.636 76.7963 95.9407 79.223 94.6305 80.6328C93.3378 82.0207 91.9054 83.8931 90.9883 85.4906C90.5341 86.2806 90.1236 87.088 89.7218 87.8999C89.3724 88.6069 88.7566 89.4668 88.7348 90.2568C88.6605 93.1854 92.2548 92.4347 93.744 91.4134C95.421 90.2611 97.1242 88.0002 98.3427 86.6079C99.5873 85.1894 101.906 84.753 103.317 84.3776C105.059 83.915 106.627 83.6662 106.649 83.5964C108.103 82.6841 108.51 81.2831 109.16 79.9563C109.737 78.7778 106.785 75.8186 105.116 76.2114Z" fill="#FF8D77"/>
<path d="M95.4166 86.394C94.8183 86.346 94.2156 86.3111 93.6173 86.2543C93.1063 86.2019 91.4118 86.1539 91.3507 86.2631C90.8659 87.1447 88.5993 90.3876 91.1847 90.4836C92.1805 90.5186 93.5387 89.5933 94.3947 88.5676C95.2506 87.5419 95.6087 86.4115 95.4166 86.3984V86.394Z" fill="#EAEAEA"/>
<path d="M77.2709 102.897C76.6595 101.522 74.7859 99.8326 73.1875 100.278C73.1657 100.273 73.1395 100.269 73.1133 100.269C71.2921 100.474 70.0431 103.324 70.3488 104.952C70.7025 106.829 73.17 108.125 74.965 107.641C76.8079 107.143 78.0395 104.621 77.2709 102.897Z" fill="#FF8D77"/>
<path d="M72.9909 102.578C72.9735 102.534 72.9516 102.486 72.9211 102.447C72.6372 102.098 72.1568 102.395 71.9908 102.687C71.8205 102.997 71.7899 103.416 71.8292 103.761C71.9341 104.616 72.3402 105.572 73.2486 105.825C73.9386 106.017 74.7771 105.616 74.8383 104.835C74.8776 104.306 74.5282 103.988 74.122 103.722C73.5849 103.372 73.2486 103.198 72.9953 102.587C72.9953 102.587 72.9953 102.578 72.9909 102.574V102.578Z" fill="#EAEAEA"/>
<path d="M84.4286 102.587C82.0791 100.985 79.367 102.508 77.8298 104.476C76.0261 105.795 75.2094 108.61 76.7554 110.421C78.7556 112.765 81.7996 110.735 83.5421 109.19C85.372 107.562 87.0752 104.385 84.4286 102.587Z" fill="#FF8D77"/>
<path d="M83.4897 104.275C83.0311 103.695 82.2014 103.031 81.7297 103.162C81.2624 103.293 79.7033 104.589 79.3932 106.043C79.1443 107.221 80.3191 108.369 81.555 107.941C82.2407 107.706 84.1098 106.728 84.1928 106.148C84.2845 105.489 83.8871 104.781 83.4897 104.275Z" fill="#EAEAEA"/>
<path d="M90.4992 105.462C88.0012 103.834 85.014 106.445 83.3894 108.67C81.494 110.312 79.6117 113.245 81.3892 115.392C83.6427 118.111 87.5208 114.454 89.0973 112.778C90.901 110.862 93.648 107.518 90.4948 105.467L90.4992 105.462Z" fill="#FF8D77"/>
<path d="M89.7088 106.759C89.2371 106.397 88.6956 106.152 88.1104 106.056C87.7435 105.995 85.5425 107.837 85.3896 108.863C85.1887 110.224 86.7827 110.993 87.9008 110.552C88.7524 110.216 90.8617 109.155 90.8705 108.121C90.8748 107.588 90.1062 107.069 89.7088 106.763V106.759Z" fill="#EAEAEA"/>
<path d="M93.9363 118.173C94.4254 117.566 94.932 116.96 95.3207 116.279C95.9758 115.148 96.3208 113.734 95.8579 112.46C94.7312 109.339 91.3553 110.657 89.5516 112.128C89.0275 112.556 88.3201 113.127 87.8571 113.651C87.3811 114.192 86.9837 114.803 86.7042 115.467C86.1539 116.763 86.0884 118.247 86.7959 119.5C88.3637 122.276 91.8793 122.245 94.5696 121.516C94.6744 121.49 95.3557 121.198 95.1155 120.975C94.7268 120.622 94.194 120.189 93.8228 119.792C93.4516 119.395 93.2201 119.199 93.504 118.701C93.6481 118.522 93.7922 118.343 93.9363 118.169V118.173Z" fill="#FF8D77"/>
<path d="M91.7963 111.888C90.8137 112.228 89.6258 113.223 89.1541 114.088C88.6388 115.03 89.2633 115.746 90.2547 115.689C91.4513 115.62 92.6173 114.825 93.3117 113.874C93.9668 112.979 91.7745 111.683 91.7963 111.888Z" fill="#EAEAEA"/>
</g>
<path d="M29.5295 50.0869C18.6948 49.0761 17.6334 48.0647 16.0862 37.2907C15.0755 48.1254 14.064 49.1868 3.28996 50.734C14.1247 51.7447 15.1861 52.7562 16.7333 63.5302C17.744 52.6955 18.7555 51.6341 29.5295 50.0869Z" fill="#7858DD"/>
<path d="M24.6098 74.2176C19.4592 73.7385 18.9548 73.2558 18.2193 68.1364C17.7403 73.2869 17.2576 73.7914 12.1381 74.5268C17.2886 75.0059 17.7931 75.4886 18.5286 80.6081C19.0076 75.4575 19.4903 74.9531 24.6098 74.2176Z" fill="#7858DD"/>
<path d="M31.6098 32.2195C26.4592 31.7405 25.9548 31.2578 25.2193 26.1383C24.7403 31.2888 24.2576 31.7933 19.1381 32.5288C24.2886 33.0078 24.7931 33.4905 25.5286 38.61C26.0076 33.4595 26.4903 32.955 31.6098 32.2195Z" fill="#7858DD"/>
<path d="M7.6269 66.8054C7.60622 65.2682 6.34132 64.0426 4.80805 64.0632C3.27081 64.0839 2.04529 65.3488 2.06587 66.8821C2.08646 68.4153 3.35146 69.6448 4.88472 69.6243C6.42196 69.6036 7.64749 68.3387 7.6269 66.8054Z" fill="#5C40B7"/>
<defs>
<clipPath id="clip0_1964_6421">
<rect width="136" height="113" fill="white" transform="translate(32 19)"/>
</clipPath>
</defs>
</svg>
