<svg width="195" height="173" viewBox="0 0 195 173" fill="none" xmlns="http://www.w3.org/2000/svg">
<ellipse cx="100" cy="90.5" rx="82" ry="82.5" fill="#F6EDFF"/>
<g clip-path="url(#clip0_1613_4512)">
<path d="M91.3446 37.2205L87.9824 51.5938L94.0628 53.0014L97.425 38.6282L91.3446 37.2205Z" fill="#CFD1D2"/>
<path d="M84.932 31.4725C85.4553 29.2374 87.6968 27.8492 89.9409 28.3672L102.591 31.2938C104.835 31.8143 106.233 34.0442 105.71 36.2793C105.186 38.5144 102.945 39.9026 100.701 39.3846L88.0509 36.458C85.8068 35.9375 84.4088 33.7075 84.932 31.4725Z" fill="#CFD1D2"/>
<path d="M84.9998 156L79.2021 155.399L89.5141 56.8789L152.266 134.042L147.736 137.689L93.8513 71.4316L84.9998 156Z" fill="#363636"/>
<path d="M77.0163 40.7039L73.1284 45.5664L84.7356 54.7514L88.6235 49.8889L77.0163 40.7039Z" fill="#E5E5E6"/>
<path d="M65.1625 48.8505C63.3584 47.4235 63.059 44.8102 64.4934 43.0154L72.5795 32.9019C74.0139 31.1071 76.6407 30.8093 78.4423 32.2363C80.2464 33.6633 80.5458 36.2765 79.1113 38.0713L71.0253 48.1849C69.5908 49.9797 66.964 50.2775 65.1625 48.8505Z" fill="#E5E5E6"/>
<path d="M86.8749 35.8591L80.8848 37.6084L85.7157 53.9798L91.7058 52.2305L86.8749 35.8591Z" fill="#919395"/>
<path d="M72.8943 37.1627C72.2461 34.9613 73.5113 32.6537 75.7242 32.0088L88.1865 28.37C90.3994 27.7251 92.7164 28.9838 93.3672 31.1852C94.0155 33.3867 92.7502 35.6943 90.5374 36.3391L78.075 39.978C75.8648 40.6228 73.5452 39.3641 72.8943 37.1627Z" fill="#919395"/>
<path d="M101.297 146.12C129.243 146.12 151.899 123.576 151.899 95.7669C151.899 67.9578 129.243 45.4141 101.297 45.4141C73.3504 45.4141 50.6953 67.9578 50.6953 95.7669C50.6953 123.576 73.3504 146.12 101.297 146.12Z" fill="#0FE3A9"/>
<path d="M101.297 146.12C129.243 146.12 151.899 123.576 151.899 95.7669C151.899 67.9578 129.243 45.4141 101.297 45.4141C73.3504 45.4141 50.6953 67.9578 50.6953 95.7669C50.6953 123.576 73.3504 146.12 101.297 146.12Z" fill="#09926C"/>
<path d="M101.297 143.858C127.988 143.858 149.626 122.327 149.626 95.7666C149.626 69.2063 127.988 47.6748 101.297 47.6748C74.6059 47.6748 52.9683 69.2063 52.9683 95.7666C52.9683 122.327 74.6059 143.858 101.297 143.858Z" fill="#0FE3A9"/>
<path d="M124.144 62.6808C114.491 56.0895 102.047 53.7119 89.9359 57.2471C68.557 63.4914 56.3134 85.7982 62.5875 107.072C64.5348 113.678 68.0415 119.405 72.5896 123.978C82.6855 134.133 97.9204 138.591 112.661 134.284C134.04 128.039 146.283 105.733 140.009 84.4592C137.289 75.2366 131.532 67.7233 124.144 62.6782V62.6808Z" fill="white"/>
<path d="M124.144 62.6803C128.692 67.2541 132.197 72.9829 134.146 79.5872C140.421 100.861 128.177 123.167 106.798 129.412C94.6872 132.949 82.2457 130.572 72.5898 123.978C82.6857 134.133 97.9206 138.59 112.661 134.283C134.04 128.039 146.283 105.732 140.009 84.4588C137.289 75.2362 131.533 67.7229 124.144 62.6777V62.6803Z" fill="#F0F1F1"/>
<path d="M148.577 58.9356C154.791 47.9285 150.792 33.9508 139.644 27.7195C128.497 21.4857 114.42 25.355 108.204 36.3646L148.577 58.9382V58.9356Z" fill="#09926C"/>
<path d="M142.888 55.4676C148.243 45.9833 144.797 33.9403 135.193 28.5689C125.586 23.1974 113.457 26.5332 108.102 36.0174L142.888 55.4676Z" fill="#0FE3A9"/>
<path d="M40.9667 90.6388C29.7592 84.7209 25.5314 70.8105 31.5269 59.5704C37.5199 48.3302 51.4661 44.0154 62.6736 49.9333L40.9667 90.6388Z" fill="#09926C"/>
<path d="M43.9552 85.0315C34.2915 79.9294 30.6468 67.9356 35.8144 58.2416C40.9821 48.5502 53.0071 44.8285 62.6708 49.9332L43.9552 85.0315Z" fill="#0FE3A9"/>
<path d="M99.1025 99.431L91.4277 73.4129L97.0198 71.7812L103.052 92.2337L119.523 87.4216L121.166 92.9848L99.1025 99.431Z" fill="#363636"/>
<path d="M101.327 101.321C104.41 101.316 106.905 98.8257 106.901 95.7576C106.897 92.6895 104.394 90.2057 101.312 90.21C98.229 90.2143 95.7335 92.705 95.7378 95.7731C95.7421 98.8412 98.2445 101.325 101.327 101.321Z" fill="#0FE3A9"/>
<path d="M72.9257 104.055C73.3709 105.565 72.5014 107.15 70.9836 107.593C69.4658 108.035 67.8752 107.17 67.43 105.661C66.9848 104.151 67.8543 102.566 69.3721 102.123C70.8899 101.68 72.4805 102.545 72.9257 104.055Z" fill="#363636"/>
<path d="M136.245 85.5597C136.69 87.0696 135.82 88.6546 134.302 89.0975C132.785 89.5404 131.194 88.6754 130.749 87.1654C130.304 85.6555 131.173 84.0705 132.691 83.6276C134.209 83.1848 135.799 84.0498 136.245 85.5597Z" fill="#363636"/>
<path d="M93.3518 66.8397C91.834 67.2826 90.2433 66.4175 89.7982 64.9076C89.353 63.3977 90.2225 61.8127 91.7403 61.3698C93.258 60.927 94.8487 61.792 95.2939 63.3019C95.739 64.8118 94.8695 66.3968 93.3518 66.8397Z" fill="#363636"/>
<path d="M111.937 129.848C110.419 130.29 108.829 129.425 108.384 127.915C107.938 126.406 108.808 124.821 110.326 124.378C111.843 123.935 113.434 124.8 113.879 126.31C114.324 127.82 113.455 129.405 111.937 129.848Z" fill="#363636"/>
<path d="M150.508 66.3561C151.308 67.1978 152.034 68.1043 152.719 69.0366C153.409 69.9664 154.049 70.935 154.661 71.9192C155.877 73.8927 156.952 75.9595 157.889 78.0883C158.826 80.2198 159.615 82.4213 160.261 84.6693C160.419 85.2313 160.576 85.7959 160.714 86.3657L161.109 88.0776C161.333 89.2301 161.549 90.3826 161.703 91.5481L161.817 92.4209C161.854 92.7135 161.875 93.0062 161.903 93.2988C161.95 93.8841 162.021 94.4695 162.049 95.0574L162.112 96.8237C162.13 97.4116 162.112 98.0021 162.101 98.59C162.036 100.944 161.815 103.298 161.32 105.603L161.146 106.466C161.091 106.753 161 107.036 160.93 107.321C160.779 107.888 160.63 108.455 160.469 109.02C160.284 109.576 160.097 110.133 159.901 110.685L159.605 111.508L159.264 112.316C159.027 112.853 158.805 113.389 158.558 113.914C158.287 114.432 158.022 114.95 157.743 115.461C157.603 115.714 157.475 115.973 157.324 116.222L156.855 116.958C156.533 117.442 156.225 117.929 155.892 118.4C156.022 117.833 156.176 117.281 156.317 116.727L156.543 115.903L156.733 115.072C156.855 114.518 156.991 113.971 157.118 113.425L157.433 111.77L157.597 110.952L157.72 110.123L157.972 108.478C158.074 107.372 158.243 106.285 158.293 105.181C158.394 104.086 158.41 102.985 158.451 101.892C158.47 101.346 158.441 100.794 158.451 100.248V99.4265L158.415 98.6055C158.381 98.0591 158.389 97.5126 158.345 96.9661L158.22 95.3293C158.181 94.7828 158.11 94.239 158.058 93.6925C158.027 93.4206 158.006 93.146 157.97 92.8767L157.853 92.0609C157.73 90.9705 157.53 89.8879 157.348 88.8054L157.04 87.1815L156.694 85.5628C156.215 83.408 155.653 81.261 155.025 79.1243C153.763 74.8458 152.248 70.6165 150.506 66.3535L150.508 66.3561Z" fill="#7858DD"/>
<path d="M164.337 70.2793C164.957 70.8335 165.506 71.4525 166.032 72.087C166.561 72.7216 167.045 73.3872 167.511 74.0683C168.435 75.4332 169.242 76.8758 169.953 78.3727C170.658 79.8697 171.249 81.4262 171.726 83.019C172.207 84.6118 172.559 86.2512 172.78 87.9113C173.004 89.5715 173.108 91.2549 173.038 92.9357C172.975 94.6166 172.783 96.2948 172.392 97.9291C172.304 98.3383 172.207 98.7475 172.08 99.1489C171.96 99.5503 171.843 99.9518 171.715 100.351C171.57 100.744 171.424 101.135 171.27 101.524L171.036 102.104L170.77 102.671C170.585 103.044 170.411 103.422 170.216 103.787C170.005 104.147 169.799 104.507 169.581 104.86C169.471 105.036 169.37 105.214 169.253 105.385L168.888 105.89C168.641 106.222 168.393 106.553 168.131 106.869C168.406 105.233 168.761 103.694 168.943 102.127L169.031 101.55L169.091 100.967L169.221 99.8145C169.263 99.0401 169.357 98.2813 169.365 97.5147C169.445 95.9892 169.424 94.469 169.351 92.9565C169.289 91.444 169.133 89.934 168.932 88.4293C168.542 85.4147 167.878 82.4207 167.092 79.4139C166.3 76.3992 165.358 73.4027 164.34 70.2819L164.337 70.2793Z" fill="#7858DD"/>
<path d="M42.1668 97.999C43.0181 102.524 44.0386 106.895 45.2987 111.174C45.9313 113.311 46.6238 115.416 47.3918 117.488L47.9801 119.037L48.6023 120.567C49.0397 121.577 49.4588 122.595 49.9457 123.579L50.2893 124.328C50.4039 124.577 50.5366 124.817 50.659 125.063C50.9115 125.55 51.1484 126.045 51.4114 126.527L52.1976 127.972C52.4579 128.456 52.7599 128.912 53.0281 129.391L53.442 130.103L53.8898 130.792C54.1944 131.248 54.4703 131.725 54.7827 132.175C55.4127 133.074 56.0245 133.991 56.704 134.858C57.3444 135.76 58.076 136.583 58.7633 137.461L59.8671 138.71L60.419 139.342L61.0022 139.942L62.1659 141.165C62.572 141.556 62.9807 141.942 63.3843 142.343L63.996 142.942L64.6339 143.511C65.053 143.902 65.4826 144.283 65.8991 144.692C65.3628 144.475 64.8395 144.231 64.3058 143.998L63.5118 143.63C63.2515 143.501 63.0016 143.353 62.7464 143.216C62.2362 142.936 61.7311 142.644 61.2209 142.354C60.7262 142.043 60.2472 141.711 59.7578 141.388L59.0314 140.89L58.3337 140.354C57.8703 139.994 57.4121 139.629 56.9513 139.259C56.5088 138.873 56.0766 138.474 55.6418 138.078C55.4284 137.876 55.1993 137.687 54.9962 137.474L54.3818 136.84C52.7157 135.167 51.2474 133.305 49.9144 131.36C49.5864 130.87 49.2506 130.383 48.946 129.878L48.04 128.36C47.7458 127.85 47.4855 127.322 47.2069 126.801C47.0716 126.54 46.9284 126.283 46.8008 126.017L46.4233 125.219C45.9183 124.157 45.4757 123.069 45.0383 121.979L44.4422 120.324C44.2495 119.772 44.0751 119.213 43.9033 118.653C43.2264 116.413 42.6927 114.137 42.3256 111.842C41.9585 109.545 41.7399 107.229 41.6904 104.914C41.6722 103.756 41.6826 102.599 41.7581 101.444C41.8284 100.291 41.9481 99.136 42.1616 98.0016L42.1668 97.999Z" fill="#7858DD"/>
<path d="M32.6619 108.739C33.5028 111.912 34.3359 114.942 35.3069 117.902C36.2806 120.855 37.348 123.73 38.6549 126.477C39.3031 127.853 39.993 129.205 40.761 130.513C41.5212 131.823 42.3308 133.113 43.2264 134.353C43.6507 134.996 44.1428 135.581 44.5983 136.21L45.3351 137.112L45.7022 137.57L46.0901 138.008C47.0924 139.228 48.2274 140.331 49.3469 141.561C48.9538 141.437 48.5659 141.292 48.178 141.144L47.5974 140.916C47.4048 140.836 47.2251 140.74 47.0377 140.652C46.6628 140.473 46.2931 140.282 45.9209 140.093C45.559 139.888 45.2075 139.665 44.8483 139.45L44.3172 139.116L43.8069 138.754C43.4659 138.51 43.1327 138.259 42.7942 138.005C42.4688 137.741 42.1538 137.464 41.8336 137.192C41.5082 136.923 41.2062 136.632 40.9068 136.335C39.6884 135.169 38.6158 133.859 37.65 132.481C36.6763 131.103 35.851 129.632 35.1377 128.114C33.7033 125.082 32.7843 121.842 32.3339 118.568C32.1178 116.929 32.0137 115.279 32.0501 113.634C32.0735 112.811 32.1178 111.99 32.2193 111.171C32.3157 110.355 32.4432 109.54 32.6619 108.739Z" fill="#7858DD"/>
<path d="M103.049 0L103.215 16.0004L107.503 13.3276L110.653 23.335L110.856 7.32424L106.272 10.1213L103.049 0Z" fill="#7858DD"/>
<path d="M132.217 1.78223L119.671 11.7922L124.43 13.4963L118.463 22.1414L131.249 12.4164L126.206 10.5542L132.217 1.78223Z" fill="#7858DD"/>
<path d="M27.5488 35.6453L40.5136 45.1139L40.9353 40.0999L50.8724 43.5962L38.1237 33.8271L37.6187 39.1546L27.5488 35.6453Z" fill="#7858DD"/>
<path d="M46.4829 13.499L47.0036 29.4917L51.2288 26.7256L54.6002 36.6631L54.4518 20.6497L49.9272 23.5452L46.4829 13.499Z" fill="#7858DD"/>
<path d="M176.485 30.3486L164.806 41.3479L169.69 42.6584L164.458 51.7619L176.397 41.0268L171.216 39.5816L176.485 30.3486Z" fill="#4674B7"/>
<path d="M195 52.8442L179.096 50.4951L181.074 55.1259L170.648 56.6513L186.505 59.3655L184.451 54.4188L195 52.8442Z" fill="#4674B7"/>
<path d="M3.36084 80.916L19.1581 83.8892L15.7633 87.6187L25.1094 92.4618L9.23404 89.8512L12.8059 85.8498L3.36084 80.916Z" fill="#4674B7"/>
<path d="M0 109.801L12.1057 99.2705L12.957 104.23L22.5582 99.905L10.6894 110.718L9.73139 105.453L0 109.801Z" fill="#4674B7"/>
</g>
<defs>
<clipPath id="clip0_1613_4512">
<rect width="195" height="156" fill="white"/>
</clipPath>
</defs>
</svg>
